BriemScript-Thin.ufo
<glyph name="numbersign" format="2">
  <advance width="537"/>
  <unicode hex="0023"/>
  <outline>
    <contour>
      <point x="166" y="-13" type="curve" smooth="yes"/>
      <point x="175" y="-13"/>
      <point x="176" y="-10"/>
      <point x="176" y="-5" type="curve" smooth="yes"/>
      <point x="176" y="50"/>
      <point x="179" y="122"/>
      <point x="183" y="196" type="curve"/>
      <point x="344" y="196" type="line"/>
      <point x="338" y="96"/>
      <point x="332" y="19"/>
      <point x="332" y="14" type="curve" smooth="yes"/>
      <point x="332" y="-4"/>
      <point x="354" y="-13"/>
      <point x="377" y="-13" type="curve" smooth="yes"/>
      <point x="385" y="-13"/>
      <point x="387" y="-10"/>
      <point x="387" y="-5" type="curve" smooth="yes"/>
      <point x="387" y="50"/>
      <point x="389" y="122"/>
      <point x="393" y="196" type="curve"/>
      <point x="480" y="196" type="line" smooth="yes"/>
      <point x="496" y="196"/>
      <point x="503" y="215"/>
      <point x="503" y="233" type="curve" smooth="yes"/>
      <point x="503" y="239"/>
      <point x="500" y="241"/>
      <point x="495" y="241" type="curve" smooth="yes"/>
      <point x="393" y="241" type="line"/>
      <point x="395" y="300"/>
      <point x="399" y="358"/>
      <point x="403" y="411" type="curve"/>
      <point x="495" y="411" type="line" smooth="yes"/>
      <point x="511" y="411"/>
      <point x="518" y="429"/>
      <point x="518" y="447" type="curve" smooth="yes"/>
      <point x="518" y="453"/>
      <point x="515" y="455"/>
      <point x="510" y="455" type="curve" smooth="yes"/>
      <point x="404" y="455" type="line"/>
      <point x="411" y="550"/>
      <point x="417" y="621"/>
      <point x="417" y="626" type="curve" smooth="yes"/>
      <point x="417" y="644"/>
      <point x="395" y="652"/>
      <point x="373" y="652" type="curve" smooth="yes"/>
      <point x="364" y="652"/>
      <point x="363" y="650"/>
      <point x="363" y="645" type="curve" smooth="yes"/>
      <point x="361" y="611"/>
      <point x="358" y="539"/>
      <point x="354" y="455" type="curve"/>
      <point x="194" y="455" type="line"/>
      <point x="200" y="550"/>
      <point x="207" y="621"/>
      <point x="207" y="626" type="curve" smooth="yes"/>
      <point x="207" y="644"/>
      <point x="185" y="652"/>
      <point x="162" y="652" type="curve" smooth="yes"/>
      <point x="154" y="652"/>
      <point x="152" y="650"/>
      <point x="152" y="645" type="curve" smooth="yes"/>
      <point x="151" y="611"/>
      <point x="147" y="539"/>
      <point x="144" y="455" type="curve"/>
      <point x="57" y="455" type="line" smooth="yes"/>
      <point x="40" y="455"/>
      <point x="34" y="436"/>
      <point x="34" y="418" type="curve" smooth="yes"/>
      <point x="34" y="412"/>
      <point x="37" y="411"/>
      <point x="42" y="411" type="curve" smooth="yes"/>
      <point x="144" y="411" type="line"/>
      <point x="134" y="241" type="line"/>
      <point x="42" y="241" type="line" smooth="yes"/>
      <point x="25" y="241"/>
      <point x="19" y="222"/>
      <point x="19" y="204" type="curve" smooth="yes"/>
      <point x="19" y="198"/>
      <point x="21" y="196"/>
      <point x="26" y="196" type="curve" smooth="yes"/>
      <point x="134" y="196" type="line"/>
      <point x="127" y="96"/>
      <point x="122" y="19"/>
      <point x="122" y="14" type="curve" smooth="yes"/>
      <point x="122" y="-4"/>
      <point x="144" y="-13"/>
    </contour>
    <contour>
      <point x="181" y="238" type="line"/>
      <point x="191" y="413" type="line"/>
      <point x="355" y="413" type="line"/>
      <point x="345" y="238" type="line"/>
    </contour>
  </outline>
</glyph>
<glyph name="percent" format="2">
  <advance width="870"/>
  <unicode hex="0025"/>
  <outline>
    <contour>
      <point x="233" y="-34" type="curve" smooth="yes"/>
      <point x="240" y="-34"/>
      <point x="248" y="-29"/>
      <point x="254" y="-19" type="curve" smooth="yes"/>
      <point x="305" y="68"/>
      <point x="649" y="586"/>
      <point x="680" y="630" type="curve" smooth="yes"/>
      <point x="690" y="644"/>
      <point x="691" y="649"/>
      <point x="691" y="651" type="curve" smooth="yes"/>
      <point x="691" y="661"/>
      <point x="671" y="675"/>
      <point x="652" y="675" type="curve" smooth="yes"/>
      <point x="645" y="675"/>
      <point x="637" y="670"/>
      <point x="631" y="660" type="curve" smooth="yes"/>
      <point x="489" y="443"/>
      <point x="346" y="226"/>
      <point x="202" y="8" type="curve" smooth="yes"/>
      <point x="195" y="-3"/>
      <point x="194" y="-5"/>
      <point x="194" y="-10" type="curve" smooth="yes"/>
      <point x="194" y="-20"/>
      <point x="214" y="-34"/>
    </contour>
    <contour>
      <point x="193" y="276" type="curve" smooth="yes"/>
      <point x="307" y="276"/>
      <point x="363" y="359"/>
      <point x="363" y="495" type="curve" smooth="yes"/>
      <point x="363" y="601"/>
      <point x="305" y="652"/>
      <point x="224" y="652" type="curve" smooth="yes"/>
      <point x="110" y="652"/>
      <point x="53" y="569"/>
      <point x="53" y="433" type="curve" smooth="yes"/>
      <point x="53" y="327"/>
      <point x="112" y="276"/>
    </contour>
    <contour>
      <point x="196" y="307" type="curve" smooth="yes"/>
      <point x="145" y="307"/>
      <point x="112" y="360"/>
      <point x="112" y="436" type="curve" smooth="yes"/>
      <point x="112" y="545"/>
      <point x="149" y="620"/>
      <point x="219" y="620" type="curve" smooth="yes"/>
      <point x="271" y="620"/>
      <point x="304" y="568"/>
      <point x="304" y="491" type="curve" smooth="yes"/>
      <point x="304" y="383"/>
      <point x="267" y="307"/>
    </contour>
    <contour>
      <point x="662" y="-13" type="curve" smooth="yes"/>
      <point x="777" y="-13"/>
      <point x="832" y="71"/>
      <point x="832" y="207" type="curve" smooth="yes"/>
      <point x="832" y="312"/>
      <point x="775" y="364"/>
      <point x="694" y="364" type="curve" smooth="yes"/>
      <point x="579" y="364"/>
      <point x="523" y="281"/>
      <point x="523" y="145" type="curve" smooth="yes"/>
      <point x="523" y="39"/>
      <point x="582" y="-13"/>
    </contour>
    <contour>
      <point x="666" y="19" type="curve" smooth="yes"/>
      <point x="615" y="19"/>
      <point x="582" y="72"/>
      <point x="582" y="147" type="curve" smooth="yes"/>
      <point x="582" y="257"/>
      <point x="618" y="331"/>
      <point x="689" y="331" type="curve" smooth="yes"/>
      <point x="741" y="331"/>
      <point x="773" y="280"/>
      <point x="773" y="203" type="curve" smooth="yes"/>
      <point x="773" y="94"/>
      <point x="737" y="19"/>
    </contour>
  </outline>
</glyph>
<glyph name="quotesingle" format="2">
  <advance width="137"/>
  <unicode hex="0027"/>
  <outline>
    <contour>
      <point x="67" y="453" type="curve" smooth="yes"/>
      <point x="76" y="453"/>
      <point x="81" y="460"/>
      <point x="95" y="497" type="curve" smooth="yes"/>
      <point x="107" y="530"/>
      <point x="139" y="627"/>
      <point x="139" y="638" type="curve" smooth="yes"/>
      <point x="139" y="650"/>
      <point x="129" y="652"/>
      <point x="109" y="652" type="curve" smooth="yes"/>
      <point x="87" y="652"/>
      <point x="75" y="647"/>
      <point x="73" y="626" type="curve" smooth="yes"/>
      <point x="69" y="591"/>
      <point x="57" y="486"/>
      <point x="57" y="471" type="curve" smooth="yes"/>
      <point x="57" y="456"/>
      <point x="61" y="453"/>
    </contour>
  </outline>
</glyph>
<glyph name="parenleft" format="2">
  <advance width="311"/>
  <unicode hex="0028"/>
  <outline>
    <contour>
      <point x="231" y="-244" type="curve" smooth="yes"/>
      <point x="237" y="-244"/>
      <point x="241" y="-243"/>
      <point x="241" y="-235" type="curve" smooth="yes"/>
      <point x="241" y="-229"/>
      <point x="129" y="-66"/>
      <point x="129" y="237" type="curve" smooth="yes"/>
      <point x="129" y="430"/>
      <point x="198" y="618"/>
      <point x="286" y="736" type="curve" smooth="yes"/>
      <point x="289" y="740"/>
      <point x="290" y="741"/>
      <point x="290" y="742" type="curve" smooth="yes"/>
      <point x="290" y="748"/>
      <point x="276" y="756"/>
      <point x="263" y="756" type="curve" smooth="yes"/>
      <point x="259" y="756"/>
      <point x="256" y="753"/>
      <point x="249" y="745" type="curve" smooth="yes"/>
      <point x="137" y="624"/>
      <point x="70" y="450"/>
      <point x="70" y="238" type="curve" smooth="yes"/>
      <point x="70" y="72"/>
      <point x="97" y="-48"/>
      <point x="190" y="-227" type="curve" smooth="yes"/>
      <point x="195" y="-237"/>
      <point x="208" y="-244"/>
    </contour>
  </outline>
</glyph>
<glyph name="parenright" format="2">
  <advance width="311"/>
  <unicode hex="0029"/>
  <outline>
    <contour>
      <point x="49" y="-244" type="curve" smooth="yes"/>
      <point x="53" y="-244"/>
      <point x="56" y="-243"/>
      <point x="63" y="-235" type="curve" smooth="yes"/>
      <point x="175" y="-114"/>
      <point x="242" y="62"/>
      <point x="242" y="273" type="curve" smooth="yes"/>
      <point x="242" y="440"/>
      <point x="215" y="559"/>
      <point x="122" y="737" type="curve" smooth="yes"/>
      <point x="117" y="747"/>
      <point x="103" y="756"/>
      <point x="81" y="756" type="curve" smooth="yes"/>
      <point x="74" y="756"/>
      <point x="71" y="753"/>
      <point x="71" y="746" type="curve" smooth="yes"/>
      <point x="71" y="741"/>
      <point x="183" y="576"/>
      <point x="183" y="274" type="curve" smooth="yes"/>
      <point x="183" y="80"/>
      <point x="113" y="-107"/>
      <point x="25" y="-224" type="curve" smooth="yes"/>
      <point x="22" y="-228"/>
      <point x="21" y="-231"/>
      <point x="21" y="-232" type="curve" smooth="yes"/>
      <point x="21" y="-238"/>
      <point x="35" y="-244"/>
    </contour>
  </outline>
</glyph>
<glyph name="asterisk" format="2">
  <advance width="481"/>
  <unicode hex="002A"/>
  <outline>
    <contour>
      <point x="271" y="328" type="curve" smooth="yes"/>
      <point x="279" y="328"/>
      <point x="283" y="330"/>
      <point x="283" y="335" type="curve" smooth="yes"/>
      <point x="283" y="399"/>
      <point x="274" y="444"/>
      <point x="274" y="516" type="curve"/>
      <point x="334" y="483"/>
      <point x="358" y="450"/>
      <point x="418" y="411" type="curve" smooth="yes"/>
      <point x="420" y="410"/>
      <point x="421" y="409"/>
      <point x="423" y="409" type="curve" smooth="yes"/>
      <point x="432" y="409"/>
      <point x="449" y="442"/>
      <point x="449" y="459" type="curve" smooth="yes"/>
      <point x="449" y="467"/>
      <point x="446" y="473"/>
      <point x="438" y="477" type="curve" smooth="yes"/>
      <point x="414" y="489"/>
      <point x="374" y="493"/>
      <point x="292" y="541" type="curve"/>
      <point x="366" y="584"/>
      <point x="408" y="583"/>
      <point x="442" y="607" type="curve" smooth="yes"/>
      <point x="448" y="611"/>
      <point x="450" y="618"/>
      <point x="450" y="625" type="curve" smooth="yes"/>
      <point x="450" y="646"/>
      <point x="433" y="676"/>
      <point x="426" y="676" type="curve" smooth="yes"/>
      <point x="424" y="676"/>
      <point x="422" y="675"/>
      <point x="419" y="673" type="curve" smooth="yes"/>
      <point x="365" y="637"/>
      <point x="335" y="600"/>
      <point x="279" y="564" type="curve"/>
      <point x="287" y="642"/>
      <point x="312" y="685"/>
      <point x="312" y="728" type="curve" smooth="yes"/>
      <point x="312" y="745"/>
      <point x="278" y="756"/>
      <point x="252" y="756" type="curve" smooth="yes"/>
      <point x="243" y="756"/>
      <point x="240" y="754"/>
      <point x="240" y="746" type="curve" smooth="yes"/>
      <point x="242" y="690"/>
      <point x="246" y="652"/>
      <point x="246" y="602" type="curve" smooth="yes"/>
      <point x="246" y="590"/>
      <point x="246" y="578"/>
      <point x="245" y="564" type="curve"/>
      <point x="184" y="604"/>
      <point x="156" y="634"/>
      <point x="99" y="673" type="curve" smooth="yes"/>
      <point x="96" y="675"/>
      <point x="94" y="676"/>
      <point x="92" y="676" type="curve" smooth="yes"/>
      <point x="84" y="676"/>
      <point x="69" y="643"/>
      <point x="69" y="627" type="curve" smooth="yes"/>
      <point x="69" y="619"/>
      <point x="72" y="612"/>
      <point x="78" y="608" type="curve" smooth="yes"/>
      <point x="113" y="584"/>
      <point x="157" y="580"/>
      <point x="230" y="540" type="curve"/>
      <point x="148" y="492"/>
      <point x="103" y="492"/>
      <point x="80" y="477" type="curve" smooth="yes"/>
      <point x="74" y="473"/>
      <point x="71" y="466"/>
      <point x="71" y="458" type="curve" smooth="yes"/>
      <point x="71" y="437"/>
      <point x="89" y="409"/>
      <point x="94" y="409" type="curve" smooth="yes"/>
      <point x="95" y="409"/>
      <point x="97" y="410"/>
      <point x="99" y="411" type="curve" smooth="yes"/>
      <point x="160" y="450"/>
      <point x="188" y="484"/>
      <point x="242" y="515" type="curve"/>
      <point x="235" y="416"/>
      <point x="209" y="379"/>
      <point x="209" y="355" type="curve" smooth="yes"/>
      <point x="209" y="336"/>
      <point x="244" y="328"/>
    </contour>
  </outline>
</glyph>
<glyph name="period" format="2">
  <advance width="275"/>
  <unicode hex="002E"/>
  <outline>
    <contour>
      <point x="126" y="0" type="curve" smooth="yes"/>
      <point x="152" y="0"/>
      <point x="169" y="19"/>
      <point x="169" y="40" type="curve" smooth="yes"/>
      <point x="169" y="74"/>
      <point x="155" y="91"/>
      <point x="141" y="91" type="curve" smooth="yes"/>
      <point x="125" y="91"/>
      <point x="96" y="68"/>
      <point x="96" y="35" type="curve" smooth="yes"/>
      <point x="96" y="11"/>
      <point x="105" y="0"/>
    </contour>
  </outline>
</glyph>
<glyph name="one" format="2">
  <advance width="414"/>
  <unicode hex="0031"/>
  <outline>
    <contour>
      <point x="259" y="-13" type="curve" smooth="yes"/>
      <point x="268" y="-13"/>
      <point x="269" y="-10"/>
      <point x="269" y="-5" type="curve" smooth="yes"/>
      <point x="269" y="317"/>
      <point x="305" y="612"/>
      <point x="305" y="626" type="curve" smooth="yes"/>
      <point x="305" y="644"/>
      <point x="272" y="652"/>
      <point x="251" y="652" type="curve" smooth="yes"/>
      <point x="248" y="652"/>
      <point x="77" y="525"/>
      <point x="67" y="515" type="curve" smooth="yes"/>
      <point x="61" y="509"/>
      <point x="60" y="500"/>
      <point x="60" y="492" type="curve" smooth="yes"/>
      <point x="60" y="476"/>
      <point x="67" y="451"/>
      <point x="74" y="451" type="curve" smooth="yes"/>
      <point x="79" y="451"/>
      <point x="160" y="539"/>
      <point x="239" y="588" type="curve"/>
      <point x="237" y="480"/>
      <point x="206" y="26"/>
      <point x="206" y="14" type="curve" smooth="yes"/>
      <point x="206" y="-4"/>
      <point x="237" y="-13"/>
    </contour>
  </outline>
</glyph>
<glyph name="three" format="2">
  <advance width="530"/>
  <unicode hex="0033"/>
  <outline>
    <contour>
      <point x="215" y="-13" type="curve" smooth="yes"/>
      <point x="341" y="-13"/>
      <point x="441" y="63"/>
      <point x="441" y="186" type="curve" smooth="yes"/>
      <point x="441" y="273"/>
      <point x="381" y="336"/>
      <point x="303" y="351" type="curve"/>
      <point x="337" y="364"/>
      <point x="424" y="423"/>
      <point x="424" y="510" type="curve" smooth="yes"/>
      <point x="424" y="616"/>
      <point x="336" y="652"/>
      <point x="250" y="652" type="curve" smooth="yes"/>
      <point x="189" y="652"/>
      <point x="139" y="639"/>
      <point x="109" y="620" type="curve" smooth="yes"/>
      <point x="93" y="610"/>
      <point x="83" y="598"/>
      <point x="83" y="583" type="curve" smooth="yes"/>
      <point x="83" y="557"/>
      <point x="87" y="553"/>
      <point x="94" y="553" type="curve" smooth="yes"/>
      <point x="100" y="553"/>
      <point x="116" y="567"/>
      <point x="145" y="586" type="curve" smooth="yes"/>
      <point x="174" y="605"/>
      <point x="208" y="616"/>
      <point x="242" y="616" type="curve" smooth="yes"/>
      <point x="306" y="616"/>
      <point x="360" y="579"/>
      <point x="360" y="497" type="curve" smooth="yes"/>
      <point x="360" y="395"/>
      <point x="251" y="359"/>
      <point x="215" y="359" type="curve" smooth="yes"/>
      <point x="208" y="359"/>
      <point x="203" y="344"/>
      <point x="203" y="331" type="curve" smooth="yes"/>
      <point x="203" y="323"/>
      <point x="203" y="320"/>
      <point x="205" y="320" type="curve" smooth="yes"/>
      <point x="291" y="320"/>
      <point x="381" y="285"/>
      <point x="381" y="165" type="curve" smooth="yes"/>
      <point x="381" y="77"/>
      <point x="310" y="24"/>
      <point x="214" y="24" type="curve" smooth="yes"/>
      <point x="119" y="24"/>
      <point x="73" y="85"/>
      <point x="55" y="85" type="curve" smooth="yes"/>
      <point x="45" y="85"/>
      <point x="44" y="77"/>
      <point x="44" y="66" type="curve" smooth="yes"/>
      <point x="44" y="40"/>
      <point x="49" y="29"/>
      <point x="65" y="19" type="curve" smooth="yes"/>
      <point x="96" y="0"/>
      <point x="135" y="-13"/>
    </contour>
  </outline>
</glyph>
<glyph name="four" format="2">
  <advance width="570"/>
  <unicode hex="0034"/>
  <outline>
    <contour>
      <point x="344" y="-13" type="curve" smooth="yes"/>
      <point x="351" y="-13"/>
      <point x="352" y="-10"/>
      <point x="352" y="-5" type="curve" smooth="yes"/>
      <point x="352" y="58"/>
      <point x="353" y="114"/>
      <point x="360" y="209" type="curve"/>
      <point x="530" y="209" type="line" smooth="yes"/>
      <point x="546" y="209"/>
      <point x="553" y="233"/>
      <point x="553" y="252" type="curve" smooth="yes"/>
      <point x="553" y="259"/>
      <point x="550" y="261"/>
      <point x="545" y="261" type="curve" smooth="yes"/>
      <point x="528" y="261"/>
      <point x="463" y="256"/>
      <point x="363" y="253" type="curve"/>
      <point x="369" y="360"/>
      <point x="389" y="613"/>
      <point x="389" y="627" type="curve" smooth="yes"/>
      <point x="389" y="645"/>
      <point x="364" y="652"/>
      <point x="344" y="652" type="curve" smooth="yes"/>
      <point x="336" y="652"/>
      <point x="331" y="649"/>
      <point x="327" y="644" type="curve" smooth="yes"/>
      <point x="279" y="579"/>
      <point x="60" y="298"/>
      <point x="46" y="264" type="curve" smooth="yes"/>
      <point x="44" y="259"/>
      <point x="44" y="256"/>
      <point x="44" y="253" type="curve" smooth="yes"/>
      <point x="44" y="241"/>
      <point x="59" y="209"/>
      <point x="79" y="209" type="curve" smooth="yes"/>
      <point x="308" y="209" type="line"/>
      <point x="301" y="107"/>
      <point x="294" y="39"/>
      <point x="294" y="14" type="curve" smooth="yes"/>
      <point x="294" y="-4"/>
      <point x="322" y="-13"/>
    </contour>
    <contour>
      <point x="92" y="252" type="line"/>
      <point x="130" y="316"/>
      <point x="298" y="544"/>
      <point x="331" y="583" type="curve"/>
      <point x="331" y="546"/>
      <point x="316" y="354"/>
      <point x="311" y="252" type="curve"/>
    </contour>
  </outline>
</glyph>
<glyph name="six" format="2">
  <advance width="560"/>
  <unicode hex="0036"/>
  <outline>
    <contour>
      <point x="275" y="-13" type="curve" smooth="yes"/>
      <point x="416" y="-13"/>
      <point x="497" y="104"/>
      <point x="497" y="221" type="curve" smooth="yes"/>
      <point x="497" y="327"/>
      <point x="434" y="418"/>
      <point x="292" y="418" type="curve" smooth="yes"/>
      <point x="206" y="418"/>
      <point x="149" y="376"/>
      <point x="130" y="357" type="curve"/>
      <point x="177" y="562"/>
      <point x="300" y="615"/>
      <point x="412" y="615" type="curve" smooth="yes"/>
      <point x="419" y="615"/>
      <point x="421" y="619"/>
      <point x="421" y="624" type="curve" smooth="yes"/>
      <point x="421" y="635"/>
      <point x="409" y="652"/>
      <point x="381" y="652" type="curve" smooth="yes"/>
      <point x="242" y="652"/>
      <point x="64" y="528"/>
      <point x="64" y="241" type="curve" smooth="yes"/>
      <point x="64" y="90"/>
      <point x="127" y="-13"/>
    </contour>
    <contour>
      <point x="280" y="22" type="curve" smooth="yes"/>
      <point x="153" y="22"/>
      <point x="124" y="143"/>
      <point x="124" y="233" type="curve" smooth="yes"/>
      <point x="124" y="246"/>
      <point x="125" y="265"/>
      <point x="127" y="271" type="curve" smooth="yes"/>
      <point x="147" y="339"/>
      <point x="225" y="383"/>
      <point x="297" y="383" type="curve" smooth="yes"/>
      <point x="368" y="383"/>
      <point x="437" y="338"/>
      <point x="437" y="218" type="curve" smooth="yes"/>
      <point x="437" y="90"/>
      <point x="362" y="22"/>
    </contour>
  </outline>
</glyph>
<glyph name="seven" format="2">
  <advance width="520"/>
  <unicode hex="0037"/>
  <outline>
    <contour>
      <point x="131" y="-13" type="curve" smooth="yes"/>
      <point x="144" y="-13"/>
      <point x="155" y="-11"/>
      <point x="160" y="-3" type="curve" smooth="yes"/>
      <point x="271" y="153"/>
      <point x="411" y="467"/>
      <point x="454" y="551" type="curve" smooth="yes"/>
      <point x="463" y="568"/>
      <point x="474" y="586"/>
      <point x="474" y="591" type="curve" smooth="yes"/>
      <point x="474" y="616"/>
      <point x="462" y="639"/>
      <point x="457" y="639" type="curve" smooth="yes"/>
      <point x="99" y="639" type="line" smooth="yes"/>
      <point x="88" y="639"/>
      <point x="82" y="612"/>
      <point x="82" y="588" type="curve" smooth="yes"/>
      <point x="82" y="580"/>
      <point x="83" y="576"/>
      <point x="88" y="576" type="curve" smooth="yes"/>
      <point x="98" y="576"/>
      <point x="184" y="590"/>
      <point x="413" y="590" type="curve"/>
      <point x="374" y="477"/>
      <point x="199" y="127"/>
      <point x="101" y="13" type="curve" smooth="yes"/>
      <point x="98" y="9"/>
      <point x="92" y="4"/>
      <point x="92" y="1" type="curve" smooth="yes"/>
      <point x="92" y="-8"/>
      <point x="114" y="-13"/>
    </contour>
  </outline>
</glyph>
<glyph name="nine" format="2">
  <advance width="540"/>
  <unicode hex="0039"/>
  <outline>
    <contour>
      <point x="165" y="-13" type="curve" smooth="yes"/>
      <point x="304" y="-13"/>
      <point x="482" y="111"/>
      <point x="482" y="398" type="curve" smooth="yes"/>
      <point x="482" y="549"/>
      <point x="419" y="652"/>
      <point x="271" y="652" type="curve" smooth="yes"/>
      <point x="130" y="652"/>
      <point x="49" y="535"/>
      <point x="49" y="418" type="curve" smooth="yes"/>
      <point x="49" y="312"/>
      <point x="112" y="221"/>
      <point x="254" y="221" type="curve" smooth="yes"/>
      <point x="340" y="221"/>
      <point x="397" y="263"/>
      <point x="416" y="282" type="curve"/>
      <point x="369" y="77"/>
      <point x="246" y="24"/>
      <point x="134" y="24" type="curve" smooth="yes"/>
      <point x="127" y="24"/>
      <point x="125" y="20"/>
      <point x="125" y="15" type="curve" smooth="yes"/>
      <point x="125" y="4"/>
      <point x="137" y="-13"/>
    </contour>
    <contour>
      <point x="249" y="256" type="curve" smooth="yes"/>
      <point x="178" y="256"/>
      <point x="109" y="301"/>
      <point x="109" y="421" type="curve" smooth="yes"/>
      <point x="109" y="549"/>
      <point x="184" y="617"/>
      <point x="266" y="617" type="curve" smooth="yes"/>
      <point x="393" y="617"/>
      <point x="422" y="496"/>
      <point x="422" y="406" type="curve" smooth="yes"/>
      <point x="422" y="393"/>
      <point x="421" y="374"/>
      <point x="419" y="368" type="curve" smooth="yes"/>
      <point x="399" y="300"/>
      <point x="321" y="256"/>
    </contour>
  </outline>
</glyph>
<glyph name="colon" format="2">
  <advance width="275"/>
  <unicode hex="003A"/>
  <outline>
    <contour>
      <point x="111" y="0" type="curve" smooth="yes"/>
      <point x="137" y="0"/>
      <point x="153" y="19"/>
      <point x="154" y="40" type="curve" smooth="yes"/>
      <point x="156" y="74"/>
      <point x="140" y="91"/>
      <point x="126" y="91" type="curve" smooth="yes"/>
      <point x="110" y="91"/>
      <point x="81" y="68"/>
      <point x="81" y="35" type="curve" smooth="yes"/>
      <point x="81" y="11"/>
      <point x="89" y="0"/>
    </contour>
    <contour>
      <point x="157" y="399" type="curve" smooth="yes"/>
      <point x="174" y="399"/>
      <point x="203" y="422"/>
      <point x="203" y="455" type="curve" smooth="yes"/>
      <point x="203" y="479"/>
      <point x="194" y="490"/>
      <point x="173" y="490" type="curve" smooth="yes"/>
      <point x="146" y="490"/>
      <point x="130" y="471"/>
      <point x="130" y="450" type="curve" smooth="yes"/>
      <point x="130" y="416"/>
      <point x="144" y="399"/>
    </contour>
  </outline>
</glyph>
<glyph name="equal" format="2">
  <advance width="550"/>
  <unicode hex="003D"/>
  <outline>
    <contour>
      <point x="103" y="378" type="curve" smooth="yes"/>
      <point x="442" y="378" type="line" smooth="yes"/>
      <point x="458" y="378"/>
      <point x="465" y="403"/>
      <point x="465" y="424" type="curve" smooth="yes"/>
      <point x="465" y="432"/>
      <point x="462" y="433"/>
      <point x="457" y="433" type="curve" smooth="yes"/>
      <point x="118" y="433" type="line" smooth="yes"/>
      <point x="102" y="433"/>
      <point x="95" y="409"/>
      <point x="95" y="388" type="curve" smooth="yes"/>
      <point x="95" y="379"/>
      <point x="98" y="378"/>
    </contour>
    <contour>
      <point x="92" y="223" type="curve" smooth="yes"/>
      <point x="431" y="223" type="line" smooth="yes"/>
      <point x="447" y="223"/>
      <point x="453" y="246"/>
      <point x="453" y="267" type="curve" smooth="yes"/>
      <point x="453" y="276"/>
      <point x="451" y="277"/>
      <point x="446" y="277" type="curve" smooth="yes"/>
      <point x="107" y="277" type="line" smooth="yes"/>
      <point x="90" y="277"/>
      <point x="84" y="252"/>
      <point x="84" y="232" type="curve" smooth="yes"/>
      <point x="84" y="224"/>
      <point x="87" y="223"/>
    </contour>
  </outline>
</glyph>
<glyph name="greater" format="2">
  <advance width="530"/>
  <unicode hex="003E"/>
  <outline>
    <contour>
      <point x="73" y="116" type="curve" smooth="yes"/>
      <point x="77" y="116"/>
      <point x="84" y="117"/>
      <point x="97" y="123" type="curve" smooth="yes"/>
      <point x="451" y="277" type="line" smooth="yes"/>
      <point x="465" y="283"/>
      <point x="472" y="291"/>
      <point x="472" y="304" type="curve" smooth="yes"/>
      <point x="472" y="332"/>
      <point x="470" y="341"/>
      <point x="453" y="349" type="curve" smooth="yes"/>
      <point x="140" y="497" type="line" smooth="yes"/>
      <point x="127" y="503"/>
      <point x="123" y="505"/>
      <point x="119" y="505" type="curve" smooth="yes"/>
      <point x="107" y="505"/>
      <point x="107" y="490"/>
      <point x="107" y="472" type="curve" smooth="yes"/>
      <point x="107" y="467"/>
      <point x="107" y="461"/>
      <point x="121" y="455" type="curve" smooth="yes"/>
      <point x="418" y="315" type="line"/>
      <point x="82" y="174" type="line" smooth="yes"/>
      <point x="64" y="166"/>
      <point x="65" y="136"/>
      <point x="65" y="131" type="curve" smooth="yes"/>
      <point x="65" y="123"/>
      <point x="68" y="116"/>
    </contour>
  </outline>
</glyph>
<glyph name="question" format="2">
  <advance width="447"/>
  <unicode hex="003F"/>
  <outline>
    <contour>
      <point x="137" y="207" type="curve" smooth="yes"/>
      <point x="151" y="207"/>
      <point x="141" y="237"/>
      <point x="223" y="298" type="curve" smooth="yes"/>
      <point x="287" y="346"/>
      <point x="379" y="411"/>
      <point x="379" y="503" type="curve" smooth="yes"/>
      <point x="379" y="546"/>
      <point x="366" y="579"/>
      <point x="345" y="602" type="curve" smooth="yes"/>
      <point x="313" y="637"/>
      <point x="261" y="652"/>
      <point x="203" y="652" type="curve" smooth="yes"/>
      <point x="139" y="652"/>
      <point x="73" y="627"/>
      <point x="44" y="582" type="curve" smooth="yes"/>
      <point x="42" y="579"/>
      <point x="39" y="575"/>
      <point x="39" y="567" type="curve" smooth="yes"/>
      <point x="39" y="546"/>
      <point x="46" y="531"/>
      <point x="54" y="531" type="curve" smooth="yes"/>
      <point x="57" y="531"/>
      <point x="66" y="543"/>
      <point x="84" y="563" type="curve" smooth="yes"/>
      <point x="106" y="587"/>
      <point x="149" y="615"/>
      <point x="218" y="615" type="curve" smooth="yes"/>
      <point x="286" y="615"/>
      <point x="320" y="564"/>
      <point x="320" y="506" type="curve" smooth="yes"/>
      <point x="320" y="426"/>
      <point x="233" y="363"/>
      <point x="170" y="315" type="curve" smooth="yes"/>
      <point x="148" y="298"/>
      <point x="125" y="272"/>
      <point x="125" y="241" type="curve" smooth="yes"/>
      <point x="125" y="228"/>
      <point x="125" y="207"/>
    </contour>
    <contour>
      <point x="145" y="0" type="curve" smooth="yes"/>
      <point x="171" y="0"/>
      <point x="188" y="19"/>
      <point x="188" y="40" type="curve" smooth="yes"/>
      <point x="188" y="74"/>
      <point x="174" y="91"/>
      <point x="160" y="91" type="curve" smooth="yes"/>
      <point x="144" y="91"/>
      <point x="115" y="68"/>
      <point x="115" y="35" type="curve" smooth="yes"/>
      <point x="115" y="11"/>
      <point x="123" y="0"/>
    </contour>
  </outline>
</glyph>
<glyph name="D" format="2">
  <advance width="732"/>
  <unicode hex="0044"/>
  <anchor x="331" y="0" name="bottom"/>
  <anchor x="371" y="326" name="center"/>
  <anchor x="371" y="652" name="top"/>
  <outline>
    <contour>
      <point x="98" y="0" type="curve"/>
      <point x="280" y="0" type="line" smooth="yes"/>
      <point x="557" y="0"/>
      <point x="676" y="157"/>
      <point x="676" y="365" type="curve" smooth="yes"/>
      <point x="676" y="552"/>
      <point x="561" y="639"/>
      <point x="360" y="639" type="curve" smooth="yes"/>
      <point x="134" y="639" type="line"/>
      <point x="125" y="422"/>
      <point x="101" y="37"/>
    </contour>
    <contour>
      <point x="253" y="37" type="curve" smooth="yes"/>
      <point x="176" y="37"/>
      <point x="164" y="43"/>
      <point x="164" y="82" type="curve" smooth="yes"/>
      <point x="164" y="262"/>
      <point x="183" y="458"/>
      <point x="195" y="596" type="curve"/>
      <point x="241" y="601"/>
      <point x="283" y="603"/>
      <point x="322" y="603" type="curve" smooth="yes"/>
      <point x="517" y="603"/>
      <point x="608" y="537"/>
      <point x="608" y="349" type="curve" smooth="yes"/>
      <point x="608" y="123"/>
      <point x="467" y="37"/>
    </contour>
  </outline>
</glyph>
<glyph name="E" format="2">
  <advance width="553"/>
  <unicode hex="0045"/>
  <anchor x="279" y="0" name="bottom"/>
  <anchor x="419" y="0" name="ogonek"/>
  <anchor x="309" y="652" name="top"/>
  <anchor x="22" y="652" name="topleft"/>
  <outline>
    <contour>
      <point x="98" y="0" type="curve"/>
      <point x="482" y="0" type="line" smooth="yes"/>
      <point x="489" y="0"/>
      <point x="499" y="26"/>
      <point x="499" y="44" type="curve" smooth="yes"/>
      <point x="499" y="52"/>
      <point x="499" y="58"/>
      <point x="494" y="58" type="curve" smooth="yes"/>
      <point x="487" y="58"/>
      <point x="435" y="37"/>
      <point x="254" y="37" type="curve" smooth="yes"/>
      <point x="177" y="37"/>
      <point x="165" y="43"/>
      <point x="165" y="82" type="curve" smooth="yes"/>
      <point x="165" y="149"/>
      <point x="167" y="228"/>
      <point x="172" y="312" type="curve"/>
      <point x="212" y="312" type="line" smooth="yes"/>
      <point x="353" y="312"/>
      <point x="421" y="304"/>
      <point x="425" y="304" type="curve" smooth="yes"/>
      <point x="429" y="304"/>
      <point x="435" y="326"/>
      <point x="435" y="341" type="curve" smooth="yes"/>
      <point x="435" y="349"/>
      <point x="432" y="355"/>
      <point x="430" y="355" type="curve" smooth="yes"/>
      <point x="174" y="355" type="line"/>
      <point x="181" y="458"/>
      <point x="189" y="552"/>
      <point x="196" y="596" type="curve"/>
      <point x="228" y="596" type="line" smooth="yes"/>
      <point x="369" y="596"/>
      <point x="438" y="587"/>
      <point x="441" y="587" type="curve" smooth="yes"/>
      <point x="445" y="587"/>
      <point x="451" y="610"/>
      <point x="451" y="625" type="curve" smooth="yes"/>
      <point x="451" y="633"/>
      <point x="449" y="639"/>
      <point x="446" y="639" type="curve" smooth="yes"/>
      <point x="135" y="639" type="line"/>
      <point x="126" y="422"/>
      <point x="106" y="76"/>
    </contour>
  </outline>
</glyph>
<glyph name="F" format="2">
  <advance width="504"/>
  <unicode hex="0046"/>
  <anchor x="124" y="0" name="bottom"/>
  <anchor x="288" y="652" name="top"/>
  <outline>
    <contour>
      <point x="151" y="-13" type="curve" smooth="yes"/>
      <point x="159" y="-13"/>
      <point x="161" y="-10"/>
      <point x="161" y="-5" type="curve" smooth="yes"/>
      <point x="161" y="67"/>
      <point x="166" y="232"/>
      <point x="168" y="292" type="curve"/>
      <point x="209" y="292" type="line" smooth="yes"/>
      <point x="350" y="292"/>
      <point x="418" y="283"/>
      <point x="421" y="283" type="curve" smooth="yes"/>
      <point x="425" y="283"/>
      <point x="431" y="306"/>
      <point x="431" y="321" type="curve" smooth="yes"/>
      <point x="431" y="329"/>
      <point x="429" y="335"/>
      <point x="426" y="335" type="curve" smooth="yes"/>
      <point x="171" y="335" type="line"/>
      <point x="178" y="458"/>
      <point x="187" y="552"/>
      <point x="193" y="596" type="curve"/>
      <point x="226" y="596" type="line" smooth="yes"/>
      <point x="367" y="596"/>
      <point x="435" y="587"/>
      <point x="439" y="587" type="curve" smooth="yes"/>
      <point x="443" y="587"/>
      <point x="449" y="610"/>
      <point x="449" y="625" type="curve" smooth="yes"/>
      <point x="449" y="633"/>
      <point x="447" y="639"/>
      <point x="444" y="639" type="curve" smooth="yes"/>
      <point x="133" y="639" type="line"/>
      <point x="133" y="559"/>
      <point x="119" y="254"/>
      <point x="107" y="113" type="curve" smooth="yes"/>
      <point x="104" y="81"/>
      <point x="98" y="17"/>
      <point x="98" y="14" type="curve" smooth="yes"/>
      <point x="98" y="-4"/>
      <point x="128" y="-13"/>
    </contour>
  </outline>
</glyph>
<glyph name="I" format="2">
  <advance width="290"/>
  <unicode hex="0049"/>
  <anchor x="129" y="0" name="bottom"/>
  <anchor x="268" y="10" name="ogonek"/>
  <anchor x="183" y="652" name="top"/>
  <anchor x="27" y="652" name="topleft"/>
  <outline>
    <contour>
      <point x="156" y="-13" type="curve" smooth="yes"/>
      <point x="164" y="-13"/>
      <point x="166" y="-10"/>
      <point x="166" y="-5" type="curve" smooth="yes"/>
      <point x="166" y="317"/>
      <point x="201" y="612"/>
      <point x="201" y="626" type="curve" smooth="yes"/>
      <point x="201" y="644"/>
      <point x="171" y="652"/>
      <point x="148" y="652" type="curve" smooth="yes"/>
      <point x="139" y="652"/>
      <point x="138" y="650"/>
      <point x="138" y="645" type="curve" smooth="yes"/>
      <point x="135" y="537"/>
      <point x="103" y="26"/>
      <point x="103" y="14" type="curve" smooth="yes"/>
      <point x="103" y="-4"/>
      <point x="133" y="-13"/>
    </contour>
  </outline>
</glyph>
<glyph name="J" format="2">
  <advance width="396"/>
  <unicode hex="004A"/>
  <anchor x="225" y="0" name="bottom"/>
  <anchor x="282" y="652" name="top"/>
  <outline>
    <contour>
      <point x="121" y="-13" type="curve" smooth="yes"/>
      <point x="184" y="-13"/>
      <point x="239" y="24"/>
      <point x="269" y="115" type="curve" smooth="yes"/>
      <point x="297" y="200"/>
      <point x="306" y="543"/>
      <point x="306" y="626" type="curve" smooth="yes"/>
      <point x="306" y="644"/>
      <point x="276" y="652"/>
      <point x="253" y="652" type="curve" smooth="yes"/>
      <point x="244" y="652"/>
      <point x="243" y="650"/>
      <point x="243" y="645" type="curve" smooth="yes"/>
      <point x="243" y="252"/>
      <point x="225" y="82"/>
      <point x="186" y="48" type="curve" smooth="yes"/>
      <point x="170" y="34"/>
      <point x="152" y="26"/>
      <point x="130" y="26" type="curve" smooth="yes"/>
      <point x="87" y="26"/>
      <point x="40" y="49"/>
      <point x="29" y="49" type="curve" smooth="yes"/>
      <point x="24" y="49"/>
      <point x="20" y="42"/>
      <point x="20" y="31" type="curve" smooth="yes"/>
      <point x="20" y="12"/>
      <point x="23" y="5"/>
      <point x="35" y="-1" type="curve"/>
      <point x="53" y="-10"/>
      <point x="79" y="-13"/>
    </contour>
  </outline>
</glyph>
<glyph name="K" format="2">
  <advance width="631"/>
  <unicode hex="004B"/>
  <anchor x="288" y="0" name="bottom"/>
  <anchor x="332" y="652" name="top"/>
  <outline>
    <contour>
      <point x="151" y="-13" type="curve" smooth="yes"/>
      <point x="159" y="-13"/>
      <point x="161" y="-10"/>
      <point x="161" y="-5" type="curve" smooth="yes"/>
      <point x="161" y="111"/>
      <point x="166" y="222"/>
      <point x="171" y="316" type="curve"/>
      <point x="178" y="311"/>
      <point x="187" y="302"/>
      <point x="200" y="292" type="curve" smooth="yes"/>
      <point x="277" y="228"/>
      <point x="450" y="69"/>
      <point x="539" y="-8" type="curve" smooth="yes"/>
      <point x="542" y="-11"/>
      <point x="546" y="-13"/>
      <point x="555" y="-13" type="curve" smooth="yes"/>
      <point x="564" y="-13"/>
      <point x="580" y="-2"/>
      <point x="590" y="7" type="curve" smooth="yes"/>
      <point x="596" y="13"/>
      <point x="601" y="18"/>
      <point x="601" y="20" type="curve" smooth="yes"/>
      <point x="601" y="23"/>
      <point x="600" y="24"/>
      <point x="594" y="29" type="curve" smooth="yes"/>
      <point x="457" y="134"/>
      <point x="277" y="297"/>
      <point x="241" y="331" type="curve"/>
      <point x="290" y="374"/>
      <point x="499" y="557"/>
      <point x="581" y="633" type="curve" smooth="yes"/>
      <point x="587" y="639"/>
      <point x="589" y="641"/>
      <point x="589" y="644" type="curve" smooth="yes"/>
      <point x="589" y="649"/>
      <point x="574" y="652"/>
      <point x="559" y="652" type="curve" smooth="yes"/>
      <point x="541" y="652"/>
      <point x="533" y="650"/>
      <point x="522" y="640" type="curve" smooth="yes"/>
      <point x="368" y="500"/>
      <point x="215" y="359"/>
      <point x="171" y="322" type="curve"/>
      <point x="181" y="492"/>
      <point x="196" y="617"/>
      <point x="196" y="626" type="curve" smooth="yes"/>
      <point x="196" y="644"/>
      <point x="166" y="652"/>
      <point x="143" y="652" type="curve" smooth="yes"/>
      <point x="134" y="652"/>
      <point x="133" y="650"/>
      <point x="133" y="645" type="curve" smooth="yes"/>
      <point x="130" y="537"/>
      <point x="98" y="26"/>
      <point x="98" y="14" type="curve" smooth="yes"/>
      <point x="98" y="-4"/>
      <point x="128" y="-13"/>
    </contour>
  </outline>
</glyph>
<glyph name="N" format="2">
  <advance width="854"/>
  <unicode hex="004E"/>
  <anchor x="418" y="0" name="bottom"/>
  <anchor x="452" y="646" name="top"/>
  <outline>
    <contour>
      <point x="146" y="-13" type="curve" smooth="yes"/>
      <point x="154" y="-13"/>
      <point x="156" y="-11"/>
      <point x="156" y="-3" type="curve" smooth="yes"/>
      <point x="156" y="160"/>
      <point x="175" y="544"/>
      <point x="176" y="563" type="curve"/>
      <point x="206" y="518"/>
      <point x="560" y="123"/>
      <point x="676" y="-1" type="curve" smooth="yes"/>
      <point x="681" y="-6"/>
      <point x="687" y="-13"/>
      <point x="691" y="-13" type="curve" smooth="yes"/>
      <point x="698" y="-13"/>
      <point x="731" y="10"/>
      <point x="731" y="19" type="curve" smooth="yes"/>
      <point x="731" y="132"/>
      <point x="765" y="613"/>
      <point x="765" y="626" type="curve" smooth="yes"/>
      <point x="765" y="644"/>
      <point x="739" y="652"/>
      <point x="716" y="652" type="curve" smooth="yes"/>
      <point x="707" y="652"/>
      <point x="706" y="651"/>
      <point x="706" y="642" type="curve" smooth="yes"/>
      <point x="706" y="290"/>
      <point x="686" y="81"/>
      <point x="685" y="77" type="curve"/>
      <point x="607" y="152"/>
      <point x="243" y="564"/>
      <point x="187" y="641" type="curve" smooth="yes"/>
      <point x="183" y="646"/>
      <point x="176" y="652"/>
      <point x="172" y="652" type="curve" smooth="yes"/>
      <point x="162" y="652"/>
      <point x="132" y="630"/>
      <point x="132" y="621" type="curve" smooth="yes"/>
      <point x="132" y="508"/>
      <point x="98" y="26"/>
      <point x="98" y="14" type="curve" smooth="yes"/>
      <point x="98" y="-4"/>
      <point x="123" y="-13"/>
    </contour>
  </outline>
</glyph>
<glyph name="P" format="2">
  <advance width="532"/>
  <unicode hex="0050"/>
  <anchor x="257" y="0" name="bottom"/>
  <anchor x="291" y="652" name="top"/>
  <outline>
    <contour>
      <point x="151" y="-13" type="curve" smooth="yes"/>
      <point x="159" y="-13"/>
      <point x="161" y="-10"/>
      <point x="161" y="-5" type="curve" smooth="yes"/>
      <point x="161" y="86"/>
      <point x="163" y="174"/>
      <point x="167" y="251" type="curve"/>
      <point x="173" y="245"/>
      <point x="186" y="244"/>
      <point x="222" y="244" type="curve" smooth="yes"/>
      <point x="386" y="244"/>
      <point x="494" y="345"/>
      <point x="494" y="470" type="curve" smooth="yes"/>
      <point x="494" y="575"/>
      <point x="420" y="639"/>
      <point x="268" y="639" type="curve" smooth="yes"/>
      <point x="133" y="639" type="line"/>
      <point x="129" y="523"/>
      <point x="98" y="26"/>
      <point x="98" y="14" type="curve" smooth="yes"/>
      <point x="98" y="-4"/>
      <point x="128" y="-13"/>
    </contour>
    <contour>
      <point x="168" y="277" type="curve"/>
      <point x="177" y="432"/>
      <point x="190" y="548"/>
      <point x="193" y="596" type="curve"/>
      <point x="210" y="598"/>
      <point x="226" y="602"/>
      <point x="253" y="602" type="curve" smooth="yes"/>
      <point x="394" y="602"/>
      <point x="434" y="539"/>
      <point x="434" y="457" type="curve" smooth="yes"/>
      <point x="434" y="401"/>
      <point x="412" y="360"/>
      <point x="380" y="331" type="curve" smooth="yes"/>
      <point x="313" y="270"/>
      <point x="213" y="269"/>
    </contour>
  </outline>
</glyph>
<glyph name="Q" format="2">
  <advance width="749"/>
  <unicode hex="0051"/>
  <outline>
    <contour>
      <point x="709" y="-85" type="curve" smooth="yes"/>
      <point x="731" y="-85"/>
      <point x="743" y="-57"/>
      <point x="743" y="-42" type="curve" smooth="yes"/>
      <point x="743" y="-39"/>
      <point x="742" y="-35"/>
      <point x="735" y="-35" type="curve" smooth="yes"/>
      <point x="658" y="-35"/>
      <point x="556" y="-16"/>
      <point x="457" y="-3" type="curve"/>
      <point x="601" y="30"/>
      <point x="689" y="166"/>
      <point x="689" y="349" type="curve" smooth="yes"/>
      <point x="689" y="528"/>
      <point x="600" y="652"/>
      <point x="382" y="652" type="curve" smooth="yes"/>
      <point x="166" y="652"/>
      <point x="67" y="506"/>
      <point x="67" y="291" type="curve" smooth="yes"/>
      <point x="67" y="139"/>
      <point x="132" y="31"/>
      <point x="284" y="-4" type="curve" smooth="yes"/>
      <point x="396" y="-30"/>
      <point x="578" y="-69"/>
      <point x="660" y="-80" type="curve" smooth="yes"/>
      <point x="686" y="-83"/>
      <point x="700" y="-85"/>
    </contour>
    <contour>
      <point x="375" y="24" type="curve" smooth="yes"/>
      <point x="200" y="24"/>
      <point x="128" y="135"/>
      <point x="128" y="294" type="curve" smooth="yes"/>
      <point x="128" y="485"/>
      <point x="208" y="615"/>
      <point x="381" y="615" type="curve" smooth="yes"/>
      <point x="556" y="615"/>
      <point x="628" y="505"/>
      <point x="628" y="346" type="curve" smooth="yes"/>
      <point x="628" y="154"/>
      <point x="548" y="24"/>
    </contour>
  </outline>
</glyph>
<glyph name="S" format="2">
  <advance width="516"/>
  <unicode hex="0053"/>
  <anchor x="233" y="0" name="bottom"/>
  <anchor x="297" y="652" name="top"/>
  <outline>
    <contour>
      <point x="242" y="-13" type="curve" smooth="yes"/>
      <point x="329" y="-13"/>
      <point x="435" y="59"/>
      <point x="435" y="175" type="curve" smooth="yes"/>
      <point x="435" y="218"/>
      <point x="417" y="251"/>
      <point x="385" y="282" type="curve" smooth="yes"/>
      <point x="353" y="313"/>
      <point x="252" y="375"/>
      <point x="218" y="409" type="curve" smooth="yes"/>
      <point x="187" y="440"/>
      <point x="172" y="472"/>
      <point x="172" y="510" type="curve" smooth="yes"/>
      <point x="172" y="587"/>
      <point x="228" y="613"/>
      <point x="264" y="613" type="curve" smooth="yes"/>
      <point x="338" y="613"/>
      <point x="378" y="574"/>
      <point x="402" y="550" type="curve" smooth="yes"/>
      <point x="414" y="538"/>
      <point x="421" y="529"/>
      <point x="427" y="529" type="curve" smooth="yes"/>
      <point x="437" y="529"/>
      <point x="442" y="544"/>
      <point x="442" y="572" type="curve" smooth="yes"/>
      <point x="442" y="578"/>
      <point x="440" y="587"/>
      <point x="434" y="593" type="curve" smooth="yes"/>
      <point x="398" y="632"/>
      <point x="339" y="652"/>
      <point x="288" y="652" type="curve" smooth="yes"/>
      <point x="163" y="652"/>
      <point x="113" y="569"/>
      <point x="113" y="487" type="curve" smooth="yes"/>
      <point x="113" y="434"/>
      <point x="136" y="397"/>
      <point x="168" y="367" type="curve" smooth="yes"/>
      <point x="215" y="323"/>
      <point x="305" y="272"/>
      <point x="339" y="235" type="curve" smooth="yes"/>
      <point x="363" y="209"/>
      <point x="379" y="180"/>
      <point x="379" y="141" type="curve" smooth="yes"/>
      <point x="379" y="61"/>
      <point x="304" y="29"/>
      <point x="264" y="29" type="curve" smooth="yes"/>
      <point x="194" y="29"/>
      <point x="142" y="63"/>
      <point x="112" y="89" type="curve" smooth="yes"/>
      <point x="94" y="105"/>
      <point x="86" y="117"/>
      <point x="82" y="117" type="curve" smooth="yes"/>
      <point x="71" y="117"/>
      <point x="67" y="77"/>
      <point x="67" y="68" type="curve" smooth="yes"/>
      <point x="67" y="63"/>
      <point x="68" y="52"/>
      <point x="75" y="45" type="curve" smooth="yes"/>
      <point x="106" y="15"/>
      <point x="159" y="-13"/>
    </contour>
  </outline>
</glyph>
<glyph name="U" format="2">
  <advance width="708"/>
  <unicode hex="0055"/>
  <anchor x="348" y="0" name="bottom"/>
  <anchor x="385" y="0" name="ogonek"/>
  <anchor x="384" y="652" name="top"/>
  <anchor x="636" y="608" name="topright"/>
  <outline>
    <contour>
      <point x="340" y="-13" type="curve" smooth="yes"/>
      <point x="421" y="-13"/>
      <point x="483" y="6"/>
      <point x="529" y="48" type="curve" smooth="yes"/>
      <point x="624" y="135"/>
      <point x="653" y="317"/>
      <point x="653" y="626" type="curve" smooth="yes"/>
      <point x="653" y="644"/>
      <point x="631" y="652"/>
      <point x="610" y="652" type="curve" smooth="yes"/>
      <point x="601" y="652"/>
      <point x="600" y="650"/>
      <point x="600" y="645" type="curve" smooth="yes"/>
      <point x="600" y="293"/>
      <point x="567" y="144"/>
      <point x="501" y="79" type="curve" smooth="yes"/>
      <point x="466" y="45"/>
      <point x="408" y="27"/>
      <point x="359" y="27" type="curve" smooth="yes"/>
      <point x="298" y="27"/>
      <point x="243" y="42"/>
      <point x="207" y="80" type="curve" smooth="yes"/>
      <point x="164" y="125"/>
      <point x="148" y="212"/>
      <point x="148" y="307" type="curve" smooth="yes"/>
      <point x="148" y="411"/>
      <point x="166" y="589"/>
      <point x="166" y="626" type="curve" smooth="yes"/>
      <point x="166" y="644"/>
      <point x="136" y="652"/>
      <point x="113" y="652" type="curve" smooth="yes"/>
      <point x="104" y="652"/>
      <point x="103" y="650"/>
      <point x="103" y="645" type="curve" smooth="yes"/>
      <point x="103" y="635"/>
      <point x="87" y="456"/>
      <point x="87" y="298" type="curve" smooth="yes"/>
      <point x="87" y="195"/>
      <point x="101" y="104"/>
      <point x="151" y="53" type="curve" smooth="yes"/>
      <point x="193" y="10"/>
      <point x="267" y="-13"/>
    </contour>
  </outline>
</glyph>
<glyph name="W" format="2">
  <advance width="958"/>
  <unicode hex="0057"/>
  <anchor x="473" y="0" name="bottom"/>
  <anchor x="507" y="652" name="top"/>
  <outline>
    <contour>
      <point x="202" y="-13" type="curve" smooth="yes"/>
      <point x="210" y="-13"/>
      <point x="213" y="-12"/>
      <point x="217" y="-4" type="curve" smooth="yes"/>
      <point x="226" y="14"/>
      <point x="389" y="341"/>
      <point x="481" y="550" type="curve"/>
      <point x="528" y="420"/>
      <point x="684" y="50"/>
      <point x="695" y="11" type="curve" smooth="yes"/>
      <point x="699" y="-4"/>
      <point x="725" y="-13"/>
      <point x="755" y="-13" type="curve" smooth="yes"/>
      <point x="765" y="-13"/>
      <point x="768" y="-10"/>
      <point x="769" y="3" type="curve" smooth="yes"/>
      <point x="774" y="50"/>
      <point x="933" y="616"/>
      <point x="933" y="626" type="curve" smooth="yes"/>
      <point x="933" y="644"/>
      <point x="906" y="652"/>
      <point x="886" y="652" type="curve" smooth="yes"/>
      <point x="878" y="652"/>
      <point x="878" y="650"/>
      <point x="878" y="645" type="curve" smooth="yes"/>
      <point x="878" y="591"/>
      <point x="784" y="248"/>
      <point x="736" y="69" type="curve"/>
      <point x="676" y="194"/>
      <point x="563" y="506"/>
      <point x="509" y="635" type="curve" smooth="yes"/>
      <point x="505" y="644"/>
      <point x="492" y="652"/>
      <point x="477" y="652" type="curve" smooth="yes"/>
      <point x="472" y="652"/>
      <point x="468" y="647"/>
      <point x="467" y="644" type="curve" smooth="yes"/>
      <point x="400" y="476"/>
      <point x="304" y="256"/>
      <point x="201" y="69" type="curve"/>
      <point x="172" y="204"/>
      <point x="124" y="612"/>
      <point x="124" y="626" type="curve" smooth="yes"/>
      <point x="124" y="644"/>
      <point x="92" y="652"/>
      <point x="72" y="652" type="curve" smooth="yes"/>
      <point x="63" y="652"/>
      <point x="60" y="650"/>
      <point x="60" y="642" type="curve" smooth="yes"/>
      <point x="60" y="638"/>
      <point x="60" y="631"/>
      <point x="61" y="623" type="curve" smooth="yes"/>
      <point x="71" y="530"/>
      <point x="124" y="210"/>
      <point x="147" y="15" type="curve" smooth="yes"/>
      <point x="149" y="-5"/>
      <point x="181" y="-13"/>
    </contour>
  </outline>
</glyph>
<glyph name="Y" format="2">
  <advance width="566"/>
  <unicode hex="0059"/>
  <anchor x="279" y="0" name="bottom"/>
  <anchor x="313" y="642" name="top"/>
  <anchor x="95" y="652" name="topleft"/>
  <outline>
    <contour>
      <point x="301" y="-13" type="curve" smooth="yes"/>
      <point x="310" y="-13"/>
      <point x="311" y="-10"/>
      <point x="311" y="-5" type="curve" smooth="yes"/>
      <point x="314" y="85"/>
      <point x="317" y="174"/>
      <point x="320" y="264" type="curve"/>
      <point x="375" y="363"/>
      <point x="487" y="531"/>
      <point x="521" y="590" type="curve" smooth="yes"/>
      <point x="529" y="604"/>
      <point x="531" y="610"/>
      <point x="531" y="614" type="curve" smooth="yes"/>
      <point x="531" y="626"/>
      <point x="520" y="652"/>
      <point x="506" y="652" type="curve" smooth="yes"/>
      <point x="502" y="652"/>
      <point x="499" y="650"/>
      <point x="497" y="646" type="curve" smooth="yes"/>
      <point x="484" y="621"/>
      <point x="363" y="418"/>
      <point x="301" y="320" type="curve"/>
      <point x="267" y="378"/>
      <point x="204" y="504"/>
      <point x="123" y="630" type="curve" smooth="yes"/>
      <point x="110" y="651"/>
      <point x="76" y="652"/>
      <point x="62" y="652" type="curve" smooth="yes"/>
      <point x="48" y="652"/>
      <point x="45" y="650"/>
      <point x="45" y="643" type="curve" smooth="yes"/>
      <point x="45" y="638"/>
      <point x="53" y="626"/>
      <point x="58" y="618" type="curve" smooth="yes"/>
      <point x="77" y="590"/>
      <point x="145" y="502"/>
      <point x="266" y="275" type="curve"/>
      <point x="259" y="188"/>
      <point x="248" y="25"/>
      <point x="248" y="14" type="curve" smooth="yes"/>
      <point x="248" y="-4"/>
      <point x="278" y="-13"/>
    </contour>
  </outline>
</glyph>
<glyph name="backslash" format="2">
  <advance width="527"/>
  <unicode hex="005C"/>
  <outline>
    <contour>
      <point x="415" y="-34" type="curve" smooth="yes"/>
      <point x="429" y="-34"/>
      <point x="450" y="-24"/>
      <point x="450" y="-14" type="curve" smooth="yes"/>
      <point x="450" y="-11"/>
      <point x="448" y="-6"/>
      <point x="446" y="-1" type="curve" smooth="yes"/>
      <point x="345" y="218"/>
      <point x="243" y="437"/>
      <point x="140" y="656" type="curve" smooth="yes"/>
      <point x="133" y="671"/>
      <point x="128" y="675"/>
      <point x="117" y="675" type="curve" smooth="yes"/>
      <point x="98" y="675"/>
      <point x="82" y="665"/>
      <point x="82" y="655" type="curve" smooth="yes"/>
      <point x="82" y="652"/>
      <point x="84" y="647"/>
      <point x="86" y="642" type="curve" smooth="yes"/>
      <point x="127" y="556"/>
      <point x="330" y="139"/>
      <point x="392" y="-15" type="curve" smooth="yes"/>
      <point x="398" y="-30"/>
      <point x="404" y="-34"/>
    </contour>
  </outline>
</glyph>
<glyph name="bracketright" format="2">
  <advance width="331"/>
  <unicode hex="005D"/>
  <outline>
    <contour>
      <point x="-7" y="-244" type="curve" smooth="yes"/>
      <point x="178" y="-244" type="line"/>
      <point x="183" y="-53"/>
      <point x="228" y="747"/>
      <point x="228" y="756" type="curve"/>
      <point x="52" y="756" type="line" smooth="yes"/>
      <point x="35" y="756"/>
      <point x="29" y="740"/>
      <point x="29" y="717" type="curve" smooth="yes"/>
      <point x="29" y="711"/>
      <point x="30" y="708"/>
      <point x="35" y="708" type="curve" smooth="yes"/>
      <point x="39" y="708"/>
      <point x="59" y="712"/>
      <point x="173" y="714" type="curve"/>
      <point x="170" y="453"/>
      <point x="128" y="-145"/>
      <point x="124" y="-202" type="curve"/>
      <point x="31" y="-200"/>
      <point x="0" y="-196"/>
      <point x="-4" y="-196" type="curve" smooth="yes"/>
      <point x="-9" y="-196"/>
      <point x="-15" y="-215"/>
      <point x="-15" y="-230" type="curve" smooth="yes"/>
      <point x="-15" y="-242"/>
      <point x="-13" y="-244"/>
    </contour>
  </outline>
</glyph>
<glyph name="asciicircum" format="2">
  <advance width="540"/>
  <unicode hex="005E"/>
  <outline>
    <contour>
      <point x="99" y="380" type="curve"/>
      <point x="116" y="404"/>
      <point x="233" y="520"/>
      <point x="305" y="579" type="curve"/>
      <point x="349" y="525"/>
      <point x="432" y="403"/>
      <point x="443" y="380" type="curve"/>
      <point x="446" y="382"/>
      <point x="469" y="398"/>
      <point x="469" y="411" type="curve" smooth="yes"/>
      <point x="469" y="421"/>
      <point x="463" y="438"/>
      <point x="458" y="446" type="curve" smooth="yes"/>
      <point x="430" y="491"/>
      <point x="359" y="597"/>
      <point x="323" y="645" type="curve" smooth="yes"/>
      <point x="318" y="651"/>
      <point x="312" y="652"/>
      <point x="308" y="652" type="curve" smooth="yes"/>
      <point x="304" y="652"/>
      <point x="299" y="651"/>
      <point x="293" y="645" type="curve" smooth="yes"/>
      <point x="271" y="626"/>
      <point x="101" y="462"/>
      <point x="86" y="437" type="curve" smooth="yes"/>
      <point x="82" y="430"/>
      <point x="80" y="423"/>
      <point x="80" y="417" type="curve" smooth="yes"/>
      <point x="80" y="399"/>
      <point x="95" y="384"/>
    </contour>
  </outline>
</glyph>
<glyph name="b" format="2">
  <advance width="582"/>
  <unicode hex="0062"/>
  <anchor x="301" y="0" name="bottom"/>
  <anchor x="208" y="639" name="cross"/>
  <anchor x="419" y="524" name="top"/>
  <outline>
    <contour>
      <point x="307" y="-13" type="curve" smooth="yes"/>
      <point x="374" y="-13"/>
      <point x="434" y="28"/>
      <point x="480" y="94" type="curve" smooth="yes"/>
      <point x="511" y="139"/>
      <point x="519" y="255"/>
      <point x="519" y="333" type="curve" smooth="yes"/>
      <point x="519" y="438"/>
      <point x="516" y="481"/>
      <point x="510" y="491" type="curve" smooth="yes"/>
      <point x="503" y="503"/>
      <point x="470" y="524"/>
      <point x="458" y="524" type="curve" smooth="yes"/>
      <point x="395" y="524"/>
      <point x="234" y="311"/>
      <point x="169" y="166" type="curve"/>
      <point x="178" y="282"/>
      <point x="207" y="688"/>
      <point x="208" y="729" type="curve" smooth="yes"/>
      <point x="208" y="747"/>
      <point x="180" y="756"/>
      <point x="159" y="756" type="curve" smooth="yes"/>
      <point x="151" y="756"/>
      <point x="150" y="753"/>
      <point x="150" y="748" type="curve" smooth="yes"/>
      <point x="146" y="593"/>
      <point x="120" y="205"/>
      <point x="110" y="52" type="curve"/>
      <point x="105" y="52"/>
      <point x="98" y="39"/>
      <point x="98" y="21" type="curve" smooth="yes"/>
      <point x="98" y="16"/>
      <point x="101" y="15"/>
      <point x="102" y="15" type="curve" smooth="yes"/>
      <point x="178" y="-1"/>
      <point x="280" y="-13"/>
    </contour>
    <contour>
      <point x="343" y="30" type="curve" smooth="yes"/>
      <point x="305" y="30"/>
      <point x="248" y="35"/>
      <point x="164" y="52" type="curve"/>
      <point x="199" y="193"/>
      <point x="409" y="470"/>
      <point x="442" y="470" type="curve" smooth="yes"/>
      <point x="462" y="470"/>
      <point x="463" y="438"/>
      <point x="463" y="341" type="curve" smooth="yes"/>
      <point x="463" y="142"/>
      <point x="417" y="30"/>
    </contour>
  </outline>
</glyph>
<glyph name="f" format="2">
  <advance width="305"/>
  <unicode hex="0066"/>
  <anchor x="153" y="0" name="bottom"/>
  <anchor x="199" y="652" name="top"/>
  <outline>
    <contour>
      <point x="21" y="-244" type="curve" smooth="yes"/>
      <point x="54" y="-244"/>
      <point x="97" y="-225"/>
      <point x="134" y="-190" type="curve" smooth="yes"/>
      <point x="171" y="-155"/>
      <point x="199" y="-99"/>
      <point x="199" y="-28" type="curve" smooth="yes"/>
      <point x="199" y="453" type="line"/>
      <point x="398" y="453" type="line" smooth="yes"/>
      <point x="414" y="453"/>
      <point x="421" y="474"/>
      <point x="421" y="491" type="curve" smooth="yes"/>
      <point x="421" y="497"/>
      <point x="418" y="499"/>
      <point x="413" y="499" type="curve" smooth="yes"/>
      <point x="199" y="499" type="line"/>
      <point x="202" y="571" type="line" smooth="yes"/>
      <point x="206" y="668"/>
      <point x="239" y="704"/>
      <point x="290" y="704" type="curve" smooth="yes"/>
      <point x="352" y="704"/>
      <point x="401" y="687"/>
      <point x="407" y="685" type="curve" smooth="yes"/>
      <point x="410" y="684"/>
      <point x="423" y="678"/>
      <point x="428" y="678" type="curve" smooth="yes"/>
      <point x="434" y="678"/>
      <point x="438" y="691"/>
      <point x="438" y="703" type="curve" smooth="yes"/>
      <point x="438" y="709"/>
      <point x="437" y="713"/>
      <point x="432" y="717" type="curve" smooth="yes"/>
      <point x="407" y="734"/>
      <point x="356" y="756"/>
      <point x="314" y="756" type="curve" smooth="yes"/>
      <point x="273" y="756"/>
      <point x="235" y="736"/>
      <point x="200" y="703" type="curve" smooth="yes"/>
      <point x="156" y="662"/>
      <point x="135" y="606"/>
      <point x="135" y="504" type="curve" smooth="yes"/>
      <point x="135" y="499" type="line"/>
      <point x="61" y="499" type="line" smooth="yes"/>
      <point x="45" y="499"/>
      <point x="39" y="478"/>
      <point x="39" y="461" type="curve" smooth="yes"/>
      <point x="39" y="454"/>
      <point x="41" y="453"/>
      <point x="46" y="453" type="curve" smooth="yes"/>
      <point x="140" y="453" type="line"/>
      <point x="140" y="40" type="line" smooth="yes"/>
      <point x="140" y="-169"/>
      <point x="105" y="-193"/>
      <point x="24" y="-193" type="curve" smooth="yes"/>
      <point x="-46" y="-193"/>
      <point x="-135" y="-161"/>
      <point x="-168" y="-147" type="curve" smooth="yes"/>
      <point x="-174" y="-145"/>
      <point x="-181" y="-141"/>
      <point x="-183" y="-141" type="curve" smooth="yes"/>
      <point x="-186" y="-141"/>
      <point x="-190" y="-146"/>
      <point x="-190" y="-164" type="curve" smooth="yes"/>
      <point x="-190" y="-174"/>
      <point x="-186" y="-185"/>
      <point x="-180" y="-189" type="curve" smooth="yes"/>
      <point x="-168" y="-198"/>
      <point x="-68" y="-244"/>
    </contour>
  </outline>
</glyph>
<glyph name="h" format="2">
  <advance width="651"/>
  <unicode hex="0068"/>
  <anchor x="326" y="0" name="bottom"/>
  <anchor x="326" y="378" name="center"/>
  <anchor x="209" y="639" name="cross"/>
  <anchor x="180" y="718" name="top"/>
  <outline>
    <contour>
      <point x="147" y="-13" type="curve" smooth="yes"/>
      <point x="154" y="-13"/>
      <point x="157" y="-10"/>
      <point x="157" y="-5" type="curve" smooth="yes"/>
      <point x="157" y="44"/>
      <point x="185" y="111"/>
      <point x="223" y="178" type="curve" smooth="yes"/>
      <point x="295" y="307"/>
      <point x="433" y="470"/>
      <point x="451" y="470" type="curve" smooth="yes"/>
      <point x="463" y="470"/>
      <point x="467" y="463"/>
      <point x="466" y="422" type="curve" smooth="yes"/>
      <point x="465" y="351"/>
      <point x="444" y="140"/>
      <point x="444" y="63" type="curve" smooth="yes"/>
      <point x="444" y="40"/>
      <point x="444" y="26"/>
      <point x="447" y="20" type="curve" smooth="yes"/>
      <point x="452" y="9"/>
      <point x="486" y="-13"/>
      <point x="497" y="-13" type="curve" smooth="yes"/>
      <point x="539" y="-13"/>
      <point x="625" y="88"/>
      <point x="657" y="131" type="curve" smooth="yes"/>
      <point x="659" y="133"/>
      <point x="660" y="137"/>
      <point x="660" y="141" type="curve" smooth="yes"/>
      <point x="660" y="154"/>
      <point x="650" y="170"/>
      <point x="646" y="170" type="curve" smooth="yes"/>
      <point x="643" y="170"/>
      <point x="642" y="167"/>
      <point x="639" y="164" type="curve"/>
      <point x="618" y="136"/>
      <point x="536" y="41"/>
      <point x="518" y="41" type="curve" smooth="yes"/>
      <point x="505" y="41"/>
      <point x="500" y="48"/>
      <point x="501" y="89" type="curve" smooth="yes"/>
      <point x="502" y="164"/>
      <point x="521" y="370"/>
      <point x="524" y="448" type="curve" smooth="yes"/>
      <point x="525" y="471"/>
      <point x="523" y="485"/>
      <point x="520" y="491" type="curve" smooth="yes"/>
      <point x="515" y="503"/>
      <point x="482" y="524"/>
      <point x="471" y="524" type="curve" smooth="yes"/>
      <point x="411" y="524"/>
      <point x="229" y="286"/>
      <point x="168" y="141" type="curve"/>
      <point x="168" y="152"/>
      <point x="208" y="683"/>
      <point x="208" y="729" type="curve" smooth="yes"/>
      <point x="208" y="747"/>
      <point x="180" y="756"/>
      <point x="159" y="756" type="curve" smooth="yes"/>
      <point x="151" y="756"/>
      <point x="150" y="753"/>
      <point x="150" y="748" type="curve" smooth="yes"/>
      <point x="150" y="617"/>
      <point x="107" y="17"/>
      <point x="107" y="14" type="curve" smooth="yes"/>
      <point x="107" y="-4"/>
      <point x="128" y="-13"/>
    </contour>
  </outline>
</glyph>
<glyph name="l" format="2">
  <advance width="312"/>
  <unicode hex="006C"/>
  <anchor x="156" y="0" name="bottom"/>
  <anchor x="156" y="378" name="center"/>
  <anchor x="156" y="756" name="top"/>
  <anchor x="305" y="632" name="topright"/>
  <outline>
    <contour>
      <point x="158" y="-13" type="curve" smooth="yes"/>
      <point x="200" y="-13"/>
      <point x="285" y="88"/>
      <point x="318" y="131" type="curve" smooth="yes"/>
      <point x="320" y="133"/>
      <point x="321" y="137"/>
      <point x="321" y="141" type="curve" smooth="yes"/>
      <point x="321" y="154"/>
      <point x="311" y="170"/>
      <point x="307" y="170" type="curve" smooth="yes"/>
      <point x="304" y="170"/>
      <point x="303" y="167"/>
      <point x="300" y="164" type="curve"/>
      <point x="279" y="136"/>
      <point x="197" y="41"/>
      <point x="178" y="41" type="curve" smooth="yes"/>
      <point x="166" y="41"/>
      <point x="162" y="48"/>
      <point x="162" y="89" type="curve" smooth="yes"/>
      <point x="162" y="202"/>
      <point x="204" y="683"/>
      <point x="204" y="729" type="curve" smooth="yes"/>
      <point x="204" y="747"/>
      <point x="176" y="756"/>
      <point x="155" y="756" type="curve" smooth="yes"/>
      <point x="147" y="756"/>
      <point x="146" y="753"/>
      <point x="146" y="748" type="curve" smooth="yes"/>
      <point x="141" y="471"/>
      <point x="109" y="191"/>
      <point x="107" y="63" type="curve" smooth="yes"/>
      <point x="107" y="40"/>
      <point x="106" y="26"/>
      <point x="109" y="20" type="curve" smooth="yes"/>
      <point x="114" y="9"/>
      <point x="147" y="-13"/>
    </contour>
  </outline>
</glyph>
<glyph name="m" format="2">
  <advance width="983"/>
  <unicode hex="006D"/>
  <anchor x="459" y="-5" name="bottom"/>
  <anchor x="490" y="524" name="top"/>
  <outline>
    <contour>
      <point x="144" y="-13" type="curve" smooth="yes"/>
      <point x="151" y="-13"/>
      <point x="154" y="-10"/>
      <point x="154" y="-5" type="curve" smooth="yes"/>
      <point x="154" y="44"/>
      <point x="182" y="111"/>
      <point x="220" y="178" type="curve" smooth="yes"/>
      <point x="292" y="307"/>
      <point x="430" y="470"/>
      <point x="448" y="470" type="curve" smooth="yes"/>
      <point x="460" y="470"/>
      <point x="463" y="463"/>
      <point x="463" y="422" type="curve" smooth="yes"/>
      <point x="463" y="377"/>
      <point x="453" y="218"/>
      <point x="446" y="112" type="curve" smooth="yes"/>
      <point x="445" y="94"/>
      <point x="439" y="22"/>
      <point x="439" y="14" type="curve" smooth="yes"/>
      <point x="439" y="-4"/>
      <point x="460" y="-13"/>
      <point x="479" y="-13" type="curve" smooth="yes"/>
      <point x="486" y="-13"/>
      <point x="489" y="-10"/>
      <point x="489" y="-5" type="curve" smooth="yes"/>
      <point x="489" y="44"/>
      <point x="517" y="111"/>
      <point x="555" y="178" type="curve" smooth="yes"/>
      <point x="627" y="307"/>
      <point x="765" y="470"/>
      <point x="783" y="470" type="curve" smooth="yes"/>
      <point x="795" y="470"/>
      <point x="799" y="463"/>
      <point x="798" y="422" type="curve" smooth="yes"/>
      <point x="797" y="351"/>
      <point x="778" y="140"/>
      <point x="777" y="63" type="curve" smooth="yes"/>
      <point x="777" y="40"/>
      <point x="776" y="26"/>
      <point x="779" y="20" type="curve" smooth="yes"/>
      <point x="784" y="9"/>
      <point x="818" y="-13"/>
      <point x="829" y="-13" type="curve" smooth="yes"/>
      <point x="871" y="-13"/>
      <point x="956" y="88"/>
      <point x="989" y="131" type="curve" smooth="yes"/>
      <point x="991" y="133"/>
      <point x="992" y="137"/>
      <point x="992" y="141" type="curve" smooth="yes"/>
      <point x="992" y="154"/>
      <point x="982" y="170"/>
      <point x="978" y="170" type="curve" smooth="yes"/>
      <point x="975" y="170"/>
      <point x="974" y="167"/>
      <point x="971" y="164" type="curve"/>
      <point x="950" y="136"/>
      <point x="868" y="41"/>
      <point x="849" y="41" type="curve" smooth="yes"/>
      <point x="837" y="41"/>
      <point x="832" y="48"/>
      <point x="833" y="89" type="curve" smooth="yes"/>
      <point x="835" y="164"/>
      <point x="853" y="370"/>
      <point x="856" y="448" type="curve" smooth="yes"/>
      <point x="857" y="471"/>
      <point x="855" y="485"/>
      <point x="852" y="491" type="curve" smooth="yes"/>
      <point x="847" y="503"/>
      <point x="814" y="524"/>
      <point x="803" y="524" type="curve" smooth="yes"/>
      <point x="743" y="524"/>
      <point x="561" y="286"/>
      <point x="500" y="141" type="curve"/>
      <point x="500" y="152"/>
      <point x="521" y="414"/>
      <point x="521" y="448" type="curve" smooth="yes"/>
      <point x="521" y="471"/>
      <point x="520" y="485"/>
      <point x="517" y="491" type="curve" smooth="yes"/>
      <point x="512" y="503"/>
      <point x="479" y="524"/>
      <point x="468" y="524" type="curve" smooth="yes"/>
      <point x="408" y="524"/>
      <point x="226" y="286"/>
      <point x="165" y="141" type="curve"/>
      <point x="165" y="152"/>
      <point x="188" y="451"/>
      <point x="188" y="497" type="curve" smooth="yes"/>
      <point x="188" y="515"/>
      <point x="161" y="524"/>
      <point x="139" y="524" type="curve" smooth="yes"/>
      <point x="132" y="524"/>
      <point x="131" y="521"/>
      <point x="131" y="516" type="curve" smooth="yes"/>
      <point x="131" y="385"/>
      <point x="104" y="18"/>
      <point x="104" y="14" type="curve" smooth="yes"/>
      <point x="104" y="-4"/>
      <point x="125" y="-13"/>
    </contour>
  </outline>
</glyph>
<glyph name="n" format="2">
  <advance width="649"/>
  <unicode hex="006E"/>
  <anchor x="299" y="0" name="bottom"/>
  <anchor x="327" y="524" name="top"/>
  <outline>
    <contour>
      <point x="144" y="-13" type="curve" smooth="yes"/>
      <point x="151" y="-13"/>
      <point x="154" y="-10"/>
      <point x="154" y="-5" type="curve" smooth="yes"/>
      <point x="154" y="44"/>
      <point x="182" y="111"/>
      <point x="220" y="178" type="curve" smooth="yes"/>
      <point x="292" y="307"/>
      <point x="430" y="470"/>
      <point x="448" y="470" type="curve" smooth="yes"/>
      <point x="460" y="470"/>
      <point x="464" y="463"/>
      <point x="463" y="422" type="curve" smooth="yes"/>
      <point x="462" y="351"/>
      <point x="441" y="140"/>
      <point x="441" y="63" type="curve" smooth="yes"/>
      <point x="441" y="40"/>
      <point x="441" y="26"/>
      <point x="444" y="20" type="curve" smooth="yes"/>
      <point x="449" y="9"/>
      <point x="484" y="-13"/>
      <point x="495" y="-13" type="curve" smooth="yes"/>
      <point x="537" y="-13"/>
      <point x="622" y="88"/>
      <point x="655" y="131" type="curve" smooth="yes"/>
      <point x="657" y="133"/>
      <point x="658" y="137"/>
      <point x="658" y="141" type="curve" smooth="yes"/>
      <point x="658" y="154"/>
      <point x="648" y="170"/>
      <point x="644" y="170" type="curve" smooth="yes"/>
      <point x="641" y="170"/>
      <point x="640" y="167"/>
      <point x="637" y="164" type="curve"/>
      <point x="616" y="136"/>
      <point x="534" y="41"/>
      <point x="515" y="41" type="curve" smooth="yes"/>
      <point x="502" y="41"/>
      <point x="498" y="48"/>
      <point x="498" y="89" type="curve" smooth="yes"/>
      <point x="498" y="164"/>
      <point x="521" y="370"/>
      <point x="521" y="448" type="curve" smooth="yes"/>
      <point x="521" y="471"/>
      <point x="520" y="485"/>
      <point x="517" y="491" type="curve" smooth="yes"/>
      <point x="512" y="503"/>
      <point x="479" y="524"/>
      <point x="468" y="524" type="curve" smooth="yes"/>
      <point x="408" y="524"/>
      <point x="226" y="286"/>
      <point x="165" y="141" type="curve"/>
      <point x="165" y="152"/>
      <point x="189" y="451"/>
      <point x="189" y="497" type="curve" smooth="yes"/>
      <point x="189" y="515"/>
      <point x="161" y="524"/>
      <point x="139" y="524" type="curve" smooth="yes"/>
      <point x="132" y="524"/>
      <point x="131" y="521"/>
      <point x="131" y="516" type="curve" smooth="yes"/>
      <point x="131" y="385"/>
      <point x="104" y="18"/>
      <point x="104" y="14" type="curve" smooth="yes"/>
      <point x="104" y="-4"/>
      <point x="125" y="-13"/>
    </contour>
  </outline>
</glyph>
<glyph name="o" format="2">
  <advance width="558"/>
  <unicode hex="006F"/>
  <anchor x="274" y="0" name="bottom"/>
  <anchor x="284" y="262" name="center"/>
  <anchor x="380" y="22" name="ogonek"/>
  <anchor x="311" y="524" name="top"/>
  <anchor x="422" y="479" name="topright"/>
  <outline>
    <contour>
      <point x="265" y="-13" type="curve" smooth="yes"/>
      <point x="392" y="-13"/>
      <point x="502" y="60"/>
      <point x="502" y="292" type="curve" smooth="yes"/>
      <point x="502" y="471"/>
      <point x="417" y="524"/>
      <point x="303" y="524" type="curve" smooth="yes"/>
      <point x="176" y="524"/>
      <point x="66" y="451"/>
      <point x="66" y="219" type="curve" smooth="yes"/>
      <point x="66" y="40"/>
      <point x="150" y="-13"/>
    </contour>
    <contour>
      <point x="270" y="22" type="curve" smooth="yes"/>
      <point x="169" y="22"/>
      <point x="126" y="86"/>
      <point x="126" y="224" type="curve" smooth="yes"/>
      <point x="126" y="395"/>
      <point x="187" y="489"/>
      <point x="296" y="489" type="curve" smooth="yes"/>
      <point x="397" y="489"/>
      <point x="440" y="426"/>
      <point x="440" y="287" type="curve" smooth="yes"/>
      <point x="440" y="116"/>
      <point x="380" y="22"/>
    </contour>
  </outline>
</glyph>
<glyph name="r" format="2">
  <advance width="371"/>
  <unicode hex="0072"/>
  <anchor x="134" y="0" name="bottom"/>
  <anchor x="234" y="524" name="top"/>
  <outline>
    <contour>
      <point x="142" y="-13" type="curve" smooth="yes"/>
      <point x="147" y="-13"/>
      <point x="151" y="-10"/>
      <point x="151" y="-5" type="curve" smooth="yes"/>
      <point x="151" y="53"/>
      <point x="160" y="116"/>
      <point x="178" y="178" type="curve" smooth="yes"/>
      <point x="218" y="314"/>
      <point x="311" y="465"/>
      <point x="376" y="465" type="curve" smooth="yes"/>
      <point x="400" y="465"/>
      <point x="398" y="472"/>
      <point x="398" y="487" type="curve" smooth="yes"/>
      <point x="398" y="506"/>
      <point x="377" y="524"/>
      <point x="357" y="524" type="curve" smooth="yes"/>
      <point x="319" y="524"/>
      <point x="241" y="457"/>
      <point x="171" y="249" type="curve"/>
      <point x="171" y="261"/>
      <point x="189" y="451"/>
      <point x="189" y="497" type="curve" smooth="yes"/>
      <point x="189" y="515"/>
      <point x="161" y="524"/>
      <point x="139" y="524" type="curve" smooth="yes"/>
      <point x="132" y="524"/>
      <point x="131" y="521"/>
      <point x="131" y="516" type="curve" smooth="yes"/>
      <point x="131" y="385"/>
      <point x="104" y="19"/>
      <point x="104" y="14" type="curve" smooth="yes"/>
      <point x="104" y="-4"/>
      <point x="124" y="-13"/>
    </contour>
  </outline>
</glyph>
<glyph name="s" format="2">
  <advance width="405"/>
  <unicode hex="0073"/>
  <anchor x="199" y="0" name="bottom"/>
  <anchor x="243" y="524" name="top"/>
  <outline>
    <contour>
      <point x="182" y="-13" type="curve" smooth="yes"/>
      <point x="262" y="-13"/>
      <point x="349" y="47"/>
      <point x="349" y="139" type="curve" smooth="yes"/>
      <point x="349" y="199"/>
      <point x="321" y="233"/>
      <point x="255" y="273" type="curve" smooth="yes"/>
      <point x="167" y="327"/>
      <point x="136" y="355"/>
      <point x="136" y="407" type="curve" smooth="yes"/>
      <point x="136" y="466"/>
      <point x="180" y="487"/>
      <point x="209" y="487" type="curve" smooth="yes"/>
      <point x="289" y="487"/>
      <point x="331" y="422"/>
      <point x="335" y="422" type="curve" smooth="yes"/>
      <point x="344" y="422"/>
      <point x="354" y="441"/>
      <point x="354" y="463" type="curve" smooth="yes"/>
      <point x="354" y="467"/>
      <point x="352" y="471"/>
      <point x="351" y="472" type="curve" smooth="yes"/>
      <point x="318" y="508"/>
      <point x="271" y="524"/>
      <point x="228" y="524" type="curve" smooth="yes"/>
      <point x="118" y="524"/>
      <point x="84" y="441"/>
      <point x="84" y="393" type="curve" smooth="yes"/>
      <point x="84" y="321"/>
      <point x="119" y="283"/>
      <point x="196" y="236" type="curve" smooth="yes"/>
      <point x="257" y="199"/>
      <point x="300" y="170"/>
      <point x="300" y="112" type="curve" smooth="yes"/>
      <point x="300" y="50"/>
      <point x="242" y="26"/>
      <point x="201" y="26" type="curve" smooth="yes"/>
      <point x="112" y="26"/>
      <point x="72" y="94"/>
      <point x="63" y="94" type="curve" smooth="yes"/>
      <point x="54" y="94"/>
      <point x="48" y="67"/>
      <point x="48" y="53" type="curve" smooth="yes"/>
      <point x="48" y="49"/>
      <point x="50" y="43"/>
      <point x="53" y="40" type="curve" smooth="yes"/>
      <point x="93" y="1"/>
      <point x="143" y="-13"/>
    </contour>
  </outline>
</glyph>
<glyph name="t" format="2">
  <advance width="359"/>
  <unicode hex="0074"/>
  <anchor x="199" y="0" name="bottom"/>
  <anchor x="170" y="262" name="center"/>
  <anchor x="180" y="636" name="top"/>
  <anchor x="329" y="524" name="topright"/>
  <outline>
    <contour>
      <point x="180" y="-13" type="curve" smooth="yes"/>
      <point x="218" y="-13"/>
      <point x="282" y="0"/>
      <point x="344" y="62" type="curve" smooth="yes"/>
      <point x="348" y="66"/>
      <point x="349" y="71"/>
      <point x="349" y="77" type="curve" smooth="yes"/>
      <point x="349" y="89"/>
      <point x="345" y="101"/>
      <point x="339" y="101" type="curve" smooth="yes"/>
      <point x="335" y="101"/>
      <point x="333" y="101"/>
      <point x="317" y="86" type="curve" smooth="yes"/>
      <point x="281" y="52"/>
      <point x="233" y="34"/>
      <point x="209" y="34" type="curve" smooth="yes"/>
      <point x="178" y="34"/>
      <point x="164" y="54"/>
      <point x="164" y="156" type="curve" smooth="yes"/>
      <point x="164" y="283"/>
      <point x="183" y="441"/>
      <point x="183" y="453" type="curve"/>
      <point x="350" y="453" type="line" smooth="yes"/>
      <point x="367" y="453"/>
      <point x="373" y="474"/>
      <point x="373" y="491" type="curve" smooth="yes"/>
      <point x="373" y="497"/>
      <point x="370" y="499"/>
      <point x="365" y="499" type="curve" smooth="yes"/>
      <point x="185" y="499" type="line"/>
      <point x="190" y="542"/>
      <point x="199" y="616"/>
      <point x="199" y="625" type="curve" smooth="yes"/>
      <point x="199" y="642"/>
      <point x="170" y="651"/>
      <point x="149" y="651" type="curve" smooth="yes"/>
      <point x="141" y="651"/>
      <point x="140" y="649"/>
      <point x="140" y="644" type="curve" smooth="yes"/>
      <point x="140" y="636"/>
      <point x="131" y="530"/>
      <point x="129" y="499" type="curve"/>
      <point x="69" y="499" type="line" smooth="yes"/>
      <point x="53" y="499"/>
      <point x="47" y="478"/>
      <point x="47" y="461" type="curve" smooth="yes"/>
      <point x="47" y="454"/>
      <point x="49" y="453"/>
      <point x="54" y="453" type="curve" smooth="yes"/>
      <point x="127" y="453" type="line"/>
      <point x="127" y="443"/>
      <point x="108" y="271"/>
      <point x="108" y="137" type="curve" smooth="yes"/>
      <point x="108" y="21"/>
      <point x="127" y="-13"/>
    </contour>
  </outline>
</glyph>
<glyph name="u" format="2">
  <advance width="648"/>
  <unicode hex="0075"/>
  <anchor x="295" y="0" name="bottom"/>
  <anchor x="526" y="10" name="ogonek"/>
  <anchor x="324" y="524" name="top"/>
  <anchor x="510" y="479" name="topright"/>
  <outline>
    <contour>
      <point x="145" y="-13" type="curve" smooth="yes"/>
      <point x="208" y="-13"/>
      <point x="382" y="210"/>
      <point x="453" y="355" type="curve"/>
      <point x="447" y="262"/>
      <point x="441" y="121"/>
      <point x="441" y="63" type="curve" smooth="yes"/>
      <point x="441" y="40"/>
      <point x="440" y="26"/>
      <point x="443" y="20" type="curve" smooth="yes"/>
      <point x="448" y="9"/>
      <point x="481" y="-13"/>
      <point x="494" y="-13" type="curve" smooth="yes"/>
      <point x="536" y="-13"/>
      <point x="621" y="88"/>
      <point x="654" y="131" type="curve" smooth="yes"/>
      <point x="656" y="133"/>
      <point x="657" y="137"/>
      <point x="657" y="141" type="curve" smooth="yes"/>
      <point x="657" y="154"/>
      <point x="647" y="170"/>
      <point x="643" y="170" type="curve" smooth="yes"/>
      <point x="640" y="170"/>
      <point x="639" y="167"/>
      <point x="636" y="164" type="curve"/>
      <point x="615" y="136"/>
      <point x="533" y="41"/>
      <point x="514" y="41" type="curve" smooth="yes"/>
      <point x="501" y="41"/>
      <point x="498" y="48"/>
      <point x="498" y="89" type="curve" smooth="yes"/>
      <point x="498" y="237"/>
      <point x="518" y="489"/>
      <point x="518" y="497" type="curve" smooth="yes"/>
      <point x="518" y="515"/>
      <point x="494" y="524"/>
      <point x="475" y="524" type="curve" smooth="yes"/>
      <point x="467" y="524"/>
      <point x="465" y="521"/>
      <point x="465" y="515" type="curve" smooth="yes"/>
      <point x="465" y="465"/>
      <point x="436" y="394"/>
      <point x="402" y="333" type="curve" smooth="yes"/>
      <point x="320" y="188"/>
      <point x="187" y="41"/>
      <point x="164" y="41" type="curve" smooth="yes"/>
      <point x="151" y="41"/>
      <point x="148" y="48"/>
      <point x="148" y="89" type="curve" smooth="yes"/>
      <point x="148" y="180"/>
      <point x="185" y="359"/>
      <point x="189" y="497" type="curve" smooth="yes"/>
      <point x="190" y="515"/>
      <point x="163" y="524"/>
      <point x="141" y="524" type="curve" smooth="yes"/>
      <point x="134" y="524"/>
      <point x="132" y="521"/>
      <point x="132" y="516" type="curve" smooth="yes"/>
      <point x="122" y="316"/>
      <point x="91" y="123"/>
      <point x="91" y="63" type="curve" smooth="yes"/>
      <point x="91" y="40"/>
      <point x="91" y="26"/>
      <point x="94" y="20" type="curve" smooth="yes"/>
      <point x="100" y="9"/>
      <point x="134" y="-13"/>
    </contour>
  </outline>
</glyph>
<glyph name="v" format="2">
  <advance width="455"/>
  <unicode hex="0076"/>
  <anchor x="203" y="0" name="bottom"/>
  <anchor x="253" y="524" name="top"/>
  <outline>
    <contour>
      <point x="216" y="-13" type="curve" smooth="yes"/>
      <point x="222" y="-13"/>
      <point x="225" y="-10"/>
      <point x="228" y="-4" type="curve" smooth="yes"/>
      <point x="339" y="184"/>
      <point x="435" y="398"/>
      <point x="435" y="497" type="curve" smooth="yes"/>
      <point x="435" y="503"/>
      <point x="432" y="507"/>
      <point x="429" y="511" type="curve" smooth="yes"/>
      <point x="422" y="519"/>
      <point x="405" y="524"/>
      <point x="391" y="524" type="curve" smooth="yes"/>
      <point x="385" y="524"/>
      <point x="383" y="521"/>
      <point x="383" y="516" type="curve" smooth="yes"/>
      <point x="383" y="486"/>
      <point x="378" y="451"/>
      <point x="370" y="414" type="curve" smooth="yes"/>
      <point x="343" y="295"/>
      <point x="274" y="151"/>
      <point x="218" y="49" type="curve"/>
      <point x="216" y="60"/>
      <point x="214" y="77"/>
      <point x="210" y="97" type="curve" smooth="yes"/>
      <point x="188" y="213"/>
      <point x="138" y="441"/>
      <point x="121" y="485" type="curve" smooth="yes"/>
      <point x="109" y="516"/>
      <point x="101" y="524"/>
      <point x="60" y="524" type="curve" smooth="yes"/>
      <point x="47" y="524"/>
      <point x="45" y="521"/>
      <point x="45" y="515" type="curve" smooth="yes"/>
      <point x="45" y="499"/>
      <point x="101" y="416"/>
      <point x="167" y="13" type="curve" smooth="yes"/>
      <point x="170" y="-6"/>
      <point x="200" y="-13"/>
    </contour>
  </outline>
</glyph>
<glyph name="y" format="2">
  <advance width="608"/>
  <unicode hex="0079"/>
  <anchor x="590" y="20" name="bottom"/>
  <anchor x="316" y="524" name="top"/>
  <outline>
    <contour>
      <point x="322" y="-244" type="curve" smooth="yes"/>
      <point x="388" y="-244"/>
      <point x="501" y="-179"/>
      <point x="501" y="-28" type="curve" smooth="yes"/>
      <point x="501" y="320"/>
      <point x="519" y="489"/>
      <point x="519" y="497" type="curve" smooth="yes"/>
      <point x="519" y="515"/>
      <point x="495" y="524"/>
      <point x="476" y="524" type="curve" smooth="yes"/>
      <point x="468" y="524"/>
      <point x="466" y="521"/>
      <point x="466" y="515" type="curve" smooth="yes"/>
      <point x="466" y="465"/>
      <point x="437" y="394"/>
      <point x="403" y="333" type="curve" smooth="yes"/>
      <point x="321" y="188"/>
      <point x="188" y="41"/>
      <point x="165" y="41" type="curve" smooth="yes"/>
      <point x="152" y="41"/>
      <point x="148" y="48"/>
      <point x="148" y="89" type="curve" smooth="yes"/>
      <point x="148" y="180"/>
      <point x="186" y="359"/>
      <point x="190" y="497" type="curve" smooth="yes"/>
      <point x="191" y="515"/>
      <point x="164" y="524"/>
      <point x="142" y="524" type="curve" smooth="yes"/>
      <point x="135" y="524"/>
      <point x="133" y="521"/>
      <point x="133" y="516" type="curve" smooth="yes"/>
      <point x="123" y="316"/>
      <point x="92" y="123"/>
      <point x="92" y="63" type="curve" smooth="yes"/>
      <point x="92" y="40"/>
      <point x="92" y="26"/>
      <point x="95" y="20" type="curve" smooth="yes"/>
      <point x="101" y="9"/>
      <point x="135" y="-13"/>
      <point x="146" y="-13" type="curve" smooth="yes"/>
      <point x="209" y="-13"/>
      <point x="383" y="210"/>
      <point x="454" y="355" type="curve"/>
      <point x="447" y="254"/>
      <point x="446" y="89"/>
      <point x="446" y="45" type="curve" smooth="yes"/>
      <point x="446" y="-164"/>
      <point x="412" y="-193"/>
      <point x="331" y="-193" type="curve" smooth="yes"/>
      <point x="214" y="-193"/>
      <point x="96" y="-128"/>
      <point x="89" y="-128" type="curve" smooth="yes"/>
      <point x="84" y="-128"/>
      <point x="81" y="-135"/>
      <point x="81" y="-149" type="curve" smooth="yes"/>
      <point x="81" y="-159"/>
      <point x="85" y="-171"/>
      <point x="91" y="-174" type="curve" smooth="yes"/>
      <point x="135" y="-197"/>
      <point x="233" y="-244"/>
    </contour>
  </outline>
</glyph>
<glyph name="bar" format="2">
  <advance width="290"/>
  <unicode hex="007C"/>
  <outline>
    <contour>
      <point x="141" y="-166" type="curve" smooth="yes"/>
      <point x="150" y="-166"/>
      <point x="153" y="-164"/>
      <point x="153" y="-159" type="curve" smooth="yes"/>
      <point x="154" y="-60"/>
      <point x="166" y="256"/>
      <point x="167" y="281" type="curve" smooth="yes"/>
      <point x="167" y="365"/>
      <point x="188" y="638"/>
      <point x="188" y="652" type="curve" smooth="yes"/>
      <point x="188" y="670"/>
      <point x="166" y="678"/>
      <point x="144" y="678" type="curve" smooth="yes"/>
      <point x="143" y="678" type="line" smooth="yes"/>
      <point x="134" y="678"/>
      <point x="131" y="676"/>
      <point x="131" y="671" type="curve" smooth="yes"/>
      <point x="130" y="573"/>
      <point x="118" y="326"/>
      <point x="117" y="303" type="curve" smooth="yes"/>
      <point x="117" y="219"/>
      <point x="96" y="-128"/>
      <point x="96" y="-140" type="curve" smooth="yes"/>
      <point x="96" y="-158"/>
      <point x="118" y="-166"/>
    </contour>
  </outline>
</glyph>
<glyph name="braceright" format="2">
  <advance width="321"/>
  <unicode hex="007D"/>
  <outline>
    <contour>
      <point x="49" y="-244" type="curve" smooth="yes"/>
      <point x="107" y="-244"/>
      <point x="152" y="-201"/>
      <point x="155" y="-96" type="curve" smooth="yes"/>
      <point x="157" y="-28"/>
      <point x="161" y="107"/>
      <point x="163" y="127" type="curve" smooth="yes"/>
      <point x="169" y="197"/>
      <point x="186" y="229"/>
      <point x="235" y="240" type="curve" smooth="yes"/>
      <point x="242" y="242"/>
      <point x="245" y="246"/>
      <point x="245" y="250" type="curve" smooth="yes"/>
      <point x="245" y="257"/>
      <point x="244" y="264"/>
      <point x="237" y="267" type="curve" smooth="yes"/>
      <point x="193" y="284"/>
      <point x="178" y="308"/>
      <point x="178" y="361" type="curve" smooth="yes"/>
      <point x="178" y="409"/>
      <point x="203" y="585"/>
      <point x="203" y="631" type="curve" smooth="yes"/>
      <point x="203" y="709"/>
      <point x="165" y="756"/>
      <point x="109" y="756" type="curve" smooth="yes"/>
      <point x="103" y="756"/>
      <point x="98" y="755"/>
      <point x="94" y="754" type="curve" smooth="yes"/>
      <point x="90" y="753"/>
      <point x="87" y="750"/>
      <point x="87" y="745" type="curve" smooth="yes"/>
      <point x="87" y="731"/>
      <point x="93" y="726"/>
      <point x="106" y="726" type="curve" smooth="yes"/>
      <point x="127" y="726"/>
      <point x="143" y="710"/>
      <point x="143" y="646" type="curve" smooth="yes"/>
      <point x="143" y="574"/>
      <point x="126" y="456"/>
      <point x="126" y="369" type="curve" smooth="yes"/>
      <point x="126" y="309"/>
      <point x="153" y="274"/>
      <point x="198" y="256" type="curve"/>
      <point x="156" y="247"/>
      <point x="120" y="210"/>
      <point x="112" y="158" type="curve" smooth="yes"/>
      <point x="102" y="94"/>
      <point x="102" y="-57"/>
      <point x="92" y="-137" type="curve" smooth="yes"/>
      <point x="83" y="-206"/>
      <point x="64" y="-212"/>
      <point x="48" y="-212" type="curve" smooth="yes"/>
      <point x="27" y="-212"/>
      <point x="24" y="-214"/>
      <point x="24" y="-224" type="curve" smooth="yes"/>
      <point x="24" y="-233"/>
      <point x="27" y="-239"/>
      <point x="32" y="-241" type="curve" smooth="yes"/>
      <point x="37" y="-243"/>
      <point x="42" y="-244"/>
    </contour>
  </outline>
</glyph>
<glyph name="exclamdown" format="2">
  <advance width="275"/>
  <unicode hex="00A1"/>
  <outline>
    <contour>
      <point x="123" y="-140" type="curve" smooth="yes"/>
      <point x="131" y="-140"/>
      <point x="139" y="-137"/>
      <point x="140" y="-130" type="curve" smooth="yes"/>
      <point x="146" y="-82"/>
      <point x="152" y="266"/>
      <point x="157" y="314" type="curve" smooth="yes"/>
      <point x="157" y="316"/>
      <point x="148" y="317"/>
      <point x="141" y="317" type="curve" smooth="yes"/>
      <point x="131" y="317"/>
      <point x="120" y="314"/>
      <point x="119" y="308" type="curve" smooth="yes"/>
      <point x="99" y="84"/>
      <point x="79" y="-60"/>
      <point x="79" y="-122" type="curve" smooth="yes"/>
      <point x="79" y="-129"/>
      <point x="106" y="-140"/>
    </contour>
    <contour>
      <point x="142" y="433" type="curve" smooth="yes"/>
      <point x="160" y="433"/>
      <point x="187" y="455"/>
      <point x="187" y="489" type="curve" smooth="yes"/>
      <point x="187" y="512"/>
      <point x="179" y="524"/>
      <point x="157" y="524" type="curve" smooth="yes"/>
      <point x="132" y="524"/>
      <point x="113" y="507"/>
      <point x="113" y="483" type="curve" smooth="yes"/>
      <point x="113" y="449"/>
      <point x="128" y="433"/>
    </contour>
  </outline>
</glyph>
<glyph name="cent" format="2">
  <advance width="448"/>
  <unicode hex="00A2"/>
  <outline>
    <contour>
      <point x="256" y="-166" type="curve" smooth="yes"/>
      <point x="265" y="-166"/>
      <point x="266" y="-163"/>
      <point x="266" y="-158" type="curve" smooth="yes"/>
      <point x="266" y="-117"/>
      <point x="268" y="-65"/>
      <point x="270" y="-11" type="curve"/>
      <point x="328" y="-4"/>
      <point x="375" y="23"/>
      <point x="411" y="62" type="curve" smooth="yes"/>
      <point x="417" y="68"/>
      <point x="418" y="71"/>
      <point x="418" y="77" type="curve" smooth="yes"/>
      <point x="418" y="89"/>
      <point x="412" y="103"/>
      <point x="406" y="103" type="curve" smooth="yes"/>
      <point x="402" y="103"/>
      <point x="400" y="100"/>
      <point x="387" y="88" type="curve" smooth="yes"/>
      <point x="366" y="69"/>
      <point x="319" y="30"/>
      <point x="258" y="30" type="curve" smooth="yes"/>
      <point x="168" y="30"/>
      <point x="125" y="112"/>
      <point x="125" y="227" type="curve" smooth="yes"/>
      <point x="125" y="387"/>
      <point x="188" y="489"/>
      <point x="258" y="489" type="curve" smooth="yes"/>
      <point x="301" y="489"/>
      <point x="331" y="478"/>
      <point x="364" y="440" type="curve" smooth="yes"/>
      <point x="373" y="430"/>
      <point x="377" y="426"/>
      <point x="385" y="426" type="curve" smooth="yes"/>
      <point x="394" y="426"/>
      <point x="402" y="448"/>
      <point x="402" y="464" type="curve" smooth="yes"/>
      <point x="402" y="472"/>
      <point x="398" y="480"/>
      <point x="388" y="489" type="curve" smooth="yes"/>
      <point x="362" y="513"/>
      <point x="335" y="523"/>
      <point x="288" y="523" type="curve"/>
      <point x="293" y="581"/>
      <point x="297" y="622"/>
      <point x="297" y="626" type="curve" smooth="yes"/>
      <point x="297" y="644"/>
      <point x="277" y="652"/>
      <point x="254" y="652" type="curve" smooth="yes"/>
      <point x="246" y="652"/>
      <point x="244" y="650"/>
      <point x="244" y="645" type="curve" smooth="yes"/>
      <point x="243" y="621"/>
      <point x="241" y="575"/>
      <point x="239" y="521" type="curve"/>
      <point x="155" y="506"/>
      <point x="63" y="424"/>
      <point x="63" y="222" type="curve" smooth="yes"/>
      <point x="63" y="61"/>
      <point x="132" y="-6"/>
      <point x="222" y="-12" type="curve"/>
      <point x="217" y="-83"/>
      <point x="214" y="-135"/>
      <point x="214" y="-139" type="curve" smooth="yes"/>
      <point x="214" y="-157"/>
      <point x="234" y="-166"/>
    </contour>
  </outline>
</glyph>
<glyph name="copyright" format="2">
  <advance width="748"/>
  <unicode hex="00A9"/>
  <outline>
    <contour>
      <point x="370" y="-13" type="curve" smooth="yes"/>
      <point x="586" y="-13"/>
      <point x="685" y="134"/>
      <point x="685" y="349" type="curve" smooth="yes"/>
      <point x="685" y="528"/>
      <point x="596" y="652"/>
      <point x="378" y="652" type="curve" smooth="yes"/>
      <point x="162" y="652"/>
      <point x="63" y="506"/>
      <point x="63" y="291" type="curve" smooth="yes"/>
      <point x="63" y="112"/>
      <point x="152" y="-13"/>
    </contour>
    <contour>
      <point x="371" y="26" type="curve" smooth="yes"/>
      <point x="196" y="26"/>
      <point x="123" y="135"/>
      <point x="123" y="295" type="curve" smooth="yes"/>
      <point x="123" y="486"/>
      <point x="204" y="614"/>
      <point x="377" y="614" type="curve" smooth="yes"/>
      <point x="552" y="614"/>
      <point x="625" y="506"/>
      <point x="625" y="346" type="curve" smooth="yes"/>
      <point x="625" y="155"/>
      <point x="544" y="26"/>
    </contour>
    <contour>
      <point x="397" y="122" type="curve" smooth="yes"/>
      <point x="451" y="122"/>
      <point x="492" y="138"/>
      <point x="507" y="147" type="curve" smooth="yes"/>
      <point x="513" y="151"/>
      <point x="515" y="159"/>
      <point x="515" y="177" type="curve" smooth="yes"/>
      <point x="515" y="187"/>
      <point x="514" y="190"/>
      <point x="512" y="190" type="curve" smooth="yes"/>
      <point x="510" y="190"/>
      <point x="508" y="189"/>
      <point x="502" y="186" type="curve" smooth="yes"/>
      <point x="485" y="177"/>
      <point x="453" y="163"/>
      <point x="403" y="163" type="curve" smooth="yes"/>
      <point x="366" y="163"/>
      <point x="335" y="172"/>
      <point x="306" y="207" type="curve" smooth="yes"/>
      <point x="286" y="231"/>
      <point x="277" y="269"/>
      <point x="277" y="318" type="curve" smooth="yes"/>
      <point x="277" y="428"/>
      <point x="341" y="482"/>
      <point x="409" y="482" type="curve" smooth="yes"/>
      <point x="484" y="482"/>
      <point x="517" y="448"/>
      <point x="521" y="448" type="curve" smooth="yes"/>
      <point x="525" y="448"/>
      <point x="528" y="458"/>
      <point x="528" y="477" type="curve" smooth="yes"/>
      <point x="528" y="484"/>
      <point x="527" y="489"/>
      <point x="521" y="493" type="curve" smooth="yes"/>
      <point x="505" y="503"/>
      <point x="460" y="519"/>
      <point x="400" y="519" type="curve" smooth="yes"/>
      <point x="268" y="519"/>
      <point x="213" y="414"/>
      <point x="213" y="316" type="curve" smooth="yes"/>
      <point x="213" y="160"/>
      <point x="308" y="122"/>
    </contour>
  </outline>
</glyph>
<glyph name="guillemetleft" format="2">
  <advance width="564"/>
  <unicode hex="00AB"/>
  <outline>
    <contour>
      <point x="508" y="115" type="curve" smooth="yes"/>
      <point x="514" y="115"/>
      <point x="517" y="125"/>
      <point x="518" y="154" type="curve" smooth="yes"/>
      <point x="519" y="159"/>
      <point x="516" y="165"/>
      <point x="504" y="176" type="curve" smooth="yes"/>
      <point x="364" y="317" type="line"/>
      <point x="490" y="453" type="line" smooth="yes"/>
      <point x="501" y="466"/>
      <point x="505" y="469"/>
      <point x="506" y="478" type="curve" smooth="yes"/>
      <point x="507" y="503"/>
      <point x="505" y="513"/>
      <point x="498" y="513" type="curve" smooth="yes"/>
      <point x="494" y="513"/>
      <point x="489" y="510"/>
      <point x="483" y="505" type="curve" smooth="yes"/>
      <point x="313" y="360" type="line" smooth="yes"/>
      <point x="303" y="352"/>
      <point x="296" y="337"/>
      <point x="295" y="313" type="curve" smooth="yes"/>
      <point x="294" y="298"/>
      <point x="305" y="284"/>
      <point x="313" y="278" type="curve" smooth="yes"/>
      <point x="493" y="124" type="line" smooth="yes"/>
      <point x="499" y="119"/>
      <point x="504" y="115"/>
    </contour>
    <contour>
      <point x="271" y="115" type="curve" smooth="yes"/>
      <point x="278" y="115"/>
      <point x="280" y="125"/>
      <point x="281" y="154" type="curve" smooth="yes"/>
      <point x="282" y="159"/>
      <point x="279" y="164"/>
      <point x="267" y="176" type="curve" smooth="yes"/>
      <point x="127" y="317" type="line"/>
      <point x="253" y="453" type="line" smooth="yes"/>
      <point x="265" y="466"/>
      <point x="268" y="469"/>
      <point x="269" y="478" type="curve" smooth="yes"/>
      <point x="270" y="503"/>
      <point x="268" y="513"/>
      <point x="261" y="513" type="curve" smooth="yes"/>
      <point x="258" y="513"/>
      <point x="252" y="511"/>
      <point x="246" y="505" type="curve" smooth="yes"/>
      <point x="76" y="360" type="line" smooth="yes"/>
      <point x="67" y="353"/>
      <point x="59" y="337"/>
      <point x="58" y="313" type="curve" smooth="yes"/>
      <point x="57" y="298"/>
      <point x="68" y="284"/>
      <point x="76" y="278" type="curve" smooth="yes"/>
      <point x="256" y="124" type="line" smooth="yes"/>
      <point x="263" y="119"/>
      <point x="268" y="115"/>
    </contour>
  </outline>
</glyph>
<glyph name="degree" format="2">
  <advance width="350"/>
  <unicode hex="00B0"/>
  <outline>
    <contour>
      <point x="181" y="365" type="curve" smooth="yes"/>
      <point x="259" y="365"/>
      <point x="323" y="430"/>
      <point x="323" y="510" type="curve" smooth="yes"/>
      <point x="323" y="588"/>
      <point x="259" y="652"/>
      <point x="181" y="652" type="curve" smooth="yes"/>
      <point x="102" y="652"/>
      <point x="38" y="588"/>
      <point x="38" y="510" type="curve" smooth="yes"/>
      <point x="38" y="430"/>
      <point x="102" y="365"/>
    </contour>
    <contour>
      <point x="182" y="411" type="curve" smooth="yes"/>
      <point x="128" y="411"/>
      <point x="85" y="456"/>
      <point x="85" y="510" type="curve" smooth="yes"/>
      <point x="85" y="560"/>
      <point x="128" y="607"/>
      <point x="182" y="607" type="curve" smooth="yes"/>
      <point x="236" y="607"/>
      <point x="281" y="560"/>
      <point x="281" y="510" type="curve" smooth="yes"/>
      <point x="281" y="456"/>
      <point x="236" y="411"/>
    </contour>
  </outline>
</glyph>
<glyph name="plusminus" format="2">
  <advance width="459"/>
  <unicode hex="00B1"/>
  <outline>
    <contour>
      <point x="224" y="191" type="curve" smooth="yes"/>
      <point x="230" y="191"/>
      <point x="235" y="195"/>
      <point x="235" y="203" type="curve" smooth="yes"/>
      <point x="235" y="212"/>
      <point x="244" y="308"/>
      <point x="248" y="360" type="curve"/>
      <point x="399" y="360" type="line" smooth="yes"/>
      <point x="414" y="360"/>
      <point x="423" y="379"/>
      <point x="423" y="398" type="curve" smooth="yes"/>
      <point x="423" y="404"/>
      <point x="420" y="408"/>
      <point x="415" y="408" type="curve" smooth="yes"/>
      <point x="251" y="408" type="line"/>
      <point x="255" y="452"/>
      <point x="264" y="530"/>
      <point x="264" y="539" type="curve" smooth="yes"/>
      <point x="264" y="564"/>
      <point x="236" y="567"/>
      <point x="226" y="567" type="curve" smooth="yes"/>
      <point x="219" y="567"/>
      <point x="212" y="565"/>
      <point x="212" y="558" type="curve" smooth="yes"/>
      <point x="212" y="547"/>
      <point x="205" y="459"/>
      <point x="201" y="408" type="curve"/>
      <point x="57" y="408" type="line" smooth="yes"/>
      <point x="41" y="408"/>
      <point x="35" y="389"/>
      <point x="35" y="370" type="curve" smooth="yes"/>
      <point x="35" y="364"/>
      <point x="36" y="360"/>
      <point x="40" y="360" type="curve" smooth="yes"/>
      <point x="197" y="360" type="line"/>
      <point x="194" y="315"/>
      <point x="186" y="231"/>
      <point x="186" y="222" type="curve" smooth="yes"/>
      <point x="186" y="196"/>
      <point x="212" y="191"/>
    </contour>
    <contour>
      <point x="47" y="92" type="curve" smooth="yes"/>
      <point x="360" y="92" type="line" smooth="yes"/>
      <point x="376" y="92"/>
      <point x="382" y="107"/>
      <point x="382" y="128" type="curve" smooth="yes"/>
      <point x="382" y="137"/>
      <point x="380" y="139"/>
      <point x="375" y="139" type="curve" smooth="yes"/>
      <point x="62" y="139" type="line" smooth="yes"/>
      <point x="46" y="139"/>
      <point x="40" y="121"/>
      <point x="40" y="101" type="curve" smooth="yes"/>
      <point x="40" y="93"/>
      <point x="42" y="92"/>
    </contour>
  </outline>
</glyph>
<glyph name="paragraph" format="2">
  <advance width="559"/>
  <unicode hex="00B6"/>
  <outline>
    <contour>
      <point x="377" y="-244" type="curve" smooth="yes"/>
      <point x="386" y="-244"/>
      <point x="387" y="-242"/>
      <point x="387" y="-237" type="curve" smooth="yes"/>
      <point x="387" y="0"/>
      <point x="421" y="571"/>
      <point x="423" y="592" type="curve"/>
      <point x="482" y="592" type="line" smooth="yes"/>
      <point x="494" y="592"/>
      <point x="496" y="614"/>
      <point x="496" y="631" type="curve" smooth="yes"/>
      <point x="496" y="638"/>
      <point x="493" y="639"/>
      <point x="488" y="639" type="curve" smooth="yes"/>
      <point x="233" y="639" type="line" smooth="yes"/>
      <point x="141" y="639"/>
      <point x="63" y="588"/>
      <point x="63" y="435" type="curve" smooth="yes"/>
      <point x="63" y="321"/>
      <point x="130" y="277"/>
      <point x="213" y="277" type="curve" smooth="yes"/>
      <point x="243" y="277"/>
      <point x="258" y="286"/>
      <point x="272" y="297" type="curve"/>
      <point x="280" y="441"/>
      <point x="281" y="562"/>
      <point x="281" y="592" type="curve"/>
      <point x="365" y="592" type="line"/>
      <point x="365" y="511"/>
      <point x="324" y="-210"/>
      <point x="324" y="-218" type="curve" smooth="yes"/>
      <point x="324" y="-236"/>
      <point x="354" y="-244"/>
    </contour>
  </outline>
</glyph>
<glyph name="periodcentered" format="2">
  <advance width="275"/>
  <unicode hex="00B7"/>
  <outline>
    <contour>
      <point x="121" y="277" type="curve" smooth="yes"/>
      <point x="147" y="277"/>
      <point x="164" y="296"/>
      <point x="164" y="317" type="curve" smooth="yes"/>
      <point x="164" y="351"/>
      <point x="150" y="368"/>
      <point x="136" y="368" type="curve" smooth="yes"/>
      <point x="120" y="368"/>
      <point x="91" y="345"/>
      <point x="91" y="312" type="curve" smooth="yes"/>
      <point x="91" y="288"/>
      <point x="100" y="277"/>
    </contour>
  </outline>
</glyph>
<glyph name="ordmasculine" format="2">
  <advance width="382"/>
  <unicode hex="00BA"/>
  <outline>
    <contour>
      <point x="188" y="313" type="curve" smooth="yes"/>
      <point x="273" y="313"/>
      <point x="344" y="360"/>
      <point x="344" y="507" type="curve" smooth="yes"/>
      <point x="344" y="624"/>
      <point x="283" y="652"/>
      <point x="206" y="652" type="curve" smooth="yes"/>
      <point x="122" y="652"/>
      <point x="49" y="606"/>
      <point x="49" y="460" type="curve" smooth="yes"/>
      <point x="49" y="343"/>
      <point x="111" y="313"/>
    </contour>
    <contour>
      <point x="188" y="345" type="curve" smooth="yes"/>
      <point x="132" y="345"/>
      <point x="110" y="379"/>
      <point x="110" y="462" type="curve" smooth="yes"/>
      <point x="110" y="566"/>
      <point x="144" y="621"/>
      <point x="205" y="621" type="curve" smooth="yes"/>
      <point x="263" y="621"/>
      <point x="286" y="587"/>
      <point x="286" y="506" type="curve" smooth="yes"/>
      <point x="286" y="400"/>
      <point x="250" y="345"/>
    </contour>
  </outline>
</glyph>
<glyph name="onehalf" format="2">
  <advance width="800"/>
  <unicode hex="00BD"/>
  <outline>
    <contour>
      <point x="384" y="0" type="curve" smooth="yes"/>
      <point x="650" y="0" type="line" smooth="yes"/>
      <point x="661" y="0"/>
      <point x="669" y="17"/>
      <point x="669" y="34" type="curve" smooth="yes"/>
      <point x="669" y="42"/>
      <point x="668" y="48"/>
      <point x="664" y="48" type="curve" smooth="yes"/>
      <point x="662" y="48"/>
      <point x="568" y="37"/>
      <point x="494" y="37" type="curve" smooth="yes"/>
      <point x="473" y="37"/>
      <point x="455" y="37"/>
      <point x="441" y="37" type="curve"/>
      <point x="501" y="95"/>
      <point x="563" y="155"/>
      <point x="605" y="205" type="curve" smooth="yes"/>
      <point x="641" y="247"/>
      <point x="663" y="288"/>
      <point x="663" y="335" type="curve" smooth="yes"/>
      <point x="663" y="414"/>
      <point x="599" y="439"/>
      <point x="525" y="439" type="curve" smooth="yes"/>
      <point x="481" y="439"/>
      <point x="435" y="425"/>
      <point x="412" y="409" type="curve" smooth="yes"/>
      <point x="401" y="402"/>
      <point x="399" y="395"/>
      <point x="399" y="385" type="curve" smooth="yes"/>
      <point x="399" y="364"/>
      <point x="403" y="356"/>
      <point x="410" y="356" type="curve" smooth="yes"/>
      <point x="420" y="356"/>
      <point x="455" y="405"/>
      <point x="528" y="405" type="curve" smooth="yes"/>
      <point x="564" y="405"/>
      <point x="601" y="383"/>
      <point x="601" y="332" type="curve" smooth="yes"/>
      <point x="601" y="293"/>
      <point x="590" y="267"/>
      <point x="558" y="226" type="curve" smooth="yes"/>
      <point x="520" y="178"/>
      <point x="442" y="102"/>
      <point x="379" y="44" type="curve" smooth="yes"/>
      <point x="372" y="37"/>
      <point x="370" y="33"/>
      <point x="370" y="28" type="curve" smooth="yes"/>
      <point x="370" y="20"/>
      <point x="377" y="0"/>
    </contour>
    <contour>
      <point x="248" y="200" type="curve" smooth="yes"/>
      <point x="258" y="200"/>
      <point x="260" y="204"/>
      <point x="260" y="209" type="curve" smooth="yes"/>
      <point x="260" y="413"/>
      <point x="285" y="620"/>
      <point x="285" y="629" type="curve" smooth="yes"/>
      <point x="285" y="645"/>
      <point x="252" y="652"/>
      <point x="235" y="652" type="curve" smooth="yes"/>
      <point x="232" y="652"/>
      <point x="104" y="564"/>
      <point x="96" y="557" type="curve" smooth="yes"/>
      <point x="91" y="553"/>
      <point x="90" y="545"/>
      <point x="90" y="537" type="curve" smooth="yes"/>
      <point x="90" y="523"/>
      <point x="96" y="508"/>
      <point x="101" y="508" type="curve" smooth="yes"/>
      <point x="106" y="508"/>
      <point x="164" y="565"/>
      <point x="218" y="596" type="curve"/>
      <point x="216" y="520"/>
      <point x="195" y="232"/>
      <point x="195" y="223" type="curve" smooth="yes"/>
      <point x="195" y="208"/>
      <point x="226" y="200"/>
    </contour>
  </outline>
</glyph>
<glyph name="AE" format="2">
  <advance width="754"/>
  <unicode hex="00C6"/>
  <anchor x="400" y="0" name="bottom"/>
  <anchor x="412" y="652" name="top"/>
  <outline>
    <contour>
      <point x="-6" y="-13" type="curve" smooth="yes"/>
      <point x="-1" y="-13"/>
      <point x="3" y="-5"/>
      <point x="21" y="31" type="curve" smooth="yes"/>
      <point x="43" y="75"/>
      <point x="115" y="209"/>
      <point x="158" y="270" type="curve"/>
      <point x="174" y="271"/>
      <point x="248" y="271"/>
      <point x="298" y="271" type="curve" smooth="yes"/>
      <point x="338" y="271" type="line"/>
      <point x="330" y="188"/>
      <point x="324" y="38"/>
      <point x="320" y="0" type="curve"/>
      <point x="683" y="0" type="line" smooth="yes"/>
      <point x="690" y="0"/>
      <point x="700" y="26"/>
      <point x="700" y="44" type="curve" smooth="yes"/>
      <point x="700" y="52"/>
      <point x="700" y="58"/>
      <point x="698" y="58" type="curve" smooth="yes"/>
      <point x="695" y="58"/>
      <point x="616" y="37"/>
      <point x="475" y="37" type="curve" smooth="yes"/>
      <point x="398" y="37"/>
      <point x="387" y="43"/>
      <point x="387" y="82" type="curve" smooth="yes"/>
      <point x="387" y="149"/>
      <point x="388" y="228"/>
      <point x="393" y="312" type="curve"/>
      <point x="433" y="312" type="line" smooth="yes"/>
      <point x="574" y="312"/>
      <point x="622" y="304"/>
      <point x="626" y="304" type="curve" smooth="yes"/>
      <point x="630" y="304"/>
      <point x="636" y="326"/>
      <point x="636" y="341" type="curve" smooth="yes"/>
      <point x="636" y="349"/>
      <point x="634" y="355"/>
      <point x="631" y="355" type="curve" smooth="yes"/>
      <point x="396" y="355" type="line"/>
      <point x="402" y="458"/>
      <point x="411" y="552"/>
      <point x="417" y="596" type="curve"/>
      <point x="450" y="596" type="line" smooth="yes"/>
      <point x="591" y="596"/>
      <point x="639" y="587"/>
      <point x="642" y="587" type="curve" smooth="yes"/>
      <point x="646" y="587"/>
      <point x="653" y="610"/>
      <point x="653" y="625" type="curve" smooth="yes"/>
      <point x="653" y="633"/>
      <point x="650" y="639"/>
      <point x="648" y="639" type="curve" smooth="yes"/>
      <point x="345" y="639" type="line" smooth="yes"/>
      <point x="334" y="639"/>
      <point x="332" y="634"/>
      <point x="326" y="626" type="curve" smooth="yes"/>
      <point x="228" y="478"/>
      <point x="66" y="209"/>
      <point x="-23" y="71" type="curve" smooth="yes"/>
      <point x="-36" y="51"/>
      <point x="-37" y="43"/>
      <point x="-37" y="29" type="curve" smooth="yes"/>
      <point x="-37" y="7"/>
      <point x="-10" y="-13"/>
    </contour>
    <contour>
      <point x="180" y="310" type="line"/>
      <point x="226" y="392"/>
      <point x="305" y="514"/>
      <point x="354" y="586" type="curve"/>
      <point x="353" y="520"/>
      <point x="345" y="401"/>
      <point x="341" y="310" type="curve"/>
    </contour>
  </outline>
</glyph>
<glyph name="Thorn" format="2">
  <advance width="532"/>
  <unicode hex="00DE"/>
  <outline>
    <contour>
      <point x="151" y="-13" type="curve" smooth="yes"/>
      <point x="159" y="-13"/>
      <point x="161" y="-10"/>
      <point x="161" y="-5" type="curve" smooth="yes"/>
      <point x="161" y="55"/>
      <point x="164" y="117"/>
      <point x="166" y="156" type="curve"/>
      <point x="172" y="150"/>
      <point x="185" y="149"/>
      <point x="216" y="149" type="curve" smooth="yes"/>
      <point x="381" y="149"/>
      <point x="489" y="243"/>
      <point x="489" y="356" type="curve" smooth="yes"/>
      <point x="489" y="453"/>
      <point x="415" y="511"/>
      <point x="263" y="511" type="curve" smooth="yes"/>
      <point x="186" y="511" type="line"/>
      <point x="192" y="584"/>
      <point x="196" y="622"/>
      <point x="196" y="626" type="curve" smooth="yes"/>
      <point x="196" y="644"/>
      <point x="166" y="652"/>
      <point x="143" y="652" type="curve" smooth="yes"/>
      <point x="134" y="652"/>
      <point x="133" y="650"/>
      <point x="133" y="645" type="curve" smooth="yes"/>
      <point x="130" y="537"/>
      <point x="98" y="26"/>
      <point x="98" y="14" type="curve" smooth="yes"/>
      <point x="98" y="-4"/>
      <point x="128" y="-13"/>
    </contour>
    <contour>
      <point x="166" y="183" type="curve"/>
      <point x="172" y="322"/>
      <point x="178" y="426"/>
      <point x="182" y="470" type="curve"/>
      <point x="198" y="471"/>
      <point x="221" y="474"/>
      <point x="249" y="474" type="curve" smooth="yes"/>
      <point x="390" y="474"/>
      <point x="432" y="418"/>
      <point x="432" y="345" type="curve" smooth="yes"/>
      <point x="432" y="300"/>
      <point x="416" y="268"/>
      <point x="390" y="242" type="curve" smooth="yes"/>
      <point x="322" y="174"/>
      <point x="189" y="174"/>
    </contour>
  </outline>
</glyph>
<glyph name="germandbls" format="2">
  <advance width="543"/>
  <unicode hex="00DF"/>
  <outline>
    <contour>
      <point x="-11" y="-244" type="curve" smooth="yes"/>
      <point x="21" y="-244"/>
      <point x="64" y="-225"/>
      <point x="101" y="-190" type="curve" smooth="yes"/>
      <point x="139" y="-154"/>
      <point x="166" y="-99"/>
      <point x="166" y="-27" type="curve" smooth="yes"/>
      <point x="166" y="554" type="line" smooth="yes"/>
      <point x="166" y="673"/>
      <point x="205" y="707"/>
      <point x="255" y="707" type="curve" smooth="yes"/>
      <point x="343" y="707"/>
      <point x="450" y="645"/>
      <point x="450" y="599" type="curve" smooth="yes"/>
      <point x="450" y="570"/>
      <point x="442" y="544"/>
      <point x="330" y="490" type="curve" smooth="yes"/>
      <point x="261" y="457"/>
      <point x="244" y="442"/>
      <point x="244" y="419" type="curve" smooth="yes"/>
      <point x="244" y="389"/>
      <point x="272" y="360"/>
      <point x="330" y="308" type="curve" smooth="yes"/>
      <point x="357" y="284"/>
      <point x="463" y="205"/>
      <point x="463" y="124" type="curve" smooth="yes"/>
      <point x="463" y="71"/>
      <point x="429" y="28"/>
      <point x="370" y="28" type="curve" smooth="yes"/>
      <point x="306" y="28"/>
      <point x="272" y="73"/>
      <point x="263" y="73" type="curve" smooth="yes"/>
      <point x="254" y="73"/>
      <point x="247" y="52"/>
      <point x="247" y="39" type="curve" smooth="yes"/>
      <point x="247" y="29"/>
      <point x="248" y="26"/>
      <point x="257" y="19" type="curve" smooth="yes"/>
      <point x="276" y="3"/>
      <point x="320" y="-13"/>
      <point x="356" y="-13" type="curve" smooth="yes"/>
      <point x="456" y="-13"/>
      <point x="513" y="64"/>
      <point x="513" y="145" type="curve" smooth="yes"/>
      <point x="513" y="205"/>
      <point x="494" y="238"/>
      <point x="452" y="280" type="curve" smooth="yes"/>
      <point x="392" y="340"/>
      <point x="315" y="390"/>
      <point x="315" y="418" type="curve" smooth="yes"/>
      <point x="315" y="434"/>
      <point x="327" y="445"/>
      <point x="364" y="463" type="curve" smooth="yes"/>
      <point x="484" y="521"/>
      <point x="500" y="544"/>
      <point x="500" y="596" type="curve" smooth="yes"/>
      <point x="500" y="632"/>
      <point x="471" y="668"/>
      <point x="428" y="701" type="curve" smooth="yes"/>
      <point x="377" y="740"/>
      <point x="321" y="756"/>
      <point x="278" y="756" type="curve" smooth="yes"/>
      <point x="238" y="756"/>
      <point x="199" y="736"/>
      <point x="164" y="703" type="curve" smooth="yes"/>
      <point x="121" y="662"/>
      <point x="106" y="605"/>
      <point x="106" y="518" type="curve" smooth="yes"/>
      <point x="106" y="41" type="line" smooth="yes"/>
      <point x="106" y="-60"/>
      <point x="101" y="-119"/>
      <point x="83" y="-151" type="curve" smooth="yes"/>
      <point x="63" y="-186"/>
      <point x="26" y="-192"/>
      <point x="-3" y="-192" type="curve" smooth="yes"/>
      <point x="-61" y="-192"/>
      <point x="-104" y="-177"/>
      <point x="-111" y="-177" type="curve" smooth="yes"/>
      <point x="-118" y="-177"/>
      <point x="-121" y="-186"/>
      <point x="-121" y="-199" type="curve" smooth="yes"/>
      <point x="-121" y="-209"/>
      <point x="-117" y="-221"/>
      <point x="-111" y="-224" type="curve" smooth="yes"/>
      <point x="-96" y="-232"/>
      <point x="-49" y="-244"/>
    </contour>
  </outline>
</glyph>
<glyph name="idieresis" format="2">
  <advance width="312"/>
  <unicode hex="00EF"/>
  <anchor x="156" y="0" name="bottom"/>
  <anchor x="281" y="10" name="ogonek"/>
  <anchor x="174" y="524" name="top"/>
  <outline>
    <contour>
      <point x="158" y="-13" type="curve" smooth="yes"/>
      <point x="200" y="-13"/>
      <point x="285" y="88"/>
      <point x="318" y="131" type="curve" smooth="yes"/>
      <point x="320" y="133"/>
      <point x="321" y="137"/>
      <point x="321" y="141" type="curve" smooth="yes"/>
      <point x="321" y="154"/>
      <point x="311" y="170"/>
      <point x="307" y="170" type="curve" smooth="yes"/>
      <point x="304" y="170"/>
      <point x="303" y="167"/>
      <point x="300" y="164" type="curve"/>
      <point x="279" y="136"/>
      <point x="197" y="41"/>
      <point x="178" y="41" type="curve" smooth="yes"/>
      <point x="166" y="41"/>
      <point x="162" y="48"/>
      <point x="162" y="89" type="curve" smooth="yes"/>
      <point x="162" y="164"/>
      <point x="187" y="451"/>
      <point x="187" y="497" type="curve" smooth="yes"/>
      <point x="187" y="515"/>
      <point x="160" y="524"/>
      <point x="138" y="524" type="curve" smooth="yes"/>
      <point x="131" y="524"/>
      <point x="130" y="521"/>
      <point x="130" y="516" type="curve" smooth="yes"/>
      <point x="130" y="447"/>
      <point x="109" y="191"/>
      <point x="107" y="63" type="curve" smooth="yes"/>
      <point x="107" y="40"/>
      <point x="106" y="26"/>
      <point x="109" y="20" type="curve" smooth="yes"/>
      <point x="114" y="9"/>
      <point x="147" y="-13"/>
    </contour>
    <contour>
      <point x="86" y="664" type="curve" smooth="yes"/>
      <point x="106" y="664"/>
      <point x="125" y="689"/>
      <point x="125" y="710" type="curve" smooth="yes"/>
      <point x="125" y="744"/>
      <point x="111" y="756"/>
      <point x="96" y="756" type="curve" smooth="yes"/>
      <point x="75" y="756"/>
      <point x="52" y="732"/>
      <point x="52" y="699" type="curve" smooth="yes"/>
      <point x="52" y="675"/>
      <point x="66" y="664"/>
    </contour>
    <contour>
      <point x="266" y="664" type="curve" smooth="yes"/>
      <point x="246" y="664"/>
      <point x="232" y="675"/>
      <point x="232" y="699" type="curve" smooth="yes"/>
      <point x="232" y="732"/>
      <point x="255" y="756"/>
      <point x="276" y="756" type="curve" smooth="yes"/>
      <point x="291" y="756"/>
      <point x="305" y="744"/>
      <point x="305" y="710" type="curve" smooth="yes"/>
      <point x="305" y="689"/>
      <point x="286" y="664"/>
    </contour>
  </outline>
</glyph>
<glyph name="eth" format="2">
  <advance width="562"/>
  <unicode hex="00F0"/>
  <outline>
    <contour>
      <point x="262" y="-13" type="curve" smooth="yes"/>
      <point x="419" y="-13"/>
      <point x="499" y="105"/>
      <point x="499" y="272" type="curve" smooth="yes"/>
      <point x="499" y="428"/>
      <point x="453" y="522"/>
      <point x="319" y="644" type="curve"/>
      <point x="353" y="663"/>
      <point x="416" y="691"/>
      <point x="446" y="707" type="curve" smooth="yes"/>
      <point x="456" y="712"/>
      <point x="458" y="716"/>
      <point x="458" y="723" type="curve" smooth="yes"/>
      <point x="458" y="736"/>
      <point x="451" y="756"/>
      <point x="445" y="756" type="curve" smooth="yes"/>
      <point x="441" y="756"/>
      <point x="434" y="752"/>
      <point x="423" y="745" type="curve" smooth="yes"/>
      <point x="403" y="732"/>
      <point x="318" y="685"/>
      <point x="288" y="668" type="curve"/>
      <point x="247" y="702"/>
      <point x="199" y="732"/>
      <point x="171" y="749" type="curve" smooth="yes"/>
      <point x="161" y="755"/>
      <point x="159" y="756"/>
      <point x="155" y="756" type="curve" smooth="yes"/>
      <point x="136" y="756"/>
      <point x="101" y="744"/>
      <point x="101" y="734" type="curve" smooth="yes"/>
      <point x="101" y="732"/>
      <point x="103" y="731"/>
      <point x="111" y="727" type="curve" smooth="yes"/>
      <point x="156" y="705"/>
      <point x="204" y="671"/>
      <point x="237" y="646" type="curve"/>
      <point x="202" y="627"/>
      <point x="153" y="605"/>
      <point x="126" y="591" type="curve" smooth="yes"/>
      <point x="116" y="586"/>
      <point x="114" y="582"/>
      <point x="114" y="575" type="curve" smooth="yes"/>
      <point x="114" y="567"/>
      <point x="121" y="548"/>
      <point x="127" y="548" type="curve" smooth="yes"/>
      <point x="131" y="548"/>
      <point x="138" y="551"/>
      <point x="149" y="558" type="curve" smooth="yes"/>
      <point x="166" y="569"/>
      <point x="231" y="601"/>
      <point x="270" y="622" type="curve"/>
      <point x="312" y="592"/>
      <point x="355" y="541"/>
      <point x="374" y="515" type="curve"/>
      <point x="349" y="523"/>
      <point x="317" y="524"/>
      <point x="300" y="524" type="curve" smooth="yes"/>
      <point x="171" y="524"/>
      <point x="63" y="451"/>
      <point x="63" y="219" type="curve" smooth="yes"/>
      <point x="63" y="40"/>
      <point x="146" y="-13"/>
    </contour>
    <contour>
      <point x="267" y="23" type="curve" smooth="yes"/>
      <point x="166" y="23"/>
      <point x="123" y="86"/>
      <point x="123" y="224" type="curve" smooth="yes"/>
      <point x="123" y="395"/>
      <point x="184" y="489"/>
      <point x="293" y="489" type="curve" smooth="yes"/>
      <point x="394" y="489"/>
      <point x="437" y="426"/>
      <point x="437" y="287" type="curve" smooth="yes"/>
      <point x="437" y="116"/>
      <point x="377" y="23"/>
    </contour>
  </outline>
</glyph>
<glyph name="divide" format="2">
  <advance width="487"/>
  <unicode hex="00F7"/>
  <outline>
    <contour>
      <point x="42" y="302" type="curve" smooth="yes"/>
      <point x="428" y="302" type="line" smooth="yes"/>
      <point x="444" y="302"/>
      <point x="451" y="332"/>
      <point x="451" y="351" type="curve" smooth="yes"/>
      <point x="451" y="359"/>
      <point x="448" y="360"/>
      <point x="443" y="360" type="curve" smooth="yes"/>
      <point x="58" y="360" type="line" smooth="yes"/>
      <point x="41" y="360"/>
      <point x="35" y="331"/>
      <point x="35" y="311" type="curve" smooth="yes"/>
      <point x="35" y="304"/>
      <point x="37" y="302"/>
    </contour>
    <contour>
      <point x="207" y="86" type="curve" smooth="yes"/>
      <point x="238" y="86"/>
      <point x="257" y="106"/>
      <point x="257" y="128" type="curve" smooth="yes"/>
      <point x="257" y="164"/>
      <point x="240" y="181"/>
      <point x="225" y="181" type="curve" smooth="yes"/>
      <point x="206" y="181"/>
      <point x="173" y="157"/>
      <point x="173" y="122" type="curve" smooth="yes"/>
      <point x="173" y="97"/>
      <point x="184" y="86"/>
    </contour>
    <contour>
      <point x="260" y="480" type="curve" smooth="yes"/>
      <point x="279" y="480"/>
      <point x="312" y="504"/>
      <point x="312" y="538" type="curve" smooth="yes"/>
      <point x="312" y="563"/>
      <point x="302" y="576"/>
      <point x="278" y="576" type="curve" smooth="yes"/>
      <point x="248" y="576"/>
      <point x="229" y="555"/>
      <point x="229" y="533" type="curve" smooth="yes"/>
      <point x="229" y="496"/>
      <point x="245" y="480"/>
    </contour>
  </outline>
</glyph>
<glyph name="oslash" format="2">
  <advance width="572"/>
  <unicode hex="00F8"/>
  <anchor x="306" y="524" name="top"/>
  <outline>
    <contour>
      <point x="65" y="-90" type="curve" smooth="yes"/>
      <point x="70" y="-90"/>
      <point x="74" y="-86"/>
      <point x="78" y="-79" type="curve" smooth="yes"/>
      <point x="146" y="25" type="line"/>
      <point x="171" y="0"/>
      <point x="222" y="-13"/>
      <point x="267" y="-13" type="curve" smooth="yes"/>
      <point x="394" y="-13"/>
      <point x="504" y="60"/>
      <point x="504" y="292" type="curve" smooth="yes"/>
      <point x="504" y="372"/>
      <point x="485" y="419"/>
      <point x="456" y="463" type="curve"/>
      <point x="525" y="560" type="line" smooth="yes"/>
      <point x="529" y="566"/>
      <point x="530" y="569"/>
      <point x="530" y="573" type="curve" smooth="yes"/>
      <point x="530" y="584"/>
      <point x="517" y="601"/>
      <point x="507" y="601" type="curve" smooth="yes"/>
      <point x="502" y="601"/>
      <point x="498" y="597"/>
      <point x="494" y="590" type="curve" smooth="yes"/>
      <point x="426" y="486" type="line"/>
      <point x="400" y="511"/>
      <point x="350" y="524"/>
      <point x="305" y="524" type="curve" smooth="yes"/>
      <point x="178" y="524"/>
      <point x="68" y="451"/>
      <point x="68" y="219" type="curve" smooth="yes"/>
      <point x="68" y="140"/>
      <point x="87" y="92"/>
      <point x="116" y="48" type="curve"/>
      <point x="47" y="-49" type="line" smooth="yes"/>
      <point x="43" y="-55"/>
      <point x="42" y="-58"/>
      <point x="42" y="-62" type="curve" smooth="yes"/>
      <point x="42" y="-73"/>
      <point x="55" y="-90"/>
    </contour>
    <contour>
      <point x="272" y="22" type="curve" smooth="yes"/>
      <point x="229" y="22"/>
      <point x="196" y="34"/>
      <point x="174" y="58" type="curve"/>
      <point x="218" y="123"/>
      <point x="345" y="314"/>
      <point x="420" y="420" type="curve"/>
      <point x="435" y="387"/>
      <point x="442" y="343"/>
      <point x="442" y="287" type="curve" smooth="yes"/>
      <point x="442" y="116"/>
      <point x="382" y="22"/>
    </contour>
    <contour>
      <point x="151" y="91" type="curve"/>
      <point x="135" y="123"/>
      <point x="128" y="168"/>
      <point x="128" y="224" type="curve" smooth="yes"/>
      <point x="128" y="395"/>
      <point x="189" y="489"/>
      <point x="298" y="489" type="curve" smooth="yes"/>
      <point x="341" y="489"/>
      <point x="373" y="478"/>
      <point x="396" y="454" type="curve"/>
      <point x="341" y="368"/>
      <point x="211" y="174"/>
    </contour>
  </outline>
</glyph>
<glyph name="thorn" format="2">
  <advance width="582"/>
  <unicode hex="00FE"/>
  <outline>
    <contour>
      <point x="141" y="-244" type="curve" smooth="yes"/>
      <point x="149" y="-244"/>
      <point x="150" y="-242"/>
      <point x="150" y="-237" type="curve" smooth="yes"/>
      <point x="151" y="-169"/>
      <point x="152" y="-120"/>
      <point x="159" y="5" type="curve"/>
      <point x="222" y="-5"/>
      <point x="287" y="-13"/>
      <point x="307" y="-13" type="curve" smooth="yes"/>
      <point x="374" y="-13"/>
      <point x="434" y="28"/>
      <point x="480" y="94" type="curve" smooth="yes"/>
      <point x="512" y="140"/>
      <point x="519" y="245"/>
      <point x="519" y="333" type="curve" smooth="yes"/>
      <point x="519" y="438"/>
      <point x="516" y="481"/>
      <point x="510" y="491" type="curve" smooth="yes"/>
      <point x="504" y="503"/>
      <point x="470" y="524"/>
      <point x="458" y="524" type="curve" smooth="yes"/>
      <point x="395" y="524"/>
      <point x="234" y="311"/>
      <point x="169" y="166" type="curve"/>
      <point x="175" y="242"/>
      <point x="208" y="690"/>
      <point x="208" y="729" type="curve" smooth="yes"/>
      <point x="208" y="747"/>
      <point x="181" y="756"/>
      <point x="159" y="756" type="curve" smooth="yes"/>
      <point x="152" y="756"/>
      <point x="151" y="753"/>
      <point x="151" y="748" type="curve" smooth="yes"/>
      <point x="151" y="730"/>
      <point x="126" y="300"/>
      <point x="110" y="52" type="curve"/>
      <point x="105" y="52"/>
      <point x="98" y="39"/>
      <point x="98" y="21" type="curve" smooth="yes"/>
      <point x="98" y="16"/>
      <point x="101" y="15"/>
      <point x="102" y="15" type="curve" smooth="yes"/>
      <point x="110" y="14" type="line"/>
      <point x="101" y="-128"/>
      <point x="94" y="-196"/>
      <point x="94" y="-218" type="curve" smooth="yes"/>
      <point x="94" y="-236"/>
      <point x="122" y="-244"/>
    </contour>
    <contour>
      <point x="343" y="30" type="curve" smooth="yes"/>
      <point x="305" y="30"/>
      <point x="248" y="35"/>
      <point x="164" y="52" type="curve"/>
      <point x="199" y="193"/>
      <point x="409" y="470"/>
      <point x="442" y="470" type="curve" smooth="yes"/>
      <point x="462" y="470"/>
      <point x="463" y="438"/>
      <point x="463" y="341" type="curve" smooth="yes"/>
      <point x="463" y="142"/>
      <point x="417" y="30"/>
    </contour>
  </outline>
</glyph>
<glyph name="aogonek" format="2">
  <advance width="645"/>
  <unicode hex="0105"/>
  <outline>
    <contour>
      <point x="142" y="-13" type="curve" smooth="yes"/>
      <point x="205" y="-13"/>
      <point x="379" y="210"/>
      <point x="451" y="355" type="curve" smooth="yes"/>
      <point x="445" y="262"/>
      <point x="438" y="121"/>
      <point x="438" y="63" type="curve" smooth="yes"/>
      <point x="438" y="40"/>
      <point x="438" y="26"/>
      <point x="441" y="20" type="curve" smooth="yes"/>
      <point x="446" y="9"/>
      <point x="480" y="-13"/>
      <point x="491" y="-13" type="curve" smooth="yes"/>
      <point x="533" y="-13"/>
      <point x="618" y="88"/>
      <point x="651" y="131" type="curve" smooth="yes"/>
      <point x="653" y="133"/>
      <point x="654" y="137"/>
      <point x="654" y="141" type="curve" smooth="yes"/>
      <point x="654" y="154"/>
      <point x="644" y="170"/>
      <point x="640" y="170" type="curve" smooth="yes"/>
      <point x="637" y="170"/>
      <point x="636" y="167"/>
      <point x="633" y="164" type="curve" smooth="yes"/>
      <point x="612" y="136"/>
      <point x="530" y="41"/>
      <point x="511" y="41" type="curve" smooth="yes"/>
      <point x="499" y="41"/>
      <point x="495" y="48"/>
      <point x="495" y="89" type="curve" smooth="yes"/>
      <point x="495" y="237"/>
      <point x="511" y="451"/>
      <point x="511" y="460" type="curve" smooth="yes"/>
      <point x="516" y="460"/>
      <point x="523" y="472"/>
      <point x="523" y="490" type="curve" smooth="yes"/>
      <point x="523" y="495"/>
      <point x="520" y="496"/>
      <point x="519" y="496" type="curve" smooth="yes"/>
      <point x="442" y="513"/>
      <point x="338" y="524"/>
      <point x="320" y="524" type="curve" smooth="yes"/>
      <point x="253" y="524"/>
      <point x="191" y="484"/>
      <point x="142" y="417" type="curve" smooth="yes"/>
      <point x="91" y="348"/>
      <point x="88" y="141"/>
      <point x="88" y="63" type="curve" smooth="yes"/>
      <point x="88" y="40"/>
      <point x="89" y="26"/>
      <point x="92" y="20" type="curve" smooth="yes"/>
      <point x="97" y="9"/>
      <point x="131" y="-13"/>
    </contour>
    <contour>
      <point x="161" y="41" type="curve" smooth="yes"/>
      <point x="149" y="41"/>
      <point x="145" y="48"/>
      <point x="145" y="89" type="curve" smooth="yes"/>
      <point x="145" y="339"/>
      <point x="199" y="481"/>
      <point x="282" y="481" type="curve" smooth="yes"/>
      <point x="320" y="481"/>
      <point x="377" y="476"/>
      <point x="460" y="460" type="curve" smooth="yes"/>
      <point x="418" y="319"/>
      <point x="194" y="41"/>
    </contour>
    <contour>
      <point x="496" y="-188" type="curve" smooth="yes"/>
      <point x="538" y="-188"/>
      <point x="603" y="-137"/>
      <point x="636" y="-94" type="curve" smooth="yes"/>
      <point x="638" y="-92"/>
      <point x="639" y="-88"/>
      <point x="639" y="-84" type="curve" smooth="yes"/>
      <point x="639" y="-71"/>
      <point x="629" y="-55"/>
      <point x="625" y="-55" type="curve" smooth="yes"/>
      <point x="622" y="-55"/>
      <point x="621" y="-58"/>
      <point x="618" y="-61" type="curve" smooth="yes"/>
      <point x="597" y="-89"/>
      <point x="535" y="-134"/>
      <point x="516" y="-134" type="curve" smooth="yes"/>
      <point x="504" y="-134"/>
      <point x="500" y="-127"/>
      <point x="500" y="-99" type="curve" smooth="yes"/>
      <point x="500" y="-40"/>
      <point x="603" y="69"/>
      <point x="603" y="78" type="curve" smooth="yes"/>
      <point x="509" y="32"/>
      <point x="443" y="-54"/>
      <point x="443" y="-112" type="curve" smooth="yes"/>
      <point x="443" y="-135"/>
      <point x="443" y="-149"/>
      <point x="446" y="-155" type="curve" smooth="yes"/>
      <point x="451" y="-166"/>
      <point x="485" y="-188"/>
    </contour>
  </outline>
</glyph>
<glyph name="eogonek" format="2">
  <advance width="462"/>
  <unicode hex="0119"/>
  <outline>
    <contour>
      <point x="237" y="-13" type="curve" smooth="yes"/>
      <point x="311" y="-13"/>
      <point x="368" y="16"/>
      <point x="411" y="62" type="curve" smooth="yes"/>
      <point x="417" y="68"/>
      <point x="418" y="71"/>
      <point x="418" y="77" type="curve" smooth="yes"/>
      <point x="418" y="89"/>
      <point x="412" y="103"/>
      <point x="406" y="103" type="curve" smooth="yes"/>
      <point x="402" y="103"/>
      <point x="400" y="100"/>
      <point x="387" y="88" type="curve" smooth="yes"/>
      <point x="366" y="69"/>
      <point x="314" y="30"/>
      <point x="253" y="30" type="curve" smooth="yes"/>
      <point x="162" y="30"/>
      <point x="123" y="112"/>
      <point x="123" y="227" type="curve" smooth="yes"/>
      <point x="123" y="246"/>
      <point x="123" y="275"/>
      <point x="125" y="282" type="curve"/>
      <point x="151" y="276"/>
      <point x="191" y="271"/>
      <point x="233" y="271" type="curve" smooth="yes"/>
      <point x="315" y="271"/>
      <point x="416" y="311"/>
      <point x="416" y="413" type="curve" smooth="yes"/>
      <point x="416" y="472"/>
      <point x="378" y="524"/>
      <point x="280" y="524" type="curve" smooth="yes"/>
      <point x="168" y="524"/>
      <point x="63" y="450"/>
      <point x="63" y="222" type="curve" smooth="yes"/>
      <point x="63" y="53"/>
      <point x="139" y="-13"/>
    </contour>
    <contour>
      <point x="231" y="310" type="curve" smooth="yes"/>
      <point x="185" y="310"/>
      <point x="141" y="325"/>
      <point x="136" y="333" type="curve"/>
      <point x="155" y="441"/>
      <point x="208" y="492"/>
      <point x="267" y="492" type="curve" smooth="yes"/>
      <point x="326" y="492"/>
      <point x="351" y="456"/>
      <point x="351" y="416" type="curve" smooth="yes"/>
      <point x="351" y="348"/>
      <point x="308" y="310"/>
    </contour>
    <contour>
      <point x="293" y="-188" type="curve" smooth="yes"/>
      <point x="335" y="-188"/>
      <point x="370" y="-157"/>
      <point x="403" y="-114" type="curve" smooth="yes"/>
      <point x="405" y="-112"/>
      <point x="406" y="-108"/>
      <point x="406" y="-104" type="curve" smooth="yes"/>
      <point x="406" y="-91"/>
      <point x="396" y="-75"/>
      <point x="392" y="-75" type="curve" smooth="yes"/>
      <point x="389" y="-75"/>
      <point x="388" y="-78"/>
      <point x="385" y="-81" type="curve"/>
      <point x="364" y="-109"/>
      <point x="332" y="-134"/>
      <point x="313" y="-134" type="curve" smooth="yes"/>
      <point x="301" y="-134"/>
      <point x="297" y="-127"/>
      <point x="297" y="-99" type="curve" smooth="yes"/>
      <point x="297" y="-28"/>
      <point x="411" y="53"/>
      <point x="411" y="62" type="curve"/>
      <point x="317" y="16"/>
      <point x="240" y="-54"/>
      <point x="240" y="-112" type="curve" smooth="yes"/>
      <point x="240" y="-135"/>
      <point x="240" y="-149"/>
      <point x="243" y="-155" type="curve" smooth="yes"/>
      <point x="248" y="-166"/>
      <point x="282" y="-188"/>
    </contour>
  </outline>
</glyph>
<glyph name="Hbar" format="2">
  <advance width="818"/>
  <unicode hex="0126"/>
  <anchor x="391" y="0" name="bottom"/>
  <anchor x="411" y="326" name="center"/>
  <anchor x="426" y="652" name="top"/>
  <anchor x="35" y="652" name="topleft"/>
  <outline>
    <contour>
      <point x="164" y="-13" type="curve" smooth="yes"/>
      <point x="172" y="-13"/>
      <point x="174" y="-10"/>
      <point x="174" y="-5" type="curve" smooth="yes"/>
      <point x="174" y="107"/>
      <point x="177" y="214"/>
      <point x="184" y="309" type="curve"/>
      <point x="262" y="313"/>
      <point x="340" y="315"/>
      <point x="417" y="315" type="curve" smooth="yes"/>
      <point x="489" y="315"/>
      <point x="561" y="313"/>
      <point x="631" y="310" type="curve"/>
      <point x="622" y="160"/>
      <point x="611" y="20"/>
      <point x="611" y="14" type="curve" smooth="yes"/>
      <point x="611" y="-4"/>
      <point x="641" y="-13"/>
      <point x="664" y="-13" type="curve" smooth="yes"/>
      <point x="672" y="-13"/>
      <point x="675" y="-10"/>
      <point x="675" y="-5" type="curve" smooth="yes"/>
      <point x="675" y="317"/>
      <point x="710" y="612"/>
      <point x="710" y="626" type="curve" smooth="yes"/>
      <point x="710" y="644"/>
      <point x="679" y="652"/>
      <point x="656" y="652" type="curve" smooth="yes"/>
      <point x="647" y="652"/>
      <point x="646" y="650"/>
      <point x="646" y="645" type="curve" smooth="yes"/>
      <point x="645" y="597"/>
      <point x="640" y="480"/>
      <point x="633" y="353" type="curve"/>
      <point x="186" y="353" type="line"/>
      <point x="196" y="509"/>
      <point x="209" y="618"/>
      <point x="209" y="626" type="curve" smooth="yes"/>
      <point x="209" y="644"/>
      <point x="179" y="652"/>
      <point x="156" y="652" type="curve" smooth="yes"/>
      <point x="147" y="652"/>
      <point x="146" y="650"/>
      <point x="146" y="645" type="curve" smooth="yes"/>
      <point x="143" y="537"/>
      <point x="111" y="26"/>
      <point x="111" y="14" type="curve" smooth="yes"/>
      <point x="111" y="-4"/>
      <point x="141" y="-13"/>
    </contour>
    <contour>
      <point x="62" y="455" type="curve" smooth="yes"/>
      <point x="64" y="455"/>
      <point x="241" y="458"/>
      <point x="417" y="459" type="curve" smooth="yes"/>
      <point x="590" y="459"/>
      <point x="761" y="456"/>
      <point x="763" y="456" type="curve" smooth="yes"/>
      <point x="772" y="456"/>
      <point x="777" y="475"/>
      <point x="777" y="489" type="curve" smooth="yes"/>
      <point x="777" y="495"/>
      <point x="774" y="499"/>
      <point x="769" y="499" type="curve" smooth="yes"/>
      <point x="70" y="499" type="line" smooth="yes"/>
      <point x="61" y="499"/>
      <point x="55" y="483"/>
      <point x="55" y="465" type="curve" smooth="yes"/>
      <point x="55" y="459"/>
      <point x="57" y="455"/>
    </contour>
  </outline>
</glyph>
<glyph name="iogonek" format="2">
  <advance width="312"/>
  <unicode hex="012F"/>
  <outline>
    <contour>
      <point x="158" y="-13" type="curve" smooth="yes"/>
      <point x="200" y="-13"/>
      <point x="285" y="88"/>
      <point x="318" y="131" type="curve" smooth="yes"/>
      <point x="320" y="133"/>
      <point x="321" y="137"/>
      <point x="321" y="141" type="curve" smooth="yes"/>
      <point x="321" y="154"/>
      <point x="311" y="170"/>
      <point x="307" y="170" type="curve" smooth="yes"/>
      <point x="304" y="170"/>
      <point x="303" y="167"/>
      <point x="300" y="164" type="curve"/>
      <point x="279" y="136"/>
      <point x="197" y="41"/>
      <point x="178" y="41" type="curve" smooth="yes"/>
      <point x="166" y="41"/>
      <point x="162" y="48"/>
      <point x="162" y="89" type="curve" smooth="yes"/>
      <point x="162" y="164"/>
      <point x="187" y="451"/>
      <point x="187" y="497" type="curve" smooth="yes"/>
      <point x="187" y="515"/>
      <point x="160" y="524"/>
      <point x="138" y="524" type="curve" smooth="yes"/>
      <point x="131" y="524"/>
      <point x="130" y="521"/>
      <point x="130" y="516" type="curve" smooth="yes"/>
      <point x="130" y="447"/>
      <point x="109" y="191"/>
      <point x="107" y="63" type="curve" smooth="yes"/>
      <point x="107" y="40"/>
      <point x="106" y="26"/>
      <point x="109" y="20" type="curve" smooth="yes"/>
      <point x="114" y="9"/>
      <point x="147" y="-13"/>
    </contour>
    <contour>
      <point x="171" y="664" type="curve" smooth="yes"/>
      <point x="191" y="664"/>
      <point x="210" y="689"/>
      <point x="210" y="710" type="curve" smooth="yes"/>
      <point x="210" y="744"/>
      <point x="196" y="756"/>
      <point x="181" y="756" type="curve" smooth="yes"/>
      <point x="160" y="756"/>
      <point x="137" y="732"/>
      <point x="137" y="699" type="curve" smooth="yes"/>
      <point x="137" y="675"/>
      <point x="151" y="664"/>
    </contour>
    <contour>
      <point x="140" y="-188" type="curve" smooth="yes"/>
      <point x="182" y="-188"/>
      <point x="217" y="-157"/>
      <point x="250" y="-114" type="curve" smooth="yes"/>
      <point x="252" y="-112"/>
      <point x="253" y="-108"/>
      <point x="253" y="-104" type="curve" smooth="yes"/>
      <point x="253" y="-91"/>
      <point x="243" y="-75"/>
      <point x="239" y="-75" type="curve" smooth="yes"/>
      <point x="236" y="-75"/>
      <point x="235" y="-78"/>
      <point x="232" y="-81" type="curve"/>
      <point x="211" y="-109"/>
      <point x="179" y="-134"/>
      <point x="160" y="-134" type="curve" smooth="yes"/>
      <point x="148" y="-134"/>
      <point x="144" y="-127"/>
      <point x="144" y="-99" type="curve" smooth="yes"/>
      <point x="144" y="-28"/>
      <point x="258" y="55"/>
      <point x="258" y="64" type="curve"/>
      <point x="164" y="18"/>
      <point x="87" y="-54"/>
      <point x="87" y="-112" type="curve" smooth="yes"/>
      <point x="87" y="-135"/>
      <point x="87" y="-149"/>
      <point x="90" y="-155" type="curve" smooth="yes"/>
      <point x="95" y="-166"/>
      <point x="129" y="-188"/>
    </contour>
  </outline>
</glyph>
<glyph name="kgreenlandic" format="2">
  <advance width="559"/>
  <unicode hex="0138"/>
  <outline>
    <contour>
      <point x="144" y="-13" type="curve" smooth="yes"/>
      <point x="151" y="-13"/>
      <point x="154" y="-10"/>
      <point x="154" y="-5" type="curve" smooth="yes"/>
      <point x="154" y="36"/>
      <point x="165" y="79"/>
      <point x="178" y="122" type="curve" smooth="yes"/>
      <point x="232" y="301"/>
      <point x="377" y="480"/>
      <point x="447" y="480" type="curve" smooth="yes"/>
      <point x="470" y="480"/>
      <point x="487" y="456"/>
      <point x="487" y="436" type="curve" smooth="yes"/>
      <point x="487" y="363"/>
      <point x="365" y="275"/>
      <point x="229" y="233" type="curve"/>
      <point x="320" y="171"/>
      <point x="463" y="25"/>
      <point x="484" y="0" type="curve" smooth="yes"/>
      <point x="492" y="-9"/>
      <point x="496" y="-13"/>
      <point x="499" y="-13" type="curve" smooth="yes"/>
      <point x="503" y="-13"/>
      <point x="507" y="-8"/>
      <point x="510" y="0" type="curve" smooth="yes"/>
      <point x="513" y="9"/>
      <point x="515" y="21"/>
      <point x="515" y="35" type="curve" smooth="yes"/>
      <point x="515" y="45"/>
      <point x="508" y="57"/>
      <point x="496" y="71" type="curve" smooth="yes"/>
      <point x="471" y="102"/>
      <point x="376" y="188"/>
      <point x="326" y="229" type="curve"/>
      <point x="412" y="269"/>
      <point x="535" y="336"/>
      <point x="535" y="425" type="curve" smooth="yes"/>
      <point x="535" y="477"/>
      <point x="504" y="524"/>
      <point x="452" y="524" type="curve" smooth="yes"/>
      <point x="404" y="524"/>
      <point x="267" y="431"/>
      <point x="171" y="203" type="curve"/>
      <point x="171" y="236"/>
      <point x="189" y="451"/>
      <point x="189" y="497" type="curve" smooth="yes"/>
      <point x="189" y="515"/>
      <point x="161" y="524"/>
      <point x="140" y="524" type="curve" smooth="yes"/>
      <point x="132" y="524"/>
      <point x="131" y="521"/>
      <point x="131" y="516" type="curve" smooth="yes"/>
      <point x="131" y="385"/>
      <point x="104" y="18"/>
      <point x="104" y="14" type="curve" smooth="yes"/>
      <point x="104" y="-4"/>
      <point x="125" y="-13"/>
    </contour>
  </outline>
</glyph>
<glyph name="lslash" format="2">
  <advance width="312"/>
  <unicode hex="0142"/>
  <outline>
    <contour>
      <point x="159" y="-13" type="curve" smooth="yes"/>
      <point x="201" y="-13"/>
      <point x="286" y="88"/>
      <point x="319" y="131" type="curve" smooth="yes"/>
      <point x="321" y="133"/>
      <point x="322" y="137"/>
      <point x="322" y="141" type="curve" smooth="yes"/>
      <point x="322" y="154"/>
      <point x="312" y="170"/>
      <point x="308" y="170" type="curve" smooth="yes"/>
      <point x="305" y="170"/>
      <point x="304" y="167"/>
      <point x="301" y="164" type="curve"/>
      <point x="280" y="136"/>
      <point x="198" y="41"/>
      <point x="179" y="41" type="curve" smooth="yes"/>
      <point x="167" y="41"/>
      <point x="163" y="48"/>
      <point x="163" y="89" type="curve" smooth="yes"/>
      <point x="163" y="131"/>
      <point x="168" y="224"/>
      <point x="176" y="327" type="curve"/>
      <point x="222" y="369"/>
      <point x="277" y="420"/>
      <point x="286" y="431" type="curve" smooth="yes"/>
      <point x="292" y="438"/>
      <point x="295" y="446"/>
      <point x="295" y="455" type="curve" smooth="yes"/>
      <point x="295" y="469"/>
      <point x="288" y="494"/>
      <point x="280" y="494" type="curve" smooth="yes"/>
      <point x="276" y="494"/>
      <point x="229" y="437"/>
      <point x="179" y="387" type="curve"/>
      <point x="191" y="544"/>
      <point x="204" y="703"/>
      <point x="204" y="729" type="curve" smooth="yes"/>
      <point x="204" y="747"/>
      <point x="176" y="756"/>
      <point x="155" y="756" type="curve" smooth="yes"/>
      <point x="147" y="756"/>
      <point x="146" y="753"/>
      <point x="146" y="748" type="curve" smooth="yes"/>
      <point x="143" y="608"/>
      <point x="134" y="466"/>
      <point x="125" y="345" type="curve"/>
      <point x="75" y="298"/>
      <point x="31" y="257"/>
      <point x="23" y="248" type="curve" smooth="yes"/>
      <point x="17" y="241"/>
      <point x="14" y="233"/>
      <point x="14" y="224" type="curve" smooth="yes"/>
      <point x="14" y="210"/>
      <point x="21" y="185"/>
      <point x="29" y="185" type="curve" smooth="yes"/>
      <point x="33" y="185"/>
      <point x="50" y="208"/>
      <point x="121" y="283" type="curve"/>
      <point x="114" y="191"/>
      <point x="109" y="115"/>
      <point x="108" y="63" type="curve" smooth="yes"/>
      <point x="108" y="40"/>
      <point x="107" y="26"/>
      <point x="110" y="20" type="curve" smooth="yes"/>
      <point x="115" y="9"/>
      <point x="148" y="-13"/>
    </contour>
  </outline>
</glyph>
<glyph name="eng" format="2">
  <advance width="603"/>
  <unicode hex="014B"/>
  <anchor x="305" y="0" name="bottom"/>
  <anchor x="297" y="524" name="top"/>
  <outline>
    <contour>
      <point x="324" y="-245" type="curve" smooth="yes"/>
      <point x="356" y="-245"/>
      <point x="399" y="-226"/>
      <point x="436" y="-191" type="curve" smooth="yes"/>
      <point x="474" y="-155"/>
      <point x="498" y="-100"/>
      <point x="501" y="-28" type="curve" smooth="yes"/>
      <point x="507" y="109"/>
      <point x="512" y="245"/>
      <point x="518" y="382" type="curve" smooth="yes"/>
      <point x="520" y="413"/>
      <point x="525" y="475"/>
      <point x="517" y="491" type="curve" smooth="yes"/>
      <point x="512" y="503"/>
      <point x="479" y="524"/>
      <point x="468" y="524" type="curve" smooth="yes"/>
      <point x="408" y="524"/>
      <point x="226" y="286"/>
      <point x="165" y="141" type="curve"/>
      <point x="165" y="152"/>
      <point x="189" y="451"/>
      <point x="189" y="497" type="curve" smooth="yes"/>
      <point x="189" y="515"/>
      <point x="161" y="524"/>
      <point x="139" y="524" type="curve" smooth="yes"/>
      <point x="132" y="524"/>
      <point x="131" y="521"/>
      <point x="131" y="516" type="curve" smooth="yes"/>
      <point x="131" y="385"/>
      <point x="104" y="18"/>
      <point x="104" y="14" type="curve" smooth="yes"/>
      <point x="104" y="-4"/>
      <point x="125" y="-13"/>
      <point x="144" y="-13" type="curve" smooth="yes"/>
      <point x="151" y="-13"/>
      <point x="154" y="-10"/>
      <point x="154" y="-5" type="curve" smooth="yes"/>
      <point x="154" y="44"/>
      <point x="182" y="111"/>
      <point x="220" y="178" type="curve" smooth="yes"/>
      <point x="292" y="307"/>
      <point x="430" y="470"/>
      <point x="448" y="470" type="curve" smooth="yes"/>
      <point x="460" y="470"/>
      <point x="464" y="463"/>
      <point x="463" y="422" type="curve" smooth="yes"/>
      <point x="441" y="40" type="line" smooth="yes"/>
      <point x="435" y="-61"/>
      <point x="436" y="-120"/>
      <point x="418" y="-152" type="curve" smooth="yes"/>
      <point x="398" y="-187"/>
      <point x="361" y="-193"/>
      <point x="332" y="-193" type="curve" smooth="yes"/>
      <point x="274" y="-193"/>
      <point x="231" y="-178"/>
      <point x="224" y="-178" type="curve" smooth="yes"/>
      <point x="217" y="-178"/>
      <point x="214" y="-187"/>
      <point x="214" y="-200" type="curve" smooth="yes"/>
      <point x="214" y="-210"/>
      <point x="218" y="-222"/>
      <point x="224" y="-225" type="curve" smooth="yes"/>
      <point x="239" y="-233"/>
      <point x="286" y="-245"/>
    </contour>
  </outline>
</glyph>
<glyph name="oe" format="2">
  <advance width="838"/>
  <unicode hex="0153"/>
  <outline>
    <contour>
      <point x="265" y="-13" type="curve" smooth="yes"/>
      <point x="346" y="-13"/>
      <point x="416" y="28"/>
      <point x="456" y="105" type="curve"/>
      <point x="488" y="21"/>
      <point x="546" y="-13"/>
      <point x="613" y="-13" type="curve" smooth="yes"/>
      <point x="687" y="-13"/>
      <point x="744" y="16"/>
      <point x="786" y="62" type="curve" smooth="yes"/>
      <point x="792" y="69"/>
      <point x="794" y="71"/>
      <point x="794" y="77" type="curve" smooth="yes"/>
      <point x="794" y="89"/>
      <point x="788" y="103"/>
      <point x="781" y="103" type="curve" smooth="yes"/>
      <point x="778" y="103"/>
      <point x="775" y="101"/>
      <point x="762" y="88" type="curve" smooth="yes"/>
      <point x="742" y="69"/>
      <point x="689" y="30"/>
      <point x="629" y="30" type="curve" smooth="yes"/>
      <point x="538" y="30"/>
      <point x="499" y="112"/>
      <point x="499" y="227" type="curve" smooth="yes"/>
      <point x="499" y="246"/>
      <point x="499" y="275"/>
      <point x="500" y="282" type="curve"/>
      <point x="527" y="276"/>
      <point x="567" y="271"/>
      <point x="609" y="271" type="curve" smooth="yes"/>
      <point x="691" y="271"/>
      <point x="791" y="311"/>
      <point x="791" y="413" type="curve" smooth="yes"/>
      <point x="791" y="472"/>
      <point x="754" y="524"/>
      <point x="655" y="524" type="curve" smooth="yes"/>
      <point x="586" y="524"/>
      <point x="518" y="491"/>
      <point x="475" y="413" type="curve"/>
      <point x="443" y="490"/>
      <point x="382" y="524"/>
      <point x="303" y="524" type="curve" smooth="yes"/>
      <point x="176" y="524"/>
      <point x="66" y="451"/>
      <point x="66" y="219" type="curve" smooth="yes"/>
      <point x="66" y="40"/>
      <point x="150" y="-13"/>
    </contour>
    <contour>
      <point x="270" y="23" type="curve" smooth="yes"/>
      <point x="169" y="23"/>
      <point x="126" y="86"/>
      <point x="126" y="224" type="curve" smooth="yes"/>
      <point x="126" y="395"/>
      <point x="187" y="489"/>
      <point x="296" y="489" type="curve" smooth="yes"/>
      <point x="397" y="489"/>
      <point x="440" y="426"/>
      <point x="440" y="287" type="curve" smooth="yes"/>
      <point x="440" y="116"/>
      <point x="380" y="23"/>
    </contour>
    <contour>
      <point x="606" y="310" type="curve" smooth="yes"/>
      <point x="560" y="310"/>
      <point x="516" y="325"/>
      <point x="511" y="333" type="curve"/>
      <point x="530" y="441"/>
      <point x="583" y="492"/>
      <point x="642" y="492" type="curve" smooth="yes"/>
      <point x="701" y="492"/>
      <point x="726" y="456"/>
      <point x="726" y="416" type="curve" smooth="yes"/>
      <point x="726" y="348"/>
      <point x="683" y="310"/>
    </contour>
  </outline>
</glyph>
<glyph name="Oopen" format="2">
  <advance width="654"/>
  <unicode hex="0186"/>
  <anchor x="229" y="0" name="bottom"/>
  <anchor x="268" y="652" name="top"/>
  <outline>
    <contour>
      <point x="258" y="0" type="curve" smooth="yes"/>
      <point x="493" y="0"/>
      <point x="588" y="176"/>
      <point x="594" y="340" type="curve" smooth="yes"/>
      <point x="602" y="594"/>
      <point x="425" y="665"/>
      <point x="268" y="665" type="curve" smooth="yes"/>
      <point x="173" y="665"/>
      <point x="87" y="642"/>
      <point x="61" y="626" type="curve" smooth="yes"/>
      <point x="51" y="620"/>
      <point x="48" y="602"/>
      <point x="46" y="584" type="curve" smooth="yes"/>
      <point x="46" y="576"/>
      <point x="46" y="570"/>
      <point x="49" y="570" type="curve" smooth="yes"/>
      <point x="52" y="570"/>
      <point x="59" y="573"/>
      <point x="69" y="578" type="curve" smooth="yes"/>
      <point x="102" y="595"/>
      <point x="179" y="620"/>
      <point x="276" y="620" type="curve" smooth="yes"/>
      <point x="420" y="620"/>
      <point x="539" y="531"/>
      <point x="533" y="336" type="curve" smooth="yes"/>
      <point x="525" y="139"/>
      <point x="401" y="39"/>
      <point x="248" y="39" type="curve" smooth="yes"/>
      <point x="119" y="39"/>
      <point x="59" y="97"/>
      <point x="41" y="97" type="curve" smooth="yes"/>
      <point x="35" y="97"/>
      <point x="28" y="71"/>
      <point x="28" y="56" type="curve" smooth="yes"/>
      <point x="28" y="49"/>
      <point x="26" y="42"/>
      <point x="47" y="32" type="curve" smooth="yes"/>
      <point x="86" y="12"/>
      <point x="151" y="0"/>
    </contour>
  </outline>
</glyph>
<glyph name="Ereversed" format="2">
  <advance width="563"/>
  <unicode hex="018E"/>
  <outline>
    <contour>
      <point x="49" y="0" type="curve" smooth="yes"/>
      <point x="433" y="0" type="line"/>
      <point x="434" y="76"/>
      <point x="457" y="422"/>
      <point x="474" y="639" type="curve"/>
      <point x="163" y="639" type="line" smooth="yes"/>
      <point x="160" y="639"/>
      <point x="157" y="633"/>
      <point x="156" y="625" type="curve" smooth="yes"/>
      <point x="155" y="610"/>
      <point x="158" y="587"/>
      <point x="162" y="587" type="curve" smooth="yes"/>
      <point x="165" y="587"/>
      <point x="235" y="596"/>
      <point x="376" y="596" type="curve" smooth="yes"/>
      <point x="408" y="596" type="line"/>
      <point x="409" y="552"/>
      <point x="406" y="458"/>
      <point x="400" y="355" type="curve"/>
      <point x="144" y="355" type="line" smooth="yes"/>
      <point x="142" y="355"/>
      <point x="139" y="349"/>
      <point x="138" y="341" type="curve" smooth="yes"/>
      <point x="136" y="326"/>
      <point x="139" y="304"/>
      <point x="143" y="304" type="curve" smooth="yes"/>
      <point x="147" y="304"/>
      <point x="216" y="312"/>
      <point x="357" y="312" type="curve" smooth="yes"/>
      <point x="397" y="312" type="line"/>
      <point x="392" y="228"/>
      <point x="384" y="149"/>
      <point x="376" y="82" type="curve" smooth="yes"/>
      <point x="371" y="43"/>
      <point x="358" y="37"/>
      <point x="281" y="37" type="curve" smooth="yes"/>
      <point x="100" y="37"/>
      <point x="51" y="58"/>
      <point x="44" y="58" type="curve" smooth="yes"/>
      <point x="39" y="58"/>
      <point x="38" y="52"/>
      <point x="37" y="44" type="curve" smooth="yes"/>
      <point x="35" y="26"/>
      <point x="42" y="0"/>
    </contour>
  </outline>
</glyph>
<glyph name="Schwa" format="2">
  <advance width="519"/>
  <unicode hex="018F"/>
  <outline>
    <contour>
      <point x="202" y="5" type="curve" smooth="yes"/>
      <point x="367" y="5"/>
      <point x="459" y="135"/>
      <point x="459" y="365" type="curve" smooth="yes"/>
      <point x="459" y="545"/>
      <point x="386" y="645"/>
      <point x="254" y="645" type="curve" smooth="yes"/>
      <point x="172" y="645"/>
      <point x="102" y="615"/>
      <point x="47" y="556" type="curve" smooth="yes"/>
      <point x="41" y="550"/>
      <point x="40" y="547"/>
      <point x="40" y="541" type="curve" smooth="yes"/>
      <point x="40" y="530"/>
      <point x="46" y="514"/>
      <point x="49" y="514" type="curve" smooth="yes"/>
      <point x="50" y="514"/>
      <point x="51" y="514"/>
      <point x="62" y="525" type="curve" smooth="yes"/>
      <point x="105" y="568"/>
      <point x="174" y="603"/>
      <point x="234" y="603" type="curve" smooth="yes"/>
      <point x="339" y="603"/>
      <point x="397" y="515"/>
      <point x="397" y="359" type="curve" smooth="yes"/>
      <point x="397" y="317"/>
      <point x="396" y="298"/>
      <point x="394" y="291" type="curve" smooth="yes"/>
      <point x="388" y="288" type="line" smooth="yes"/>
      <point x="357" y="295"/>
      <point x="309" y="301"/>
      <point x="259" y="301" type="curve" smooth="yes"/>
      <point x="160" y="301"/>
      <point x="42" y="255"/>
      <point x="42" y="134" type="curve" smooth="yes"/>
      <point x="42" y="52"/>
      <point x="101" y="5"/>
    </contour>
    <contour>
      <point x="217" y="34" type="curve" smooth="yes"/>
      <point x="152" y="34"/>
      <point x="111" y="71"/>
      <point x="111" y="131" type="curve" smooth="yes"/>
      <point x="111" y="216"/>
      <point x="165" y="264"/>
      <point x="261" y="264" type="curve" smooth="yes"/>
      <point x="309" y="264"/>
      <point x="371" y="248"/>
      <point x="380" y="234" type="curve" smooth="yes"/>
      <point x="381" y="230" type="line" smooth="yes"/>
      <point x="359" y="107"/>
      <point x="298" y="34"/>
    </contour>
  </outline>
</glyph>
<glyph name="Istroke" format="2">
  <advance width="290"/>
  <unicode hex="0197"/>
  <anchor x="122" y="0" name="bottom"/>
  <anchor x="261" y="10" name="ogonek"/>
  <anchor x="176" y="652" name="top"/>
  <anchor x="20" y="652" name="topleft"/>
  <outline>
    <contour>
      <point x="149" y="-13" type="curve" smooth="yes"/>
      <point x="157" y="-13"/>
      <point x="159" y="-10"/>
      <point x="159" y="-5" type="curve" smooth="yes"/>
      <point x="159" y="317"/>
      <point x="194" y="612"/>
      <point x="194" y="626" type="curve" smooth="yes"/>
      <point x="194" y="644"/>
      <point x="164" y="652"/>
      <point x="141" y="652" type="curve" smooth="yes"/>
      <point x="132" y="652"/>
      <point x="131" y="650"/>
      <point x="131" y="645" type="curve" smooth="yes"/>
      <point x="128" y="537"/>
      <point x="96" y="26"/>
      <point x="96" y="14" type="curve" smooth="yes"/>
      <point x="96" y="-4"/>
      <point x="126" y="-13"/>
    </contour>
    <contour>
      <point x="39" y="322" type="curve"/>
      <point x="234" y="322" type="line"/>
      <point x="250" y="322"/>
      <point x="257" y="343"/>
      <point x="257" y="360" type="curve" smooth="yes"/>
      <point x="257" y="366"/>
      <point x="254" y="368"/>
      <point x="249" y="368" type="curve"/>
      <point x="54" y="368" type="line"/>
      <point x="36" y="368"/>
      <point x="32" y="347"/>
      <point x="32" y="330" type="curve" smooth="yes"/>
      <point x="32" y="323"/>
      <point x="34" y="322"/>
    </contour>
  </outline>
</glyph>
<glyph name="Gstroke" format="2">
  <advance width="718"/>
  <unicode hex="01E4"/>
  <anchor x="356" y="0" name="bottom"/>
  <anchor x="390" y="652" name="top"/>
  <outline>
    <contour>
      <point x="377" y="-13" type="curve" smooth="yes"/>
      <point x="485" y="-13"/>
      <point x="564" y="0"/>
      <point x="626" y="23" type="curve"/>
      <point x="631" y="116"/>
      <point x="637" y="209"/>
      <point x="642" y="302" type="curve"/>
      <point x="473" y="302" type="line" smooth="yes"/>
      <point x="465" y="302"/>
      <point x="458" y="282"/>
      <point x="458" y="264" type="curve" smooth="yes"/>
      <point x="458" y="258"/>
      <point x="461" y="254"/>
      <point x="466" y="254" type="curve" smooth="yes"/>
      <point x="471" y="254"/>
      <point x="494" y="259"/>
      <point x="584" y="259" type="curve"/>
      <point x="582" y="190"/>
      <point x="574" y="71"/>
      <point x="572" y="53" type="curve"/>
      <point x="544" y="42"/>
      <point x="476" y="31"/>
      <point x="391" y="31" type="curve" smooth="yes"/>
      <point x="252" y="31"/>
      <point x="121" y="105"/>
      <point x="121" y="319" type="curve" smooth="yes"/>
      <point x="121" y="516"/>
      <point x="243" y="615"/>
      <point x="396" y="615" type="curve" smooth="yes"/>
      <point x="472" y="615"/>
      <point x="547" y="587"/>
      <point x="581" y="565" type="curve" smooth="yes"/>
      <point x="602" y="551"/>
      <point x="611" y="547"/>
      <point x="619" y="547" type="curve" smooth="yes"/>
      <point x="626" y="547"/>
      <point x="631" y="568"/>
      <point x="631" y="588" type="curve" smooth="yes"/>
      <point x="631" y="597"/>
      <point x="627" y="602"/>
      <point x="622" y="606" type="curve" smooth="yes"/>
      <point x="605" y="620"/>
      <point x="535" y="652"/>
      <point x="384" y="652" type="curve" smooth="yes"/>
      <point x="149" y="652"/>
      <point x="60" y="476"/>
      <point x="60" y="312" type="curve" smooth="yes"/>
      <point x="60" y="120"/>
      <point x="177" y="-13"/>
    </contour>
    <contour>
      <point x="408" y="133" type="curve" smooth="yes"/>
      <point x="683" y="134" type="line" smooth="yes"/>
      <point x="692" y="134"/>
      <point x="697" y="153"/>
      <point x="697" y="171" type="curve" smooth="yes"/>
      <point x="697" y="177"/>
      <point x="694" y="181"/>
      <point x="689" y="181" type="curve" smooth="yes"/>
      <point x="416" y="181" type="line" smooth="yes"/>
      <point x="407" y="181"/>
      <point x="401" y="161"/>
      <point x="401" y="143" type="curve" smooth="yes"/>
      <point x="401" y="137"/>
      <point x="403" y="133"/>
    </contour>
  </outline>
</glyph>
<glyph name="oogonek" format="2">
  <advance width="562"/>
  <unicode hex="01EB"/>
  <outline>
    <contour>
      <point x="262" y="-13" type="curve" smooth="yes"/>
      <point x="389" y="-13"/>
      <point x="499" y="60"/>
      <point x="499" y="292" type="curve" smooth="yes"/>
      <point x="499" y="471"/>
      <point x="414" y="524"/>
      <point x="300" y="524" type="curve" smooth="yes"/>
      <point x="173" y="524"/>
      <point x="63" y="451"/>
      <point x="63" y="219" type="curve" smooth="yes"/>
      <point x="63" y="40"/>
      <point x="147" y="-13"/>
    </contour>
    <contour>
      <point x="267" y="22" type="curve" smooth="yes"/>
      <point x="166" y="22"/>
      <point x="123" y="86"/>
      <point x="123" y="224" type="curve" smooth="yes"/>
      <point x="123" y="395"/>
      <point x="184" y="489"/>
      <point x="293" y="489" type="curve" smooth="yes"/>
      <point x="394" y="489"/>
      <point x="437" y="426"/>
      <point x="437" y="287" type="curve" smooth="yes"/>
      <point x="437" y="116"/>
      <point x="377" y="22"/>
    </contour>
    <contour>
      <point x="293" y="-188" type="curve" smooth="yes"/>
      <point x="335" y="-188"/>
      <point x="370" y="-157"/>
      <point x="403" y="-114" type="curve" smooth="yes"/>
      <point x="405" y="-112"/>
      <point x="406" y="-108"/>
      <point x="406" y="-104" type="curve" smooth="yes"/>
      <point x="406" y="-91"/>
      <point x="396" y="-75"/>
      <point x="392" y="-75" type="curve" smooth="yes"/>
      <point x="389" y="-75"/>
      <point x="388" y="-78"/>
      <point x="385" y="-81" type="curve"/>
      <point x="364" y="-109"/>
      <point x="332" y="-134"/>
      <point x="313" y="-134" type="curve" smooth="yes"/>
      <point x="301" y="-134"/>
      <point x="297" y="-127"/>
      <point x="297" y="-99" type="curve" smooth="yes"/>
      <point x="297" y="-28"/>
      <point x="411" y="53"/>
      <point x="411" y="62" type="curve"/>
      <point x="317" y="16"/>
      <point x="240" y="-54"/>
      <point x="240" y="-112" type="curve" smooth="yes"/>
      <point x="240" y="-135"/>
      <point x="240" y="-149"/>
      <point x="243" y="-155" type="curve" smooth="yes"/>
      <point x="248" y="-166"/>
      <point x="282" y="-188"/>
    </contour>
  </outline>
</glyph>
<glyph name="Ubar" format="2">
  <advance width="720"/>
  <unicode hex="0244"/>
  <anchor x="354" y="0" name="bottom"/>
  <anchor x="391" y="0" name="ogonek"/>
  <anchor x="390" y="652" name="top"/>
  <anchor x="690" y="652" name="topright"/>
  <outline>
    <contour>
      <point x="346" y="-13" type="curve" smooth="yes"/>
      <point x="427" y="-13"/>
      <point x="489" y="6"/>
      <point x="535" y="48" type="curve" smooth="yes"/>
      <point x="630" y="135"/>
      <point x="659" y="317"/>
      <point x="659" y="626" type="curve" smooth="yes"/>
      <point x="659" y="644"/>
      <point x="637" y="652"/>
      <point x="616" y="652" type="curve" smooth="yes"/>
      <point x="607" y="652"/>
      <point x="606" y="650"/>
      <point x="606" y="645" type="curve" smooth="yes"/>
      <point x="606" y="293"/>
      <point x="573" y="144"/>
      <point x="507" y="79" type="curve" smooth="yes"/>
      <point x="472" y="45"/>
      <point x="414" y="27"/>
      <point x="365" y="27" type="curve" smooth="yes"/>
      <point x="304" y="27"/>
      <point x="249" y="42"/>
      <point x="213" y="80" type="curve" smooth="yes"/>
      <point x="170" y="125"/>
      <point x="154" y="212"/>
      <point x="154" y="307" type="curve" smooth="yes"/>
      <point x="154" y="411"/>
      <point x="172" y="589"/>
      <point x="172" y="626" type="curve" smooth="yes"/>
      <point x="172" y="644"/>
      <point x="142" y="652"/>
      <point x="119" y="652" type="curve" smooth="yes"/>
      <point x="110" y="652"/>
      <point x="109" y="650"/>
      <point x="109" y="645" type="curve" smooth="yes"/>
      <point x="109" y="635"/>
      <point x="93" y="456"/>
      <point x="93" y="298" type="curve" smooth="yes"/>
      <point x="93" y="195"/>
      <point x="107" y="104"/>
      <point x="157" y="53" type="curve" smooth="yes"/>
      <point x="199" y="10"/>
      <point x="273" y="-13"/>
    </contour>
    <contour>
      <point x="34" y="455" type="curve"/>
      <point x="36" y="455"/>
      <point x="213" y="458"/>
      <point x="389" y="459" type="curve" smooth="yes"/>
      <point x="562" y="459"/>
      <point x="715" y="456"/>
      <point x="717" y="456" type="curve"/>
      <point x="726" y="456"/>
      <point x="731" y="475"/>
      <point x="731" y="489" type="curve" smooth="yes"/>
      <point x="731" y="495"/>
      <point x="728" y="499"/>
      <point x="723" y="499" type="curve"/>
      <point x="42" y="499" type="line"/>
      <point x="33" y="499"/>
      <point x="27" y="483"/>
      <point x="27" y="465" type="curve" smooth="yes"/>
      <point x="27" y="459"/>
      <point x="29" y="455"/>
    </contour>
  </outline>
</glyph>
<glyph name="alpha-latin" format="2">
  <advance width="641"/>
  <unicode hex="0251"/>
  <outline>
    <contour>
      <point x="487" y="-13" type="curve" smooth="yes"/>
      <point x="529" y="-13"/>
      <point x="614" y="88"/>
      <point x="647" y="131" type="curve" smooth="yes"/>
      <point x="649" y="133"/>
      <point x="650" y="137"/>
      <point x="650" y="141" type="curve" smooth="yes"/>
      <point x="650" y="154"/>
      <point x="640" y="170"/>
      <point x="636" y="170" type="curve" smooth="yes"/>
      <point x="633" y="170"/>
      <point x="632" y="167"/>
      <point x="629" y="164" type="curve"/>
      <point x="608" y="136"/>
      <point x="526" y="41"/>
      <point x="507" y="41" type="curve" smooth="yes"/>
      <point x="494" y="41"/>
      <point x="490" y="48"/>
      <point x="490" y="89" type="curve" smooth="yes"/>
      <point x="490" y="113"/>
      <point x="494" y="230"/>
      <point x="497" y="273" type="curve" smooth="yes"/>
      <point x="504" y="362"/>
      <point x="512" y="430"/>
      <point x="519" y="479" type="curve" smooth="yes"/>
      <point x="523" y="505"/>
      <point x="524" y="518"/>
      <point x="507" y="519" type="curve" smooth="yes"/>
      <point x="478" y="521"/>
      <point x="459" y="506"/>
      <point x="456" y="443" type="curve"/>
      <point x="424" y="493"/>
      <point x="379" y="524"/>
      <point x="313" y="524" type="curve" smooth="yes"/>
      <point x="234" y="524"/>
      <point x="66" y="451"/>
      <point x="66" y="219" type="curve" smooth="yes"/>
      <point x="66" y="40"/>
      <point x="149" y="-13"/>
      <point x="265" y="-13" type="curve" smooth="yes"/>
      <point x="338" y="-13"/>
      <point x="394" y="32"/>
      <point x="433" y="76" type="curve"/>
      <point x="433" y="57"/>
      <point x="433" y="25"/>
      <point x="436" y="20" type="curve" smooth="yes"/>
      <point x="441" y="9"/>
      <point x="476" y="-13"/>
    </contour>
    <contour>
      <point x="270" y="23" type="curve" smooth="yes"/>
      <point x="169" y="23"/>
      <point x="126" y="86"/>
      <point x="126" y="224" type="curve" smooth="yes"/>
      <point x="126" y="395"/>
      <point x="247" y="489"/>
      <point x="306" y="489" type="curve" smooth="yes"/>
      <point x="397" y="489"/>
      <point x="446" y="416"/>
      <point x="440" y="287" type="curve" smooth="yes"/>
      <point x="433" y="136"/>
      <point x="380" y="23"/>
    </contour>
  </outline>
</glyph>
<glyph name="ereversed" format="2">
  <advance width="465"/>
  <unicode hex="0258"/>
  <anchor x="241" y="0" name="bottom"/>
  <anchor x="104" y="0" name="ogonek"/>
  <anchor x="176" y="524" name="top"/>
  <outline>
    <contour>
      <point x="221" y="-13" type="curve" smooth="yes"/>
      <point x="319" y="-13"/>
      <point x="398" y="53"/>
      <point x="407" y="222" type="curve" smooth="yes"/>
      <point x="419" y="450"/>
      <point x="318" y="524"/>
      <point x="206" y="524" type="curve" smooth="yes"/>
      <point x="108" y="524"/>
      <point x="67" y="472"/>
      <point x="64" y="413" type="curve" smooth="yes"/>
      <point x="59" y="311"/>
      <point x="158" y="271"/>
      <point x="240" y="271" type="curve" smooth="yes"/>
      <point x="282" y="271"/>
      <point x="322" y="276"/>
      <point x="348" y="282" type="curve"/>
      <point x="350" y="275"/>
      <point x="349" y="246"/>
      <point x="348" y="227" type="curve" smooth="yes"/>
      <point x="341" y="112"/>
      <point x="298" y="30"/>
      <point x="207" y="30" type="curve" smooth="yes"/>
      <point x="146" y="30"/>
      <point x="96" y="69"/>
      <point x="76" y="88" type="curve" smooth="yes"/>
      <point x="64" y="100"/>
      <point x="62" y="103"/>
      <point x="58" y="103" type="curve" smooth="yes"/>
      <point x="52" y="103"/>
      <point x="45" y="89"/>
      <point x="45" y="77" type="curve" smooth="yes"/>
      <point x="44" y="71"/>
      <point x="45" y="68"/>
      <point x="51" y="62" type="curve" smooth="yes"/>
      <point x="91" y="16"/>
      <point x="147" y="-13"/>
    </contour>
    <contour>
      <point x="244" y="310" type="curve" smooth="yes"/>
      <point x="167" y="310"/>
      <point x="126" y="348"/>
      <point x="129" y="416" type="curve" smooth="yes"/>
      <point x="131" y="456"/>
      <point x="158" y="492"/>
      <point x="217" y="492" type="curve" smooth="yes"/>
      <point x="276" y="492"/>
      <point x="327" y="441"/>
      <point x="340" y="333" type="curve"/>
      <point x="335" y="325"/>
      <point x="290" y="310"/>
    </contour>
  </outline>
</glyph>
<glyph name="eopen" format="2">
  <advance width="425"/>
  <unicode hex="025B"/>
  <outline>
    <contour>
      <point x="247" y="-8" type="curve" smooth="yes"/>
      <point x="305" y="-8"/>
      <point x="337" y="1"/>
      <point x="361" y="14" type="curve" smooth="yes"/>
      <point x="373" y="20"/>
      <point x="379" y="28"/>
      <point x="381" y="47" type="curve" smooth="yes"/>
      <point x="382" y="59"/>
      <point x="382" y="65"/>
      <point x="373" y="65" type="curve" smooth="yes"/>
      <point x="361" y="65"/>
      <point x="311" y="28"/>
      <point x="253" y="28" type="curve" smooth="yes"/>
      <point x="164" y="28"/>
      <point x="98" y="59"/>
      <point x="103" y="140" type="curve" smooth="yes"/>
      <point x="109" y="232"/>
      <point x="147" y="254"/>
      <point x="289" y="254" type="curve" smooth="yes"/>
      <point x="298" y="254"/>
      <point x="301" y="266"/>
      <point x="302" y="278" type="curve" smooth="yes"/>
      <point x="303" y="290"/>
      <point x="299" y="294"/>
      <point x="288" y="294" type="curve" smooth="yes"/>
      <point x="181" y="294"/>
      <point x="124" y="308"/>
      <point x="130" y="390" type="curve" smooth="yes"/>
      <point x="134" y="450"/>
      <point x="193" y="481"/>
      <point x="269" y="481" type="curve" smooth="yes"/>
      <point x="327" y="481"/>
      <point x="373" y="444"/>
      <point x="385" y="444" type="curve" smooth="yes"/>
      <point x="394" y="444"/>
      <point x="395" y="450"/>
      <point x="395" y="462" type="curve" smooth="yes"/>
      <point x="395" y="481"/>
      <point x="390" y="489"/>
      <point x="379" y="495" type="curve" smooth="yes"/>
      <point x="356" y="508"/>
      <point x="325" y="517"/>
      <point x="267" y="517" type="curve" smooth="yes"/>
      <point x="156" y="517"/>
      <point x="75" y="462"/>
      <point x="69" y="386" type="curve" smooth="yes"/>
      <point x="65" y="332"/>
      <point x="100" y="293"/>
      <point x="151" y="275" type="curve"/>
      <point x="83" y="256"/>
      <point x="42" y="204"/>
      <point x="39" y="153" type="curve" smooth="yes"/>
      <point x="33" y="47"/>
      <point x="97" y="-8"/>
    </contour>
  </outline>
</glyph>
<glyph name="istroke" format="2">
  <advance width="312"/>
  <unicode hex="0268"/>
  <outline>
    <contour>
      <point x="158" y="-13" type="curve" smooth="yes"/>
      <point x="200" y="-13"/>
      <point x="285" y="88"/>
      <point x="318" y="131" type="curve" smooth="yes"/>
      <point x="320" y="133"/>
      <point x="321" y="137"/>
      <point x="321" y="141" type="curve" smooth="yes"/>
      <point x="321" y="154"/>
      <point x="311" y="170"/>
      <point x="307" y="170" type="curve" smooth="yes"/>
      <point x="304" y="170"/>
      <point x="303" y="167"/>
      <point x="300" y="164" type="curve"/>
      <point x="279" y="136"/>
      <point x="197" y="41"/>
      <point x="178" y="41" type="curve" smooth="yes"/>
      <point x="166" y="41"/>
      <point x="162" y="48"/>
      <point x="162" y="89" type="curve" smooth="yes"/>
      <point x="162" y="164"/>
      <point x="187" y="451"/>
      <point x="187" y="497" type="curve" smooth="yes"/>
      <point x="187" y="515"/>
      <point x="160" y="524"/>
      <point x="138" y="524" type="curve" smooth="yes"/>
      <point x="131" y="524"/>
      <point x="130" y="521"/>
      <point x="130" y="516" type="curve" smooth="yes"/>
      <point x="130" y="447"/>
      <point x="109" y="191"/>
      <point x="107" y="63" type="curve" smooth="yes"/>
      <point x="107" y="40"/>
      <point x="106" y="26"/>
      <point x="109" y="20" type="curve" smooth="yes"/>
      <point x="114" y="9"/>
      <point x="147" y="-13"/>
    </contour>
    <contour>
      <point x="20" y="293" type="curve" smooth="yes"/>
      <point x="23" y="293"/>
      <point x="290" y="294"/>
      <point x="295" y="294" type="curve" smooth="yes"/>
      <point x="304" y="294"/>
      <point x="309" y="313"/>
      <point x="309" y="331" type="curve" smooth="yes"/>
      <point x="309" y="337"/>
      <point x="306" y="341"/>
      <point x="301" y="341" type="curve"/>
      <point x="28" y="341" type="line"/>
      <point x="19" y="341"/>
      <point x="13" y="321"/>
      <point x="13" y="303" type="curve" smooth="yes"/>
      <point x="13" y="297"/>
      <point x="15" y="293"/>
    </contour>
    <contour>
      <point x="171" y="664" type="curve" smooth="yes"/>
      <point x="191" y="664"/>
      <point x="210" y="689"/>
      <point x="210" y="710" type="curve" smooth="yes"/>
      <point x="210" y="744"/>
      <point x="196" y="756"/>
      <point x="181" y="756" type="curve" smooth="yes"/>
      <point x="160" y="756"/>
      <point x="137" y="732"/>
      <point x="137" y="699" type="curve" smooth="yes"/>
      <point x="137" y="675"/>
      <point x="151" y="664"/>
    </contour>
  </outline>
</glyph>
<glyph name="tturned" format="2">
  <advance width="359"/>
  <unicode hex="0287"/>
  <outline>
    <contour>
      <point x="233" y="-152" type="curve" smooth="yes"/>
      <point x="241" y="-152"/>
      <point x="242" y="-150"/>
      <point x="242" y="-145" type="curve" smooth="yes"/>
      <point x="242" y="-137"/>
      <point x="251" y="-31"/>
      <point x="253" y="0" type="curve" smooth="yes"/>
      <point x="313" y="0" type="line" smooth="yes"/>
      <point x="329" y="0"/>
      <point x="335" y="21"/>
      <point x="335" y="38" type="curve" smooth="yes"/>
      <point x="335" y="45"/>
      <point x="333" y="46"/>
      <point x="328" y="46" type="curve" smooth="yes"/>
      <point x="255" y="46" type="line" smooth="yes"/>
      <point x="255" y="56"/>
      <point x="274" y="228"/>
      <point x="274" y="362" type="curve" smooth="yes"/>
      <point x="274" y="478"/>
      <point x="255" y="512"/>
      <point x="202" y="512" type="curve" smooth="yes"/>
      <point x="164" y="512"/>
      <point x="100" y="499"/>
      <point x="38" y="437" type="curve" smooth="yes"/>
      <point x="34" y="433"/>
      <point x="33" y="428"/>
      <point x="33" y="422" type="curve" smooth="yes"/>
      <point x="33" y="410"/>
      <point x="37" y="398"/>
      <point x="43" y="398" type="curve" smooth="yes"/>
      <point x="47" y="398"/>
      <point x="49" y="398"/>
      <point x="65" y="413" type="curve" smooth="yes"/>
      <point x="101" y="447"/>
      <point x="149" y="465"/>
      <point x="173" y="465" type="curve" smooth="yes"/>
      <point x="204" y="465"/>
      <point x="218" y="445"/>
      <point x="218" y="343" type="curve" smooth="yes"/>
      <point x="218" y="216"/>
      <point x="199" y="58"/>
      <point x="199" y="46" type="curve" smooth="yes"/>
      <point x="32" y="46" type="line" smooth="yes"/>
      <point x="15" y="46"/>
      <point x="9" y="25"/>
      <point x="9" y="8" type="curve" smooth="yes"/>
      <point x="9" y="2"/>
      <point x="12" y="0"/>
      <point x="17" y="0" type="curve" smooth="yes"/>
      <point x="197" y="0" type="line" smooth="yes"/>
      <point x="192" y="-43"/>
      <point x="183" y="-117"/>
      <point x="183" y="-126" type="curve" smooth="yes"/>
      <point x="183" y="-143"/>
      <point x="212" y="-152"/>
    </contour>
  </outline>
</glyph>
<glyph name="ezh" format="2">
  <advance width="467"/>
  <unicode hex="0292"/>
  <anchor x="234" y="0" name="bottom"/>
  <anchor x="246" y="524" name="top"/>
  <outline>
    <contour>
      <point x="171" y="-140" type="curve" smooth="yes"/>
      <point x="297" y="-140"/>
      <point x="397" y="-64"/>
      <point x="397" y="59" type="curve" smooth="yes"/>
      <point x="397" y="157"/>
      <point x="350" y="217"/>
      <point x="238" y="227" type="curve"/>
      <point x="334" y="347"/>
      <point x="410" y="437"/>
      <point x="420" y="451" type="curve" smooth="yes"/>
      <point x="428" y="461"/>
      <point x="429" y="471"/>
      <point x="429" y="478" type="curve" smooth="yes"/>
      <point x="429" y="492"/>
      <point x="420" y="512"/>
      <point x="411" y="512" type="curve" smooth="yes"/>
      <point x="69" y="512" type="line" smooth="yes"/>
      <point x="60" y="512"/>
      <point x="51" y="489"/>
      <point x="51" y="467" type="curve" smooth="yes"/>
      <point x="51" y="457"/>
      <point x="52" y="451"/>
      <point x="57" y="451" type="curve" smooth="yes"/>
      <point x="70" y="451"/>
      <point x="82" y="467"/>
      <point x="268" y="467" type="curve" smooth="yes"/>
      <point x="361" y="467" type="line"/>
      <point x="326" y="419"/>
      <point x="269" y="339"/>
      <point x="181" y="232" type="curve"/>
      <point x="175" y="227"/>
      <point x="169" y="217"/>
      <point x="169" y="204" type="curve" smooth="yes"/>
      <point x="169" y="196"/>
      <point x="169" y="193"/>
      <point x="171" y="193" type="curve" smooth="yes"/>
      <point x="257" y="193"/>
      <point x="337" y="158"/>
      <point x="337" y="38" type="curve" smooth="yes"/>
      <point x="337" y="-50"/>
      <point x="266" y="-103"/>
      <point x="170" y="-103" type="curve" smooth="yes"/>
      <point x="75" y="-103"/>
      <point x="29" y="-42"/>
      <point x="11" y="-42" type="curve" smooth="yes"/>
      <point x="1" y="-42"/>
      <point x="0" y="-50"/>
      <point x="0" y="-61" type="curve" smooth="yes"/>
      <point x="0" y="-87"/>
      <point x="5" y="-98"/>
      <point x="21" y="-108" type="curve" smooth="yes"/>
      <point x="52" y="-127"/>
      <point x="91" y="-140"/>
    </contour>
  </outline>
</glyph>
<glyph name="primemod" format="2">
  <advance width="195"/>
  <unicode hex="02B9"/>
  <outline>
    <contour>
      <point x="87" y="453" type="curve" smooth="yes"/>
      <point x="96" y="453"/>
      <point x="101" y="460"/>
      <point x="115" y="497" type="curve" smooth="yes"/>
      <point x="127" y="530"/>
      <point x="156" y="627"/>
      <point x="156" y="638" type="curve" smooth="yes"/>
      <point x="156" y="650"/>
      <point x="146" y="652"/>
      <point x="126" y="652" type="curve" smooth="yes"/>
      <point x="104" y="652"/>
      <point x="92" y="647"/>
      <point x="90" y="626" type="curve" smooth="yes"/>
      <point x="86" y="591"/>
      <point x="77" y="486"/>
      <point x="77" y="471" type="curve" smooth="yes"/>
      <point x="77" y="456"/>
      <point x="81" y="453"/>
    </contour>
  </outline>
</glyph>
<glyph name="apostrophemod" format="2">
  <advance width="218"/>
  <unicode hex="02BC"/>
  <outline>
    <contour>
      <point x="51" y="596" type="curve" smooth="yes"/>
      <point x="62" y="596"/>
      <point x="72" y="600"/>
      <point x="77" y="605" type="curve" smooth="yes"/>
      <point x="113" y="645"/>
      <point x="178" y="729"/>
      <point x="178" y="760" type="curve" smooth="yes"/>
      <point x="178" y="768"/>
      <point x="174" y="778"/>
      <point x="167" y="786" type="curve" smooth="yes"/>
      <point x="162" y="791"/>
      <point x="155" y="795"/>
      <point x="146" y="795" type="curve" smooth="yes"/>
      <point x="142" y="795"/>
      <point x="141" y="794"/>
      <point x="139" y="788" type="curve" smooth="yes"/>
      <point x="113" y="727"/>
      <point x="62" y="637"/>
      <point x="51" y="619" type="curve" smooth="yes"/>
      <point x="43" y="607"/>
      <point x="40" y="603"/>
      <point x="40" y="601" type="curve" smooth="yes"/>
      <point x="40" y="598"/>
      <point x="45" y="596"/>
    </contour>
  </outline>
</glyph>
<glyph name="commareversedmod" format="2">
  <advance width="198"/>
  <unicode hex="02BD"/>
  <outline>
    <contour>
      <point x="157" y="598" type="curve" smooth="yes"/>
      <point x="163" y="598"/>
      <point x="168" y="600"/>
      <point x="168" y="603" type="curve" smooth="yes"/>
      <point x="168" y="605"/>
      <point x="165" y="609"/>
      <point x="157" y="621" type="curve" smooth="yes"/>
      <point x="146" y="639"/>
      <point x="95" y="729"/>
      <point x="69" y="790" type="curve" smooth="yes"/>
      <point x="67" y="796"/>
      <point x="66" y="797"/>
      <point x="62" y="797" type="curve" smooth="yes"/>
      <point x="53" y="797"/>
      <point x="46" y="793"/>
      <point x="41" y="788" type="curve" smooth="yes"/>
      <point x="34" y="780"/>
      <point x="30" y="770"/>
      <point x="30" y="762" type="curve" smooth="yes"/>
      <point x="30" y="731"/>
      <point x="95" y="647"/>
      <point x="131" y="607" type="curve" smooth="yes"/>
      <point x="136" y="602"/>
      <point x="146" y="598"/>
    </contour>
  </outline>
</glyph>
<glyph name="verticallinelowmod" format="2">
  <advance width="104"/>
  <unicode hex="02CC"/>
  <outline>
    <contour>
      <point x="54" y="-403" type="curve" smooth="yes"/>
      <point x="66" y="-403"/>
      <point x="73" y="-400"/>
      <point x="73" y="-390" type="curve" smooth="yes"/>
      <point x="73" y="-380"/>
      <point x="94" y="-139"/>
      <point x="94" y="-129" type="curve" smooth="yes"/>
      <point x="94" y="-99"/>
      <point x="65" y="-94"/>
      <point x="50" y="-94" type="curve" smooth="yes"/>
      <point x="38" y="-94"/>
      <point x="31" y="-97"/>
      <point x="31" y="-107" type="curve" smooth="yes"/>
      <point x="31" y="-117"/>
      <point x="10" y="-357"/>
      <point x="10" y="-368" type="curve" smooth="yes"/>
      <point x="10" y="-398"/>
      <point x="39" y="-403"/>
    </contour>
  </outline>
</glyph>
<glyph name="acutecomb" format="2">
  <unicode hex="0301"/>
  <anchor x="62" y="524" name="_top"/>
  <anchor x="42" y="747" name="top"/>
  <outline>
    <contour>
      <point x="14" y="607" type="curve"/>
      <point x="20" y="614"/>
      <point x="135" y="722"/>
      <point x="187" y="759" type="curve" smooth="yes"/>
      <point x="190" y="761"/>
      <point x="190" y="766"/>
      <point x="190" y="771" type="curve" smooth="yes"/>
      <point x="190" y="783"/>
      <point x="179" y="806"/>
      <point x="167" y="806" type="curve" smooth="yes"/>
      <point x="163" y="806"/>
      <point x="159" y="805"/>
      <point x="154" y="800" type="curve" smooth="yes"/>
      <point x="137" y="783"/>
      <point x="17" y="673"/>
      <point x="4" y="652" type="curve" smooth="yes"/>
      <point x="1" y="647"/>
      <point x="-1" y="641"/>
      <point x="-1" y="636" type="curve" smooth="yes"/>
      <point x="-1" y="622"/>
      <point x="12" y="610"/>
    </contour>
  </outline>
</glyph>
<glyph name="circumflexcomb" format="2">
  <unicode hex="0302"/>
  <anchor x="135" y="524" name="_top"/>
  <anchor x="174" y="806" name="top"/>
  <outline>
    <contour>
      <point x="2" y="597" type="curve"/>
      <point x="5" y="602"/>
      <point x="93" y="686"/>
      <point x="151" y="734" type="curve"/>
      <point x="186" y="690"/>
      <point x="248" y="602"/>
      <point x="249" y="597" type="curve"/>
      <point x="251" y="598"/>
      <point x="270" y="611"/>
      <point x="270" y="621" type="curve" smooth="yes"/>
      <point x="270" y="630"/>
      <point x="265" y="642"/>
      <point x="260" y="650" type="curve" smooth="yes"/>
      <point x="239" y="686"/>
      <point x="195" y="751"/>
      <point x="165" y="790" type="curve" smooth="yes"/>
      <point x="161" y="795"/>
      <point x="156" y="796"/>
      <point x="153" y="796" type="curve" smooth="yes"/>
      <point x="149" y="796"/>
      <point x="146" y="795"/>
      <point x="141" y="790" type="curve" smooth="yes"/>
      <point x="123" y="775"/>
      <point x="5" y="663"/>
      <point x="-8" y="642" type="curve" smooth="yes"/>
      <point x="-11" y="637"/>
      <point x="-13" y="631"/>
      <point x="-13" y="626" type="curve" smooth="yes"/>
      <point x="-13" y="612"/>
      <point x="0" y="600"/>
    </contour>
  </outline>
</glyph>
<glyph name="tildecomb" format="2">
  <unicode hex="0303"/>
  <anchor x="150" y="524" name="_top"/>
  <anchor x="208" y="686" name="top"/>
  <outline>
    <contour>
      <point x="242" y="600" type="curve" smooth="yes"/>
      <point x="263" y="600"/>
      <point x="276" y="605"/>
      <point x="291" y="628" type="curve" smooth="yes"/>
      <point x="302" y="645"/>
      <point x="315" y="686"/>
      <point x="315" y="711" type="curve" smooth="yes"/>
      <point x="315" y="716"/>
      <point x="305" y="720"/>
      <point x="296" y="720" type="curve" smooth="yes"/>
      <point x="292" y="720"/>
      <point x="291" y="718"/>
      <point x="290" y="713" type="curve" smooth="yes"/>
      <point x="278" y="665"/>
      <point x="270" y="649"/>
      <point x="249" y="649" type="curve" smooth="yes"/>
      <point x="219" y="649"/>
      <point x="117" y="730"/>
      <point x="83" y="730" type="curve" smooth="yes"/>
      <point x="62" y="730"/>
      <point x="48" y="725"/>
      <point x="34" y="702" type="curve" smooth="yes"/>
      <point x="23" y="684"/>
      <point x="10" y="644"/>
      <point x="10" y="619" type="curve" smooth="yes"/>
      <point x="10" y="614"/>
      <point x="20" y="610"/>
      <point x="29" y="610" type="curve" smooth="yes"/>
      <point x="33" y="610"/>
      <point x="34" y="611"/>
      <point x="35" y="616" type="curve" smooth="yes"/>
      <point x="47" y="664"/>
      <point x="55" y="681"/>
      <point x="75" y="681" type="curve" smooth="yes"/>
      <point x="106" y="681"/>
      <point x="208" y="600"/>
    </contour>
  </outline>
</glyph>
<glyph name="macroncomb" format="2">
  <unicode hex="0304"/>
  <anchor x="182" y="524" name="_top"/>
  <anchor x="196" y="651" name="top"/>
  <outline>
    <contour>
      <point x="28" y="628" type="curve" smooth="yes"/>
      <point x="321" y="628" type="line" smooth="yes"/>
      <point x="338" y="628"/>
      <point x="344" y="649"/>
      <point x="344" y="669" type="curve" smooth="yes"/>
      <point x="344" y="677"/>
      <point x="341" y="678"/>
      <point x="336" y="678" type="curve" smooth="yes"/>
      <point x="43" y="678" type="line" smooth="yes"/>
      <point x="26" y="678"/>
      <point x="20" y="655"/>
      <point x="20" y="637" type="curve" smooth="yes"/>
      <point x="20" y="629"/>
      <point x="23" y="628"/>
    </contour>
  </outline>
</glyph>
<glyph name="brevecomb" format="2">
  <unicode hex="0306"/>
  <anchor x="103" y="524" name="_top"/>
  <anchor x="48" y="638" name="top"/>
  <outline>
    <contour>
      <point x="111" y="622" type="curve" smooth="yes"/>
      <point x="159" y="622"/>
      <point x="205" y="650"/>
      <point x="205" y="707" type="curve" smooth="yes"/>
      <point x="205" y="732"/>
      <point x="186" y="736"/>
      <point x="170" y="736" type="curve" smooth="yes"/>
      <point x="160" y="736"/>
      <point x="159" y="732"/>
      <point x="159" y="717" type="curve" smooth="yes"/>
      <point x="159" y="679"/>
      <point x="130" y="664"/>
      <point x="101" y="664" type="curve" smooth="yes"/>
      <point x="81" y="664"/>
      <point x="67" y="669"/>
      <point x="55" y="679" type="curve" smooth="yes"/>
      <point x="26" y="704"/>
      <point x="26" y="752"/>
      <point x="14" y="752" type="curve" smooth="yes"/>
      <point x="5" y="752"/>
      <point x="0" y="746"/>
      <point x="0" y="726" type="curve" smooth="yes"/>
      <point x="0" y="659"/>
      <point x="57" y="622"/>
    </contour>
  </outline>
</glyph>
<glyph name="dieresiscomb" format="2">
  <unicode hex="0308"/>
  <anchor x="145" y="524" name="_top"/>
  <anchor x="168" y="696" name="top"/>
  <outline>
    <contour>
      <point x="257" y="653" type="curve" smooth="yes"/>
      <point x="277" y="653"/>
      <point x="296" y="678"/>
      <point x="296" y="699" type="curve" smooth="yes"/>
      <point x="296" y="733"/>
      <point x="282" y="745"/>
      <point x="267" y="745" type="curve" smooth="yes"/>
      <point x="246" y="745"/>
      <point x="223" y="721"/>
      <point x="223" y="688" type="curve" smooth="yes"/>
      <point x="223" y="664"/>
      <point x="237" y="653"/>
    </contour>
    <contour>
      <point x="57" y="653" type="curve" smooth="yes"/>
      <point x="77" y="653"/>
      <point x="96" y="678"/>
      <point x="96" y="699" type="curve" smooth="yes"/>
      <point x="96" y="733"/>
      <point x="82" y="745"/>
      <point x="67" y="745" type="curve" smooth="yes"/>
      <point x="46" y="745"/>
      <point x="23" y="721"/>
      <point x="23" y="688" type="curve" smooth="yes"/>
      <point x="23" y="664"/>
      <point x="37" y="653"/>
    </contour>
  </outline>
</glyph>
